<?xml version="1.0" standalone="no"?>
<!DOCTYPE svg PUBLIC "-//W3C//DTD SVG 1.1//EN" "http://www.w3.org/Graphics/SVG/1.1/DTD/svg11.dtd" >
<svg>
<metadata>
Created by FontForge 20090914 at Mon Nov 15 18:53:52 2021
 By www-data
Copyright 2020 The Saira Project Authors (https://github.com/Omnibus-Type/Saira)
</metadata>
<defs>
<font id="Saira-Regular" horiz-adv-x="0" >
  <font-face 
    font-family="Saira"
    font-weight="400"
    font-stretch="normal"
    units-per-em="1000"
    panose-1="0 0 0 0 0 0 0 0 0 0"
    ascent="800"
    descent="-200"
    x-height="510"
    cap-height="688"
    bbox="-185 -398.003 1245 1167"
    underline-thickness="35"
    underline-position="-143"
    unicode-range="U+000D-U+FB02"
  />
<missing-glyph horiz-adv-x="500" 
d="M0 0v700h500v-700h-500zM225 99v70h60v-70h-60zM50 50h400v600h-400v-600zM229 215l0.000976562 63.002c0 21.333 5.5 38.666 16.5 51.999s23.5 25.666 37.5 36.999s26.833 24.166 38.5 38.499s17.5 34.166 17.5 59.499c0 9.33301 -2 20.833 -6 34.5
s-12.333 25.834 -25 36.501s-32 16 -58 16c-22.667 0 -40.5 -4 -53.5 -12s-22.667 -17.833 -29 -29.5s-10.5 -22.834 -12.5 -33.501s-3 -19 -3 -25v-28h-49c-0.666992 3.33301 -1.5 7.83301 -2.5 13.5s-1.5 11.5 -1.5 17.5s1.33301 16.833 4 32.5s9 32.334 19 50.001
s25.167 32.834 45.5 45.501s47.833 19 82.5 19c35.333 0 62.666 -6.33301 81.999 -19s33.333 -27.334 42 -44.001s14 -32 16 -46s3 -22.667 3 -26c0 -33.333 -7.33301 -59.833 -22 -79.5s-29.667 -36.167 -45 -49.5c-11.333 -9.33301 -21.5 -19.166 -30.5 -29.499
s-13.5 -23.833 -13.5 -40.5v-53h-53z" />
    <glyph glyph-name="fi" unicode="fi" horiz-adv-x="626" 
d="M130 0l-0.00292969 441.001h-104v69h104v81c0 28.667 2.33301 52.167 7 70.5s12.167 33 22.5 44s23.833 19.167 40.5 24.5s36.834 8.66602 60.501 9.99902s51.167 2 82.5 2v-62c-27.333 0 -49.666 -1 -66.999 -3s-30.666 -5.5 -39.999 -10.5s-15.833 -12.5 -19.5 -22.5
s-5.5 -23 -5.5 -39v-95h132v-69h-132v-441h-81zM458.997 0.000976562v510h81v-510h-81zM455.997 654.001v89h87v-89h-87z" />
    <glyph glyph-name="fl" unicode="fl" horiz-adv-x="606" 
d="M130 0l-0.00292969 441.001h-104v69h104v81c0 28.667 2.33301 52.167 7 70.5s12.167 33 22.5 44s23.833 19.167 40.5 24.5s36.834 8.66602 60.501 9.99902s51.167 2 82.5 2v-62c-27.333 0 -49.666 -1 -66.999 -3s-30.666 -5.5 -39.999 -10.5s-15.833 -12.5 -19.5 -22.5
s-5.5 -23 -5.5 -39v-95h132v-69h-132v-441h-81zM438.997 0.000976562v743h81v-743h-81z" />
    <glyph glyph-name="f_f" unicode="ff" horiz-adv-x="681" 
d="M130 0l-0.00390625 441.002h-104v69h104v81c0 28.667 2.33301 52.167 7 70.5s12.167 33 22.5 44s23.833 19.167 40.5 24.5s36.834 8.66602 60.501 9.99902s51.167 2 82.5 2v-62c-27.333 0 -49.666 -1 -66.999 -3s-30.666 -5.5 -39.999 -10.5s-15.833 -12.5 -19.5 -22.5
s-5.5 -23 -5.5 -39v-95h228v81c0 28.667 2.33301 52.167 7 70.5s12.167 33 22.5 44s23.833 19.167 40.5 24.5s36.834 8.66602 60.501 9.99902s51.167 2 82.5 2v-62c-28 0 -50.5 -1 -67.5 -3s-30.167 -5.5 -39.5 -10.5s-15.833 -12.5 -19.5 -22.5s-5.5 -23 -5.5 -39v-95h132
v-69h-132v-441h-81v441h-228v-441h-81z" />
    <glyph glyph-name="f_f_i" unicode="ffi" horiz-adv-x="935" 
d="M130 0l-0.00390625 441.002h-104v69h104v81c0 28.667 2.33301 52.167 7 70.5s12.167 33 22.5 44s23.833 19.167 40.5 24.5s36.834 8.66602 60.501 9.99902s51.167 2 82.5 2v-62c-27.333 0 -49.666 -1 -66.999 -3s-30.666 -5.5 -39.999 -10.5s-15.833 -12.5 -19.5 -22.5
s-5.5 -23 -5.5 -39v-95h228v81c0 28.667 2.33301 52.167 7 70.5s12.167 33 22.5 44s23.833 19.167 40.5 24.5s36.834 8.66602 60.501 9.99902s51.167 2 82.5 2v-62c-28 0 -50.5 -1 -67.5 -3s-30.167 -5.5 -39.5 -10.5s-15.833 -12.5 -19.5 -22.5s-5.5 -23 -5.5 -39v-95h132
v-69h-132v-441h-81v441h-228v-441h-81zM766.996 0.00195312v510h82v-510h-82zM764.996 654.002v89h87v-89h-87z" />
    <glyph glyph-name="f_f_l" unicode="ffl" horiz-adv-x="915" 
d="M130 0l-0.00390625 441.002h-104v69h104v81c0 28.667 2.33301 52.167 7 70.5s12.167 33 22.5 44s23.833 19.167 40.5 24.5s36.834 8.66602 60.501 9.99902s51.167 2 82.5 2v-62c-27.333 0 -49.666 -1 -66.999 -3s-30.666 -5.5 -39.999 -10.5s-15.833 -12.5 -19.5 -22.5
s-5.5 -23 -5.5 -39v-95h228v81c0 28.667 2.33301 52.167 7 70.5s12.167 33 22.5 44s23.833 19.167 40.5 24.5s36.834 8.66602 60.501 9.99902s51.167 2 82.5 2v-62c-28 0 -50.5 -1 -67.5 -3s-30.167 -5.5 -39.5 -10.5s-15.833 -12.5 -19.5 -22.5s-5.5 -23 -5.5 -39v-95h132
v-69h-132v-441h-81v441h-228v-441h-81zM746.996 0.00195312v743h82v-743h-82z" />
    <glyph glyph-name=".notdef" horiz-adv-x="500" 
d="M0 0v700h500v-700h-500zM225 99v70h60v-70h-60zM50 50h400v600h-400v-600zM229 215l0.000976562 63.002c0 21.333 5.5 38.666 16.5 51.999s23.5 25.666 37.5 36.999s26.833 24.166 38.5 38.499s17.5 34.166 17.5 59.499c0 9.33301 -2 20.833 -6 34.5
s-12.333 25.834 -25 36.501s-32 16 -58 16c-22.667 0 -40.5 -4 -53.5 -12s-22.667 -17.833 -29 -29.5s-10.5 -22.834 -12.5 -33.501s-3 -19 -3 -25v-28h-49c-0.666992 3.33301 -1.5 7.83301 -2.5 13.5s-1.5 11.5 -1.5 17.5s1.33301 16.833 4 32.5s9 32.334 19 50.001
s25.167 32.834 45.5 45.501s47.833 19 82.5 19c35.333 0 62.666 -6.33301 81.999 -19s33.333 -27.334 42 -44.001s14 -32 16 -46s3 -22.667 3 -26c0 -33.333 -7.33301 -59.833 -22 -79.5s-29.667 -36.167 -45 -49.5c-11.333 -9.33301 -21.5 -19.166 -30.5 -29.499
s-13.5 -23.833 -13.5 -40.5v-53h-53z" />
    <glyph glyph-name="CR" unicode="&#xd;" horiz-adv-x="235" 
 />
    <glyph glyph-name="space" unicode=" " horiz-adv-x="235" 
 />
    <glyph glyph-name="exclam" unicode="!" horiz-adv-x="249" 
d="M96 197l-4 88c-1.33301 30 -2.83301 59.833 -4.5 89.5s-3 58 -4 85s-1.83301 51.167 -2.5 72.5s-1 39.333 -1 54v102h95v-102c0 -14.667 -0.333008 -32.667 -1 -54s-1.5 -45.5 -2.5 -72.5s-2.33301 -55.333 -4 -85s-3.16699 -59.5 -4.5 -89.5l-4 -88h-63zM80 0v98h95v-98
h-95z" />
    <glyph glyph-name="quotedbl" unicode="&#x22;" horiz-adv-x="348" 
d="M215 444l-11 168v76h79v-76l-12 -168h-56zM76 444l-11 168v76h79v-76l-12 -168h-56z" />
    <glyph glyph-name="numbersign" unicode="#" horiz-adv-x="792" 
d="M121 0l44 191h-98v61h112l41 177h-116v61h130l46 198h62l-47 -198h173l46 198h62l-46 -198h102v-61h-116l-41 -177h120v-61h-134l-44 -191h-62l44 191h-173l-43 -191h-62zM240 252h173l41 177h-173z" />
    <glyph glyph-name="dollar" unicode="$" horiz-adv-x="538" 
d="M265 67c-20 0.666992 -40.833 1.66992 -62.5 3.00293s-42.5 3 -62.5 5s-38 4 -54 6v68c8.66699 -0.666992 18.834 -1.66699 30.501 -3s24.834 -2.33301 39.501 -3s30.667 -1.5 48 -2.5s36 -1.5 56 -1.5c37.333 0 65 2.33301 83 7s29.833 13.167 35.5 25.5
s8.5 29.5 8.5 51.5c0 24 -1.83301 41.167 -5.5 51.5s-10.167 17.166 -19.5 20.499s-22.333 5.66602 -39 6.99902l-140 16c-30.667 4.66699 -54.167 12.5 -70.5 23.5s-27.666 26.667 -33.999 47s-9.5 45.166 -9.5 74.499c0 32 4.33301 58.167 13 78.5s21.667 36 39 47
s38.5 18.667 63.5 23s53.5 6.5 85.5 6.5c22.667 0 43.667 -0.5 63 -1.5s37.833 -2.5 55.5 -4.5s34.5 -4.66699 50.5 -8v-68c-16.667 2.66699 -34.667 4.83398 -54 6.50098s-38.333 2.83398 -57 3.50098s-36.334 1 -53.001 1c-20 0 -37.667 -0.5 -53 -1.5s-28.333 -4 -39 -9
s-18.834 -13 -24.501 -24s-8.5 -26.167 -8.5 -45.5c0 -21.333 1.5 -37.166 4.5 -47.499s9.16699 -17.333 18.5 -21s22.666 -6.5 39.999 -8.5l150 -16c26 -2.66699 46.667 -8.33398 62 -17.001s26.333 -23.334 33 -44.001s10 -50 10 -88
c0 -42.667 -6.5 -75.334 -19.5 -98.001s-34.167 -38 -63.5 -46s-69.333 -12.667 -120 -14zM239 -7.99707v704h64v-704h-64z" />
    <glyph glyph-name="percent" unicode="%" horiz-adv-x="826" 
d="M156 0l449 688h65l-449 -688h-65zM198 311c-33.333 0 -59.666 2.83301 -78.999 8.5s-33.333 15.5 -42 29.5s-14.334 33.5 -17.001 58.5s-4 56.833 -4 95.5s1.33301 70.5 4 95.5s8.33398 44.667 17.001 59s22.667 24.333 42 30s45.666 8.5 78.999 8.5
s59.5 -2.83301 78.5 -8.5s32.833 -15.667 41.5 -30s14.167 -34 16.5 -59s3.5 -56.833 3.5 -95.5s-1.16699 -70.5 -3.5 -95.5s-7.83301 -44.5 -16.5 -58.5s-22.5 -23.833 -41.5 -29.5s-45.167 -8.5 -78.5 -8.5zM198 361c19.333 0 34.501 1 45.501 3s19.167 7.16699 24.5 15.5
s8.66602 22.333 9.99902 42s2 46.834 2 81.501s-0.5 61.667 -1.5 81s-4 33.333 -9 42s-13.167 14 -24.5 16s-27 3 -47 3c-19.333 0 -34.833 -1 -46.5 -3s-20 -7.33301 -25 -16s-8.33301 -22.667 -10 -42s-2.5 -46.333 -2.5 -81s0.833008 -61.834 2.5 -81.501
s5 -33.667 10 -42s13.333 -13.5 25 -15.5s27.167 -3 46.5 -3zM629.001 -8c-32.667 0 -58.667 2.83301 -78 8.5s-33.5 15.5 -42.5 29.5s-14.667 33.5 -17 58.5s-3.5 56.833 -3.5 95.5s1.16699 70.5 3.5 95.5s8 44.667 17 59s23.167 24.333 42.5 30s45.333 8.5 78 8.5
c34 0 60.333 -2.83301 79 -8.5s32.5 -15.667 41.5 -30s14.667 -34 17 -59s3.5 -56.833 3.5 -95.5s-1.16699 -70.5 -3.5 -95.5s-8 -44.5 -17 -58.5s-22.833 -23.833 -41.5 -29.5s-45 -8.5 -79 -8.5zM629.001 42c20 0 35.501 1 46.501 3s19.167 7.16699 24.5 15.5
s8.66602 22.333 9.99902 42s2 46.834 2 81.501s-0.5 61.667 -1.5 81s-4.16699 33.333 -9.5 42s-13.5 14 -24.5 16s-26.833 3 -47.5 3c-19.333 0 -34.5 -1 -45.5 -3s-19.167 -7.33301 -24.5 -16s-8.66602 -22.667 -9.99902 -42s-2 -46.333 -2 -81s0.666992 -61.834 2 -81.501
s4.66602 -33.667 9.99902 -42s13.5 -13.5 24.5 -15.5s26.167 -3 45.5 -3z" />
    <glyph glyph-name="ampersand" unicode="&#x26;" horiz-adv-x="736" 
d="M363 -8c-51.333 0 -94.6641 3.00391 -129.997 9.00391s-63.833 14.5 -85.5 25.5s-38.334 24.333 -50.001 40s-19.5 33.5 -23.5 53.5s-6 41.333 -6 64c0 37.333 4.83301 66.833 14.5 88.5s23.834 38.334 42.501 50.001s41.334 20.5 68.001 26.5v4
c-40 9.33301 -69.833 26.166 -89.5 50.499s-29.5 61.5 -29.5 111.5c0 26 3.83301 50 11.5 72s21.667 41.167 42 57.5s49.5 29 87.5 38s87 13.5 147 13.5c21.333 0 45 -0.833008 71 -2.5s51.667 -3.83398 77 -6.50098s48 -6 68 -10v-66c-20 3.33301 -41.667 6 -65 8
s-46 3.66699 -68 5s-41.667 2 -59 2c-50.667 0 -91.334 -2.16699 -122.001 -6.5s-53.667 -11.333 -69 -21s-25.5 -22.334 -30.5 -38.001s-7.5 -34.834 -7.5 -57.501c0 -14.667 1.16699 -29.167 3.5 -43.5s8 -27.166 17 -38.499s23 -20.5 42 -27.5s45.167 -10.5 78.5 -10.5
h95v-70h-95c-33.333 0 -59.833 -2.66699 -79.5 -8s-34.5 -13.333 -44.5 -24s-16.333 -23.834 -19 -39.501s-4 -33.834 -4 -54.501c0 -36.667 7.33301 -63.834 22 -81.501s37.667 -29.5 69 -35.5s71.666 -9 120.999 -9c19.333 0 38.666 0.5 57.999 1.5s38.5 2.33301 57.5 4
s37.167 3.83398 54.5 6.50098l-31 -42v352h196v-70h-116v-302c-18 -3.33301 -39.5 -6.33301 -64.5 -9s-50.833 -5 -77.5 -7s-52.334 -3 -77.001 -3z" />
    <glyph glyph-name="quotesingle" unicode="'" horiz-adv-x="209" 
d="M76 444l-11 168v76h79v-76l-12 -168h-56z" />
    <glyph glyph-name="parenleft" unicode="(" horiz-adv-x="308" 
d="M227 -150c-22 26 -41.167 49.8281 -57.5 71.4951s-30.166 43.667 -41.499 66s-20.5 47.5 -27.5 75.5s-12.167 60.833 -15.5 98.5s-5 82.834 -5 135.501s1.66699 97.834 5 135.501s8.5 70.5 15.5 98.5s16.167 53.333 27.5 76s25.166 44.667 41.499 66
s35.5 44.666 57.5 69.999h61c-17.333 -22 -32.666 -42.667 -45.999 -62s-25.166 -39.666 -35.499 -60.999s-19.166 -46.166 -26.499 -74.499s-12.666 -62.666 -15.999 -102.999s-5 -88.833 -5 -145.5c0 -57.333 1.66699 -106 5 -146s8.66602 -74.333 15.999 -103
s16.166 -53.667 26.499 -75s22.166 -41.666 35.499 -60.999s28.666 -40 45.999 -62h-61z" />
    <glyph glyph-name="parenright" unicode=")" horiz-adv-x="308" 
d="M20 -150l45.5 62.0049c13.667 19.333 25.667 39.666 36 60.999s19.166 46.333 26.499 75s12.666 63 15.999 103s5 88.667 5 146c0 56.667 -1.66699 105.167 -5 145.5s-8.66602 74.666 -15.999 102.999s-16.166 53.166 -26.499 74.499s-22.333 41.666 -36 60.999l-45.5 62
h61c22 -25.333 41.167 -48.666 57.5 -69.999s30.166 -43.333 41.499 -66s20.5 -48 27.5 -76s12.167 -60.833 15.5 -98.5s5 -82.834 5 -135.501s-1.66699 -97.834 -5 -135.501s-8.5 -70.5 -15.5 -98.5s-16.167 -53.167 -27.5 -75.5s-25.166 -44.333 -41.499 -66
s-35.5 -45.5 -57.5 -71.5h-61z" />
    <glyph glyph-name="asterisk" unicode="*" horiz-adv-x="442" 
d="M193 320l8 148l-126 -81l-27 50l132 66l-132 69l27 49l126 -81l-8 148h56l-8 -148l126 81l27 -49l-132 -69l132 -66l-27 -50l-125 81l7 -148h-56z" />
    <glyph glyph-name="plus" unicode="+" horiz-adv-x="540" 
d="M236 52v168h-166v66h166v166h66v-166h168v-66h-168v-168h-66z" />
    <glyph glyph-name="comma" unicode="," horiz-adv-x="223" 
d="M43 -120l-0.000976562 39.0029c16 0 28.333 1.66699 37 5s14.334 9.66602 17.001 18.999s4 22.666 4 39.999v17h-37v98h95v-82c0 -28 -1.5 -50.833 -4.5 -68.5s-8.5 -31.334 -16.5 -41.001s-19.667 -16.5 -35 -20.5s-35.333 -6 -60 -6z" />
    <glyph glyph-name="hyphen" unicode="-" horiz-adv-x="362" 
d="M59 248v74h243v-74h-243z" />
    <glyph glyph-name="period" unicode="." horiz-adv-x="223" 
d="M64 0v98h95v-98h-95z" />
    <glyph glyph-name="slash" unicode="/" horiz-adv-x="359" 
d="M-4 -55l290 798h76l-291 -798h-75z" />
    <glyph glyph-name="zero" unicode="0" horiz-adv-x="671" 
d="M335 -8c-50 0 -91.167 2.83301 -123.5 8.5s-57.666 15.834 -75.999 30.501s-31.666 35.167 -39.999 61.5s-13.666 60 -15.999 101s-3.5 91.167 -3.5 150.5s1.16699 109.5 3.5 150.5s7.66602 74.667 15.999 101s21.666 46.833 39.999 61.5s43.666 24.834 75.999 30.501
s73.5 8.5 123.5 8.5s91.167 -2.83301 123.5 -8.5s57.666 -15.834 75.999 -30.501s31.833 -35.167 40.5 -61.5s14 -60 16 -101s3 -91.167 3 -150.5s-1 -109.5 -3 -150.5s-7.33301 -74.667 -16 -101s-22.167 -46.833 -40.5 -61.5s-43.666 -24.834 -75.999 -30.501
s-73.5 -8.5 -123.5 -8.5zM335 66c34 0 61.667 1.16699 83 3.5s38.166 7.83301 50.499 16.5s21.333 23 27 43s9.33398 47.333 11.001 82s2.5 79 2.5 133s-0.833008 98.333 -2.5 133s-5.33398 62 -11.001 82s-14.667 34.333 -27 43s-29.166 14.167 -50.499 16.5
s-49 3.5 -83 3.5c-32.667 0 -60 -1.16699 -82 -3.5s-39.167 -7.83301 -51.5 -16.5s-21.333 -23 -27 -43s-9.16699 -47.333 -10.5 -82s-2 -79 -2 -133s0.666992 -98.333 2 -133s4.83301 -62 10.5 -82s14.667 -34.333 27 -43s29.333 -14.167 51 -16.5s49.167 -3.5 82.5 -3.5z
" />
    <glyph glyph-name="one" unicode="1" horiz-adv-x="376" 
d="M180 0v590l-142 -69v77l167 90h61v-688h-86z" />
    <glyph glyph-name="two" unicode="2" horiz-adv-x="610" 
d="M70 0l-0.00292969 80c0 38 0.833008 69.833 2.5 95.5s6.16699 46.834 13.5 63.501s18.833 31 34.5 43s37.834 24 66.501 36l181 77c24 10.667 42 20.667 54 30s20.167 20.666 24.5 33.999s6.5 31 6.5 53c0 32 -4.83301 55.833 -14.5 71.5s-26.667 26 -51 31
s-58.833 7.5 -103.5 7.5c-16 0 -35.5 -0.666992 -58.5 -2s-46.833 -2.83301 -71.5 -4.5s-48 -3.83398 -70 -6.50098v70c19.333 3.33301 41.833 6.16602 67.5 8.49902s52.334 4.33301 80.001 6s53.834 2.5 78.501 2.5c32 0 61.667 -1.66699 89 -5
s51.666 -10.666 72.999 -21.999s37.833 -28.833 49.5 -52.5s17.5 -55.5 17.5 -95.5s-4.16699 -71.833 -12.5 -95.5s-21.666 -42.667 -39.999 -57s-42.5 -27.833 -72.5 -40.5l-206 -87c-17.333 -7.33301 -29.833 -15.666 -37.5 -24.999s-12.5 -21.5 -14.5 -36.5
s-3 -34.167 -3 -57.5v-47h386v-75h-469z" />
    <glyph glyph-name="three" unicode="3" horiz-adv-x="601" 
d="M264 -8c-20.667 0 -43.502 0.834961 -68.502 2.50195s-49.333 3.83398 -73 6.50098s-44.5 5.33398 -62.5 8.00098v69l71 -6c24.667 -2 48 -3.5 70 -4.5s41 -1.5 57 -1.5c39.333 0 72.666 2.5 99.999 7.5s47.833 16 61.5 33s20.5 43.833 20.5 80.5
c0 30.667 -4.33301 55.167 -13 73.5s-22.667 31.333 -42 39s-45 11.5 -77 11.5h-129v75h129c22.667 0 43.334 3 62.001 9s33.667 17.333 45 34s17 41.334 17 74.001c0 36 -6 62.333 -18 79s-31.5 27.5 -58.5 32.5s-62.833 7.5 -107.5 7.5c-18 0 -38 -0.666992 -60 -2
s-43.833 -2.83301 -65.5 -4.5s-41.167 -3.83398 -58.5 -6.50098v70c18 3.33301 38.667 6.16602 62 8.49902s47.333 4.33301 72 6s47 2.5 67 2.5c48.667 0 89.334 -3.66699 122.001 -11s58.667 -18.333 78 -33s33.166 -33.334 41.499 -56.001s12.5 -49.667 12.5 -81
c0 -50 -10.167 -87.333 -30.5 -112s-49.166 -41.334 -86.499 -50.001v-4c25.333 -4.66699 47.333 -12.667 66 -24s33.167 -28.333 43.5 -51s15.5 -52.667 15.5 -90c0 -29.333 -3.5 -55.833 -10.5 -79.5s-19.833 -43.834 -38.5 -60.501s-45.167 -29.5 -79.5 -38.5
s-79.166 -13.5 -134.499 -13.5z" />
    <glyph glyph-name="four" unicode="4" horiz-adv-x="642" 
d="M409 0v161h-363v66l269 461h95l-268 -453h268l18 245h67v-245h102v-74h-102v-161h-86z" />
    <glyph glyph-name="five" unicode="5" horiz-adv-x="619" 
d="M287 -8c-20.667 0 -43.334 0.832031 -68.001 2.49902s-49 3.66699 -73 6s-45.333 5.16602 -64 8.49902v69l72 -6c24.667 -2 48 -3.5 70 -4.5s41 -1.5 57 -1.5c37.333 0 67.833 2.16699 91.5 6.5s42 11.666 55 21.999s22.167 24.333 27.5 42s8 39.834 8 66.501
c0 29.333 -2.83301 52.833 -8.5 70.5s-15.667 30.834 -30 39.501s-34.166 14.5 -59.499 17.5s-58 4.5 -98 4.5c-13.333 0 -29.833 -0.5 -49.5 -1.5s-40.5 -2.5 -62.5 -4.5s-43.667 -4.33301 -65 -7v366h409v-75h-330v-214c13.333 2 28.833 3.83301 46.5 5.5
s35.667 2.83398 54 3.50098s35.5 1 51.5 1c49.333 0 89 -4 119 -12s52.833 -20.5 68.5 -37.5s26.5 -37.667 32.5 -62s9 -52.5 9 -84.5c0 -40.667 -3.83301 -75.167 -11.5 -103.5s-21 -51 -40 -68s-45.5 -29.5 -79.5 -37.5s-78 -12 -132 -12z" />
    <glyph glyph-name="six" unicode="6" horiz-adv-x="657" 
d="M347 -8c-46 0 -85.1641 2.16602 -117.497 6.49902s-59 13.666 -80 27.999s-37.167 36.5 -48.5 66.5c-6.66699 15.333 -11.667 34.333 -15 57s-5.83301 49.5 -7.5 80.5s-2.5 66.5 -2.5 106.5c0 36.667 0.833008 70 2.5 100s4.33398 56.667 8.00098 80s8.5 44 14.5 62
c11.333 31.333 27.666 55.333 48.999 72s48.666 28.334 81.999 35.001s74 10 122 10c17.333 0 37.5 -0.833008 60.5 -2.5s47 -3.83398 72 -6.50098s48.833 -5.66699 71.5 -9v-69c-20.667 2.66699 -42.5 4.83398 -65.5 6.50098s-45 3.16699 -66 4.5s-39.167 2 -54.5 2
c-46.667 0 -83.834 -3.33301 -111.501 -10s-48.5 -19 -62.5 -37s-23.333 -44.167 -28 -78.5s-7 -79.5 -7 -135.5h6c7.33301 8 17.666 15.833 30.999 23.5s32.833 14 58.5 19s60.167 7.5 103.5 7.5c42 0 78 -2.33301 108 -7s54.333 -13.667 73 -27
s32.167 -32.666 40.5 -57.999s12.5 -59 12.5 -101c0 -44 -3.16699 -80.667 -9.5 -110s-18.5 -52.333 -36.5 -69s-43.333 -28.667 -76 -36s-75 -11 -127 -11zM339.003 65.999c34.667 0 63.3301 1.33301 85.9971 4s40.334 8.5 53.001 17.5s21.334 22.167 26.001 39.5
s7 41.333 7 72c0 32 -2.33301 57.333 -7 76s-13 32.5 -25 41.5s-29.333 14.667 -52 17s-52 3.5 -88 3.5c-39.333 0 -70.666 -2 -93.999 -6s-40.5 -10.5 -51.5 -19.5s-18.333 -20.5 -22 -34.5s-5.5 -31 -5.5 -51c0 -36.667 2.83301 -65.667 8.5 -87s15 -37.333 28 -48
s30.5 -17.5 52.5 -20.5s50 -4.5 84 -4.5z" />
    <glyph glyph-name="seven" unicode="7" horiz-adv-x="563" 
d="M139 0l280 613h-378v75h473v-67l-279 -621h-96z" />
    <glyph glyph-name="eight" unicode="8" horiz-adv-x="683" 
d="M341 -8c-56 0 -101.667 4.16699 -137 12.5s-62.333 20.666 -81 36.999s-31.5 36.333 -38.5 60s-10.5 51.167 -10.5 82.5c0 39.333 4.83301 69.833 14.5 91.5s23.834 37.834 42.501 48.501s41.334 19 68.001 25v4c-40.667 8 -70.667 24.5 -90 49.5s-29 62.5 -29 112.5
c0 30.667 4 57.334 12 80.001s21.667 41.5 41 56.5s46 26.167 80 33.5s76.667 11 128 11s94 -3.66699 128 -11s60.667 -18.5 80 -33.5s33 -33.833 41 -56.5s12 -49.334 12 -80.001c0 -50 -9.66699 -87.5 -29 -112.5s-49.333 -41.5 -90 -49.5v-4
c27.333 -6 50.166 -14.333 68.499 -25s32.333 -26.834 42 -48.501s14.5 -52.167 14.5 -91.5c0 -31.333 -3.5 -58.833 -10.5 -82.5s-20 -43.667 -39 -60s-45.833 -28.666 -80.5 -36.999s-80.334 -12.5 -137.001 -12.5zM341 66c46 0 82 2.83301 108 8.5s44.5 17.167 55.5 34.5
s16.5 43.333 16.5 78c0 27.333 -2.66699 49.166 -8 65.499s-14.5 28.833 -27.5 37.5s-31.167 14.334 -54.5 17.001s-53.333 4 -90 4s-66.667 -1.33301 -90 -4s-41.5 -8.33398 -54.5 -17.001s-22 -21.167 -27 -37.5s-7.5 -38.166 -7.5 -65.499
c0 -34.667 5.33301 -60.667 16 -78s29 -28.833 55 -34.5s62 -8.5 108 -8.5zM341 385c47.333 0 83.332 3.16699 107.999 9.5s41.834 18 51.501 35s14.5 41.5 14.5 73.5s-4.5 56.5 -13.5 73.5s-26 28.833 -51 35.5s-61.5 10 -109.5 10s-84.5 -3.33301 -109.5 -10
s-41.833 -18.5 -50.5 -35.5s-13 -41.5 -13 -73.5s4.66699 -56.5 14 -73.5s26.5 -28.667 51.5 -35s60.833 -9.5 107.5 -9.5z" />
    <glyph glyph-name="nine" unicode="9" horiz-adv-x="657" 
d="M303 -8c-18 0 -38.6689 0.830078 -62.002 2.49707s-47.333 3.83398 -72 6.50098s-48 5.66699 -70 9v69l65 -6c22.667 -2 44.667 -3.66699 66 -5s39.666 -2 54.999 -2c46.667 0 83.834 3.33301 111.501 10s48.5 19 62.5 37s23.167 44.167 27.5 78.5s6.5 79.5 6.5 135.5h-6
c-6.66699 -8 -16.667 -15.833 -30 -23.5s-33 -14 -59 -19s-60.667 -7.5 -104 -7.5c-42 0 -77.833 2.33301 -107.5 7s-53.834 13.667 -72.501 27s-32.167 32.666 -40.5 57.999s-12.5 59 -12.5 101c0 44 3.16699 80.667 9.5 110s18.333 52.333 36 69s42.834 28.667 75.501 36
s75.334 11 128.001 11c48 0 88.667 -2.33301 122 -7s60.333 -14.5 81 -29.5s36 -38.5 46 -70.5c8.66699 -25.333 14.334 -57.5 17.001 -96.5s4 -86.167 4 -141.5c0 -38.667 -0.833008 -73.667 -2.5 -105s-4.66699 -59.166 -9 -83.499s-10.5 -46.166 -18.5 -65.499
c-11.333 -27.333 -27.5 -48.666 -48.5 -63.999s-47.667 -26 -80 -32s-71.833 -9 -118.5 -9zM317.998 350.997c39.333 0 70.666 2 93.999 6s40.5 10.5 51.5 19.5s18.167 20.5 21.5 34.5s5 31 5 51c0 36.667 -2.83301 65.667 -8.5 87s-14.834 37.333 -27.501 48
s-30.167 17.5 -52.5 20.5s-50.166 4.5 -83.499 4.5c-35.333 0 -64.166 -1.33301 -86.499 -4s-39.833 -8.5 -52.5 -17.5s-21.5 -22.167 -26.5 -39.5s-7.5 -41.333 -7.5 -72c0 -32 2.5 -57.333 7.5 -76s13.5 -32.5 25.5 -41.5s29.333 -14.667 52 -17s52 -3.5 88 -3.5z" />
    <glyph glyph-name="colon" unicode=":" horiz-adv-x="223" 
d="M64 412v98h95v-98h-95zM64 0v98h95v-98h-95z" />
    <glyph glyph-name="semicolon" unicode=";" horiz-adv-x="223" 
d="M43 -120l-0.000976562 39.0029c16 0 28.333 1.66699 37 5s14.334 9.66602 17.001 18.999s4 22.666 4 39.999v17h-37v98h95v-82c0 -28 -1.5 -50.833 -4.5 -68.5s-8.5 -31.334 -16.5 -41.001s-19.667 -16.5 -35 -20.5s-35.333 -6 -60 -6zM63.999 412.003v98h95v-98h-95z
" />
    <glyph glyph-name="less" unicode="&#x3c;" horiz-adv-x="541" 
d="M471 45l-400 168v79l400 169v-70l-334 -138l334 -138v-70z" />
    <glyph glyph-name="equal" unicode="=" horiz-adv-x="540" 
d="M70 320v66h400v-66h-400zM70 120v66h400v-66h-400z" />
    <glyph glyph-name="greater" unicode="&#x3e;" horiz-adv-x="541" 
d="M70 45v70l334 138l-334 138v70l400 -169v-79z" />
    <glyph glyph-name="question" unicode="?" horiz-adv-x="503" 
d="M154 197v80.0029c0 25.333 2.5 44.666 7.5 57.999s13 23.666 24 30.999s25.167 14 42.5 20l36 12c24 8.66699 41.667 16.834 53 24.501s19 18.834 23 33.501s6 35.334 6 62.001c0 32 -4.5 55.333 -13.5 70s-24 24 -45 28s-49.833 6 -86.5 6
c-10 0 -21.5 -0.333008 -34.5 -1s-26.833 -1.5 -41.5 -2.5s-29.334 -2.16699 -44.001 -3.5s-29 -3 -43 -5v70c19.333 3.33301 40.333 6.16602 63 8.49902s45.167 4.16602 67.5 5.49902s42.833 2 61.5 2c36 0 66.833 -3 92.5 -9s46.5 -15.833 62.5 -29.5
s27.833 -31.667 35.5 -54s11.5 -49.833 11.5 -82.5c0 -21.333 -1.16699 -40.833 -3.5 -58.5s-6.5 -33.334 -12.5 -47.001s-14.5 -25.334 -25.5 -35.001s-24.833 -17.5 -41.5 -23.5l-36 -12c-19.333 -6.66699 -34.666 -12.5 -45.999 -17.5s-19.5 -10 -24.5 -15
s-8.33301 -11.5 -10 -19.5s-2.5 -19 -2.5 -33v-63h-76zM145 0.00292969v98h95v-98h-95z" />
    <glyph glyph-name="at" unicode="@" horiz-adv-x="930" 
d="M465 -108c-74.667 0 -135.833 2.83594 -183.5 8.50293s-85 16.5 -112 32.5s-46.667 38.833 -59 68.5s-20 68.334 -23 116.001s-4.5 106.5 -4.5 176.5s1.5 128.833 4.5 176.5s10.667 86.5 23 116.5s32 52.833 59 68.5s64.333 26.334 112 32.001s108.834 8.5 183.501 8.5
s135.834 -2.66699 183.501 -8s85 -16 112 -32s46.5 -38.833 58.5 -68.5s19.5 -68.334 22.5 -116.001s4.5 -106.834 4.5 -177.501c0 -53.333 -2.33301 -95 -7 -125s-12 -51.667 -22 -65s-23.167 -21.5 -39.5 -24.5s-36.5 -4.5 -60.5 -4.5h-135l-4 62h-5
c-8.66699 -20.667 -21.167 -36 -37.5 -46s-34 -16.333 -53 -19s-37.833 -4 -56.5 -4c-34 0 -61.667 3.83301 -83 11.5s-37.166 20.667 -47.499 39s-15.5 44.166 -15.5 77.499c0 32.667 3.66699 58.5 11 77.5s20.666 32.5 39.999 40.5s46.333 12 81 12
c9.33301 0 23.5 -0.166992 42.5 -0.5s39.5 -0.833008 61.5 -1.5s41.667 -1.33398 59 -2.00098v27c0 25.333 -1.5 45.166 -4.5 59.499s-9 24.833 -18 31.5s-22.167 11 -39.5 13s-40.333 3 -69 3c-9.33301 0 -20.333 -0.333008 -33 -1l-39 -2
c-13.333 -0.666992 -25.5 -1.5 -36.5 -2.5s-19.833 -2.16699 -26.5 -3.5v59c23.333 4 49 7 77 9s55.667 3 83 3c40 0 71.833 -2.83301 95.5 -8.5s41.667 -15.167 54 -28.5s20.666 -30.666 24.999 -51.999s6.5 -47.666 6.5 -78.999v-233h79c12 0 22.5 1.33301 31.5 4
s16.333 9.16699 22 19.5s9.66699 27.666 12 51.999s3.5 58.166 3.5 101.499c0 64 -1 117.167 -3 159.5s-7.5 76.666 -16.5 102.999s-23 46 -42 59s-45.833 22.167 -80.5 27.5c-22.667 4 -49.834 6.5 -81.501 7.5s-68.5 1.5 -110.5 1.5c-38 0 -71.5 -0.333008 -100.5 -1
s-54.833 -2.66699 -77.5 -6c-37.333 -4.66699 -66.666 -13.334 -87.999 -26.001s-36.833 -31.834 -46.5 -57.501s-15.667 -60.167 -18 -103.5s-3.5 -98 -3.5 -164c0 -70 1.5 -127.333 4.5 -172s10.333 -79.667 22 -105s30.5 -43.666 56.5 -54.999
s62.333 -18.666 109 -21.999c16 -1.33301 36.167 -2.33301 60.5 -3s51.833 -1 82.5 -1c15.333 0 32.5 0.166992 51.5 0.5l56 1c18.333 0.333008 34.333 0.666016 48 0.999023s23.5 0.833008 29.5 1.5v-44c-10.667 -0.666992 -21.834 -1.16699 -33.501 -1.5
s-24.5 -0.666016 -38.5 -0.999023s-30.167 -0.666016 -48.5 -0.999023s-39.833 -0.5 -64.5 -0.5zM451.001 127.003c32 0 57 3.5 75 10.5s30.667 19 38 36s11 41.167 11 72.5v29h-144c-22 0 -38.667 -1.66699 -50 -5s-18.833 -10.333 -22.5 -21s-5.5 -26.667 -5.5 -48
c0 -20 2.33301 -35.5 7 -46.5s14 -18.333 28 -22s35 -5.5 63 -5.5z" />
    <glyph glyph-name="A" unicode="A" horiz-adv-x="684" 
d="M28 0l260 688h108l259 -688h-89l-71 188h-309l-71 -188h-87zM212 263h257l-126 337h-5z" />
    <glyph glyph-name="B" unicode="B" horiz-adv-x="682" 
d="M100 0l0.000976562 688h320c45.333 0 81.333 -7 108 -21s45.667 -33.833 57 -59.5s17 -56.5 17 -92.5c0 -29.333 -4 -55.166 -12 -77.499s-20.5 -40.5 -37.5 -54.5s-39.5 -24 -67.5 -30v-4c34 -6 60 -16.833 78 -32.5s30.333 -35.167 37 -58.5s10 -49 10 -77
c0 -24 -2.83301 -47 -8.5 -69s-15.334 -41.333 -29.001 -58s-33.167 -29.834 -58.5 -39.501s-58 -14.5 -98 -14.5h-316zM186.001 74l209.998 -0.00292969c32.667 0 58.334 3.83301 77.001 11.5s31.834 20.334 39.501 38.001s11.5 40.5 11.5 68.5
c0 28.667 -4.16699 51.834 -12.5 69.501s-21.833 30.334 -40.5 38.001s-43.667 11.5 -75 11.5h-210v-237zM185.999 385.997l206 -0.000976562c28 0 51.167 4 69.5 12s32 20.5 41 37.5s13.5 38.167 13.5 63.5c0 28 -3.5 50.333 -10.5 67s-19.5 28.834 -37.5 36.501
s-43.333 11.5 -76 11.5h-206v-228z" />
    <glyph glyph-name="C" unicode="C" horiz-adv-x="575" 
d="M353 -8c-48 0 -88.3359 2.83496 -121.003 8.50195s-59.334 15.667 -80.001 30s-36.5 34.666 -47.5 60.999s-18.5 60.166 -22.5 101.499s-6 91.666 -6 150.999s2 109.5 6 150.5s11.5 74.667 22.5 101s26.833 46.833 47.5 61.5s47.334 24.834 80.001 30.501s73 8.5 121 8.5
c18.667 0 37.834 -0.666992 57.501 -2s38.5 -3 56.5 -5s33.667 -4.66699 47 -8v-69c-15.333 2 -31.166 3.83301 -47.499 5.5s-32.5 2.83398 -48.5 3.50098s-30.333 1 -43 1c-38.667 0 -71 -1.66699 -97 -5s-46.667 -9.83301 -62 -19.5s-26.833 -24.667 -34.5 -45
s-12.834 -47.333 -15.501 -81s-4 -76.167 -4 -127.5s1.33301 -93.833 4 -127.5s7.83398 -60.667 15.501 -81s19.167 -35.333 34.5 -45s36 -16.167 62 -19.5s58.333 -5 97 -5c22.667 0 47.334 1 74.001 3s49.667 4.33301 69 7v-71
c-14 -2.66699 -30.5 -4.83398 -49.5 -6.50098s-38.5 -3.16699 -58.5 -4.5s-39 -2 -57 -2z" />
    <glyph glyph-name="D" unicode="D" horiz-adv-x="689" 
d="M100 0v688h218c56.667 0 103 -2.66699 139 -8s64.5 -15 85.5 -29s36.5 -34 46.5 -60s16.333 -59 19 -99s4 -89.333 4 -148s-1.33301 -108 -4 -148s-9 -73 -19 -99s-25.5 -46 -46.5 -60s-49.5 -23.667 -85.5 -29s-82.333 -8 -139 -8h-218zM186 74l118.001 0.000976562
c42 0 76.667 1 104 3s49 7.16699 65 15.5s27.667 22 35 41s12.166 45.5 14.499 79.5s3.5 77.667 3.5 131s-1.16699 96.833 -3.5 130.5s-7.33301 60.167 -15 79.5s-19.5 33.166 -35.5 41.499s-37.5 13.5 -64.5 15.5s-61.5 3 -103.5 3h-118v-540z" />
    <glyph glyph-name="E" unicode="E" horiz-adv-x="603" 
d="M100 0v688h447v-74h-361v-229h314v-75h-314v-236h361v-74h-447z" />
    <glyph glyph-name="F" unicode="F" horiz-adv-x="565" 
d="M100 0v688h427v-74h-341v-245h304v-74h-304v-295h-86z" />
    <glyph glyph-name="G" unicode="G" horiz-adv-x="676" 
d="M368 -8c-48.667 0 -89.999 2.83594 -123.999 8.50293s-61.833 15.834 -83.5 30.501s-38.667 35.167 -51 61.5s-21 60 -26 101s-7.5 91.167 -7.5 150.5s2.5 109.5 7.5 150.5s13.833 74.667 26.5 101s30 46.833 52 61.5s49.833 24.834 83.5 30.501s74.5 8.5 122.5 8.5
c22.667 0 47 -1 73 -3s51.5 -4.33301 76.5 -7s47.5 -6 67.5 -10v-70c-21.333 3.33301 -43 6.16602 -65 8.49902s-42.5 4.16602 -61.5 5.49902s-35.167 2 -48.5 2c-41.333 0 -76.5 -1 -105.5 -3s-52.833 -7.33301 -71.5 -16s-33 -22.834 -43 -42.501
s-17.167 -46.834 -21.5 -81.501s-6.5 -79.667 -6.5 -135c0 -48.667 1.33301 -89.5 4 -122.5s8.16699 -59.833 16.5 -80.5s20 -36.667 35 -48s35 -18.833 60 -22.5s55.833 -5.5 92.5 -5.5c14 0 29.333 0.333008 46 1s33 1.66699 49 3s29.333 2.66602 40 3.99902v224h-156v73
h239v-358c-22 -4 -46.167 -7.5 -72.5 -10.5s-52.333 -5.33301 -78 -7s-48.834 -2.5 -69.501 -2.5z" />
    <glyph glyph-name="H" unicode="H" horiz-adv-x="731" 
d="M100 0v688h86v-303h360v303h86v-688h-86v309h-360v-309h-86z" />
    <glyph glyph-name="I" unicode="I" horiz-adv-x="286" 
d="M100 0v688h86v-688h-86z" />
    <glyph glyph-name="J" unicode="J" horiz-adv-x="355" 
d="M33 0l-0.00292969 71.001c36 0.666992 63.667 2.66699 83 6s33.333 10.5 42 21.5s13.834 28.667 15.501 53s2.5 58.166 2.5 101.499v435h86v-408c0 -53.333 -1 -97.5 -3 -132.5s-6.66699 -62.333 -14 -82s-19.166 -34.167 -35.499 -43.5s-38.666 -15.333 -66.999 -18
s-64.833 -4 -109.5 -4z" />
    <glyph glyph-name="K" unicode="K" horiz-adv-x="670" 
d="M100 0v688h86v-301h123l236 301h95l-261 -334l264 -354h-100l-234 312h-123v-312h-86z" />
    <glyph glyph-name="L" unicode="L" horiz-adv-x="538" 
d="M100 0v688h86v-612h321v-76h-407z" />
    <glyph glyph-name="M" unicode="M" horiz-adv-x="906" 
d="M100 0v688h116l235 -548h5l234 548h116v-688h-84v550h-4l-235 -550h-63l-235 550h-4v-550h-81z" />
    <glyph glyph-name="N" unicode="N" horiz-adv-x="731" 
d="M100 0v688h88l357 -527h4v527h83v-688h-83l-362 537h-4v-537h-83z" />
    <glyph glyph-name="O" unicode="O" horiz-adv-x="717" 
d="M358 -8c-53.333 0 -97.5 2.83301 -132.5 8.5s-62.667 15.834 -83 30.501s-35.166 35.167 -44.499 61.5s-15.333 60 -18 101s-4 91.167 -4 150.5s1.33301 109.5 4 150.5s8.66699 74.667 18 101s24.166 46.833 44.499 61.5s48 24.834 83 30.501s79.167 8.5 132.5 8.5
s97.5 -2.83301 132.5 -8.5s62.667 -15.834 83 -30.501s35.166 -35.167 44.499 -61.5s15.333 -60 18 -101s4 -91.167 4 -150.5s-1.33301 -109.5 -4 -150.5s-8.66699 -74.667 -18 -101s-24.166 -46.833 -44.499 -61.5s-48 -24.834 -83 -30.501s-79.167 -8.5 -132.5 -8.5z
M358 66c36.667 0 67 1.16699 91 3.5s43 7.83301 57 16.5s24.667 22.834 32 42.501s11.833 46.834 13.5 81.501s2.5 79.334 2.5 134.001s-0.833008 99.334 -2.5 134.001s-6.16699 61.834 -13.5 81.501s-18 33.834 -32 42.501s-33 14.167 -57 16.5s-54.333 3.5 -91 3.5
s-66.834 -1.16699 -90.501 -3.5s-42.667 -7.83301 -57 -16.5s-25 -22.834 -32 -42.501s-11.5 -46.834 -13.5 -81.501s-3 -79.334 -3 -134.001s1 -99.334 3 -134.001s6.5 -61.834 13.5 -81.501s17.667 -33.834 32 -42.501s33.333 -14.167 57 -16.5s53.834 -3.5 90.501 -3.5z
" />
    <glyph glyph-name="P" unicode="P" horiz-adv-x="652" 
d="M100 0v687.998h301c44 0 79.167 -5.5 105.5 -16.5s46 -26.167 59 -45.5s21.833 -42.166 26.5 -68.499s7 -55.166 7 -86.499c0 -30 -2.16699 -58.167 -6.5 -84.5s-13.166 -49.5 -26.499 -69.5s-33.333 -35.667 -60 -47s-62.334 -17 -107.001 -17h-213v-253h-86z
M186 327.998h185c32.667 0 58.5 2.66699 77.5 8s33.167 13.833 42.5 25.5s15.333 26.5 18 44.5s4 39.667 4 65s-1.16699 47 -3.5 65s-8 32.667 -17 44s-23 19.833 -42 25.5s-44.833 8.5 -77.5 8.5h-187v-286z" />
    <glyph glyph-name="Q" unicode="Q" horiz-adv-x="717" 
d="M560 -115l-240 333h93l245 -331v-2h-98zM358 -8c-53.333 0 -97.5 2.83301 -132.5 8.5s-62.667 15.834 -83 30.501s-35.166 35.167 -44.499 61.5s-15.333 60 -18 101s-4 91.167 -4 150.5s1.33301 109.5 4 150.5s8.66699 74.667 18 101s24.166 46.833 44.499 61.5
s48 24.834 83 30.501s79.167 8.5 132.5 8.5s97.5 -2.83301 132.5 -8.5s62.667 -15.834 83 -30.501s35.166 -35.167 44.499 -61.5s15.333 -60 18 -101s4 -91.167 4 -150.5s-1.33301 -109.5 -4 -150.5s-8.66699 -74.667 -18 -101s-24.166 -46.833 -44.499 -61.5
s-48 -24.834 -83 -30.501s-79.167 -8.5 -132.5 -8.5zM358 66c36.667 0 67 1.16699 91 3.5s43 7.83301 57 16.5s24.667 22.834 32 42.501s11.833 46.834 13.5 81.501s2.5 79.334 2.5 134.001s-0.833008 99.334 -2.5 134.001s-6.16699 61.834 -13.5 81.501
s-18 33.834 -32 42.501s-33 14.167 -57 16.5s-54.333 3.5 -91 3.5s-66.834 -1.16699 -90.501 -3.5s-42.667 -7.83301 -57 -16.5s-25 -22.834 -32 -42.501s-11.5 -46.834 -13.5 -81.501s-3 -79.334 -3 -134.001s1 -99.334 3 -134.001s6.5 -61.834 13.5 -81.501
s17.667 -33.834 32 -42.501s33.333 -14.167 57 -16.5s53.834 -3.5 90.501 -3.5z" />
    <glyph glyph-name="R" unicode="R" horiz-adv-x="681" 
d="M100 0l0.000976562 687.999h316c43.333 0 77.833 -5.16699 103.5 -15.5s44.667 -25 57 -44s20.5 -41.167 24.5 -66.5s6 -52.333 6 -81c0 -24.667 -2.16699 -50.167 -6.5 -76.5s-14 -50.166 -29 -71.499s-38.5 -37 -70.5 -47l116 -286h-92l-114 289l24 -12
c-4.66699 -1.33301 -10.334 -2.33301 -17.001 -3s-15.667 -1 -27 -1h-205v-273h-86zM186.001 347.999l192.998 0.00195312c33.333 0 59.5 2.66699 78.5 8s33 13.666 42 24.999s14.833 25.166 17.5 41.499s4 35.833 4 58.5s-1.16699 42.167 -3.5 58.5s-7.66602 30 -15.999 41
s-21.666 19.333 -39.999 25s-43.5 8.5 -75.5 8.5h-200v-266z" />
    <glyph glyph-name="S" unicode="S" horiz-adv-x="628" 
d="M329 -8c-24.667 0 -51.6611 0.668945 -80.9941 2.00195s-57.833 3 -85.5 5s-52.834 4.33301 -75.501 7v73l75.5 -6c26.333 -2 52 -3.66699 77 -5s46.167 -2 63.5 -2c35.333 0 63.666 1.5 84.999 4.5s39.333 8.83301 54 17.5c10 6 17.333 14 22 24s7.5 21.667 8.5 35
s1.5 27.666 1.5 42.999c0 22.667 -0.666992 41 -2 55s-4.83301 24.833 -10.5 32.5s-14.834 13.334 -27.501 17.001s-29.667 6.5 -51 8.5l-171 19c-32 4 -57.667 10.833 -77 20.5s-33.833 22 -43.5 37s-16.167 33 -19.5 54s-5 44.5 -5 70.5c0 42 5.5 75.667 16.5 101
s27.167 44.666 48.5 57.999s47.166 22.166 77.499 26.499s65.166 6.5 104.499 6.5c25.333 0 51.333 -0.666992 78 -2s51.834 -3.16602 75.501 -5.49902s43.167 -5.16602 58.5 -8.49902v-71c-17.333 2.66699 -37.333 5 -60 7s-45.834 3.5 -69.501 4.5s-46.167 1.5 -67.5 1.5
c-36.667 0 -66.334 -1.66699 -89.001 -5s-40.667 -9.33301 -54 -18c-14.667 -8.66699 -23.834 -20.834 -27.501 -36.501s-5.5 -34.5 -5.5 -56.5c0 -26 1.83301 -46.167 5.5 -60.5s11.667 -24.333 24 -30s30.833 -9.83398 55.5 -12.501l167 -19
c24 -2 45.167 -5.16699 63.5 -9.5s34.166 -11.5 47.499 -21.5s23.333 -24.333 30 -43c4 -9.33301 7 -19.666 9 -30.999s3.5 -23.833 4.5 -37.5s1.5 -28.834 1.5 -45.501c0 -38 -3.66699 -69.5 -11 -94.5s-17.666 -44.833 -30.999 -59.5s-29.666 -25.667 -48.999 -33
s-40.833 -12 -64.5 -14s-49.167 -3 -76.5 -3z" />
    <glyph glyph-name="T" unicode="T" horiz-adv-x="581" 
d="M247 0v612h-217v76h521v-76h-218v-612h-86z" />
    <glyph glyph-name="U" unicode="U" horiz-adv-x="708" 
d="M355 -8c-47.333 0 -86.832 2.83301 -118.499 8.5s-57.167 15.167 -76.5 28.5s-34 31.833 -44 55.5s-16.667 53.167 -20 88.5s-5 78 -5 128v387h86v-421c0 -42 1.66699 -76 5 -102s10.5 -46.333 21.5 -61s28.5 -24.667 52.5 -30s57 -8 99 -8s74.833 2.66699 98.5 8
s41 15.333 52 30s17.833 35 20.5 61s4 60 4 102v421h86v-387c0 -50 -1.5 -92.667 -4.5 -128s-9.33301 -64.833 -19 -88.5s-24.167 -42.167 -43.5 -55.5s-44.833 -22.833 -76.5 -28.5s-70.834 -8.5 -117.501 -8.5z" />
    <glyph glyph-name="V" unicode="V" horiz-adv-x="663" 
d="M277 0l-248 688h90l211 -588h5l211 588h87l-248 -688h-108z" />
    <glyph glyph-name="W" unicode="W" horiz-adv-x="987" 
d="M223 0l-187 688h88l153 -576h6l168 576h90l169 -576h6l149 576h86l-187 -688h-102l-166 557h-4l-166 -557h-103z" />
    <glyph glyph-name="X" unicode="X" horiz-adv-x="675" 
d="M29 0l256 345l-252 343h102l200 -270h8l201 270h98l-252 -340l255 -348h-101l-204 276h-8l-205 -276h-98z" />
    <glyph glyph-name="Y" unicode="Y" horiz-adv-x="609" 
d="M261 0v263l-249 425h92l199 -339h7l197 339h90l-250 -425v-263h-86z" />
    <glyph glyph-name="Z" unicode="Z" horiz-adv-x="606" 
d="M53 0v71l388 543h-377v74h486v-69l-389 -545h395v-74h-503z" />
    <glyph glyph-name="bracketleft" unicode="[" horiz-adv-x="336" 
d="M100 -150v893h195v-60l-119 -3v-767l119 -3v-60h-195z" />
    <glyph glyph-name="backslash" unicode="\" horiz-adv-x="359" 
d="M287 -55l-291 798h76l290 -798h-75z" />
    <glyph glyph-name="bracketright" unicode="]" horiz-adv-x="336" 
d="M42 -150v60l119 3v767l-119 3v60h194v-893h-194z" />
    <glyph glyph-name="asciicircum" unicode="^" horiz-adv-x="456" 
d="M50 444l140 305h76l140 -305h-66l-112 249l-111 -249h-67z" />
    <glyph glyph-name="underscore" unicode="_" horiz-adv-x="358" 
d="M0 -170v66h358v-66h-358z" />
    <glyph glyph-name="grave" unicode="`" horiz-adv-x="189" 
d="M129 595l-129 135v5h88l101 -135v-5h-60z" />
    <glyph glyph-name="a" unicode="a" horiz-adv-x="569" 
d="M223 -8c-37.333 0 -68.5029 4.33203 -93.5029 12.999s-43.667 23.667 -56 45s-18.5 51.333 -18.5 90s4.5 69.167 13.5 91.5s24.833 38.166 47.5 47.499s54.334 14 95.001 14c6.66699 0 17.167 -0.166992 31.5 -0.5s30.833 -0.666016 49.5 -0.999023l56.5 -1
c19 -0.333008 36.5 -0.833008 52.5 -1.5v32c0 30 -1.83301 53.5 -5.5 70.5s-11.167 29.667 -22.5 38s-27.166 13.666 -47.499 15.999s-47.166 3.5 -80.499 3.5c-14.667 0 -32 -0.5 -52 -1.5s-39.5 -2.33301 -58.5 -4s-34.167 -3.5 -45.5 -5.5v66
c25.333 4.66699 53.833 8.16699 85.5 10.5s64.5 3.5 98.5 3.5c36 0 66.5 -2.16699 91.5 -6.5s45.333 -11.166 61 -20.499s27.5 -21.666 35.5 -36.999s13.5 -34 16.5 -56s4.5 -47.667 4.5 -77v-321h-73l-3 72h-6c-10.667 -23.333 -25.834 -40.833 -45.501 -52.5
s-41.167 -19.167 -64.5 -22.5s-45.666 -5 -66.999 -5zM252.997 58.999c19.333 0 37.332 1.16797 53.999 3.50098s31.334 6.83301 44.001 13.5s22.667 16.667 30 30c7.33301 14 12.5 29.167 15.5 45.5s4.5 35.5 4.5 57.5v26h-170c-26 0 -46 -2 -60 -6
s-23.5 -12.333 -28.5 -25s-7.5 -31.667 -7.5 -57c0 -24.667 3 -43.334 9 -56.001s17.5 -21.167 34.5 -25.5s41.833 -6.5 74.5 -6.5z" />
    <glyph glyph-name="b" unicode="b" horiz-adv-x="590" 
d="M337 -8c-23.333 0 -45.999 1.8291 -67.999 5.49609s-41.667 11.334 -59 23.001s-31 29.167 -41 52.5h-6l-3 -73h-74v743h82v-298h5c9.33301 18.667 21.833 33.334 37.5 44.001s34.167 18.167 55.5 22.5s45.666 6.5 72.999 6.5c36.667 0 67 -4.16699 91 -12.5
s43 -22.166 57 -41.499s23.833 -46 29.5 -80s8.5 -77 8.5 -129s-3 -95 -9 -129s-16 -60.667 -30 -80s-33.167 -33.166 -57.5 -41.499s-54.833 -12.5 -91.5 -12.5zM305.001 63.9961c30.667 0 55.167 2.16504 73.5 6.49805s32.166 12.833 41.499 25.5s15.666 31.667 18.999 57
s5 59.333 5 102s-1.66699 76.5 -5 101.5s-9.66602 44 -18.999 57s-23.166 21.5 -41.499 25.5s-42.833 6 -73.5 6c-32.667 0 -58.667 -4.16699 -78 -12.5s-33 -21.5 -41 -39.5c-8 -17.333 -13 -37.166 -15 -59.499s-3 -48.5 -3 -78.5c0 -29.333 0.833008 -55.166 2.5 -77.499
s6.5 -42.166 14.5 -59.499c8.66699 -18.667 22.667 -32.334 42 -41.001s45.333 -13 78 -13z" />
    <glyph glyph-name="c" unicode="c" horiz-adv-x="460" 
d="M272 -8c-38.667 0 -70.502 3.33301 -95.502 10s-45 16.667 -60 30s-26.167 30.333 -33.5 51s-12.166 45.334 -14.499 74.001s-3.5 61.334 -3.5 98.001c0 38 1.5 71.333 4.5 100s8.66699 53.5 17 74.5s20 37.833 35 50.5s34.5 22.167 58.5 28.5s53.667 9.5 89 9.5
c23.333 0 47.833 -1.16699 73.5 -3.5s46.834 -5.5 63.501 -9.5v-66c-15.333 2.66699 -34.166 5 -56.499 7s-42.5 3 -60.5 3c-31.333 0 -56.5 -2.66699 -75.5 -8s-33.333 -15 -43 -29s-16.167 -33.667 -19.5 -59s-5 -58 -5 -98c0 -40.667 1.66699 -73.834 5 -99.501
s10.166 -45.334 20.499 -59.001s25 -23 44 -28s44.167 -7.5 75.5 -7.5c18.667 0 39 1 61 3s41.667 4.33301 59 7v-66c-16.667 -3.33301 -38 -6.33301 -64 -9s-51 -4 -75 -4z" />
    <glyph glyph-name="d" unicode="d" horiz-adv-x="590" 
d="M253 -8c-36.667 0 -67.166 4.00391 -91.499 12.0039s-43.5 21.833 -57.5 41.5s-24 46.5 -30 80.5s-9 76.667 -9 128c0 52 2.83301 95.167 8.5 129.5s15.5 61.166 29.5 80.499s33 33.166 57 41.499s54.333 12.5 91 12.5c27.333 0 51.666 -2.16699 72.999 -6.5
s39.833 -11.833 55.5 -22.5s28.167 -25.334 37.5 -44.001h5v298h82v-743h-73l-4 73h-6c-9.33301 -23.333 -22.833 -40.833 -40.5 -52.5s-37.5 -19.334 -59.5 -23.001s-44.667 -5.5 -68 -5.5zM285.001 64.0039c34 0 61.001 4.66699 81.001 14s34 24 42 44
c6.66699 18.667 10.667 39 12 61s2 48 2 78c0 24.667 -0.666992 47.167 -2 67.5s-5 38.166 -11 53.499c-8.66699 22.667 -23 38.834 -43 48.501s-47.667 14.5 -83 14.5c-30 0 -54 -2 -72 -6s-31.667 -12.5 -41 -25.5s-15.666 -32 -18.999 -57s-5 -58.833 -5 -101.5
s1.66699 -76.667 5 -102s9.66602 -44.333 18.999 -57s23.166 -21.167 41.499 -25.5s42.833 -6.5 73.5 -6.5z" />
    <glyph glyph-name="e" unicode="e" horiz-adv-x="559" 
d="M294 -8c-41.333 0 -75.8281 2.66992 -103.495 8.00293s-49.834 14.166 -66.501 26.499s-29.334 28.666 -38.001 48.999s-14.334 45.166 -17.001 74.499s-4 64 -4 104c0 47.333 2 87.833 6 121.5s13.167 61 27.5 82s36.833 36.333 67.5 46s72 14.5 124 14.5
c39.333 0 71.5 -3 96.5 -9s44.833 -15.333 59.5 -28s25.5 -29.5 32.5 -50.5s11.5 -46 13.5 -75s3 -62.5 3 -100.5v-27h-349c0 -34.667 1.66699 -63 5 -85s10.166 -39 20.499 -51s26.666 -20.333 48.999 -25s52.833 -7 91.5 -7c16 0 33.667 0.5 53 1.5s38.666 2.5 57.999 4.5
s36.666 4 51.999 6v-66c-14 -2.66699 -31.167 -5 -51.5 -7s-41.666 -3.66699 -63.999 -5s-44.166 -2 -65.499 -2zM416.005 269.003l0.000976562 26.999c0 34.667 -2 62.167 -6 82.5s-10.833 35.666 -20.5 45.999s-22.834 17.166 -39.501 20.499s-37.334 5 -62.001 5
c-32 0 -57.333 -2.16699 -76 -6.5s-32.667 -12.166 -42 -23.499s-15.666 -27.666 -18.999 -48.999s-5 -49.666 -5 -84.999h289z" />
    <glyph glyph-name="f" unicode="f" horiz-adv-x="372" 
d="M130 0l-0.00292969 441.001h-104v69h104v81c0 28.667 2.33301 52.167 7 70.5s12.167 33 22.5 44s23.833 19.167 40.5 24.5s36.834 8.66602 60.501 9.99902s51.167 2 82.5 2v-62c-27.333 0 -49.666 -1 -66.999 -3s-30.666 -5.5 -39.999 -10.5s-15.833 -12.5 -19.5 -22.5
s-5.5 -23 -5.5 -39v-95h132v-69h-132v-441h-81z" />
    <glyph glyph-name="g" unicode="g" horiz-adv-x="590" 
d="M273 -206c-21.333 0 -43.1689 0.503906 -65.502 1.50391s-43.5 2.16699 -63.5 3.5s-37 2.66602 -51 3.99902v66c16 -1.33301 33.667 -2.5 53 -3.5s38.5 -1.66699 57.5 -2s36.167 -0.5 51.5 -0.5c38.667 0 69 2.66699 91 8s38.667 14.666 50 27.999s18.5 32 21.5 56
s4.5 54.667 4.5 92v21h-5c-8.66699 -18.667 -20.667 -33.334 -36 -44.001s-33.666 -18.167 -54.999 -22.5s-45.666 -6.5 -72.999 -6.5c-37.333 0 -68.166 4 -92.499 12s-43.5 21.5 -57.5 40.5s-23.833 45.5 -29.5 79.5s-8.5 76.667 -8.5 128c0 52 3 95 9 129
s16 60.667 30 80s33.167 33.166 57.5 41.499s55.166 12.5 92.499 12.5c22.667 0 45 -1.83301 67 -5.5s41.833 -11.5 59.5 -23.5s31.167 -29.333 40.5 -52h6l4 73h73v-444c0 -49.333 -2.5 -91.333 -7.5 -126s-15.167 -62.667 -30.5 -84s-38.333 -37 -69 -47s-72 -15 -124 -15
zM284.997 66.0039c33.333 0 59.666 4.50098 78.999 13.501s33.333 23.167 42 42.5c7.33301 16 11.833 35 13.5 57s2.5 47.667 2.5 77c0 28 -0.666992 52.833 -2 74.5s-5.66602 40.167 -12.999 55.5c-8.66699 21.333 -23 36.666 -43 45.999s-46.333 14 -79 14
c-30.667 0 -55.167 -2.16699 -73.5 -6.5s-32.166 -12.833 -41.499 -25.5s-15.666 -31.667 -18.999 -57s-5 -59 -5 -101s1.66699 -75.667 5 -101s9.66602 -44.333 18.999 -57s23.166 -21.167 41.499 -25.5s42.833 -6.5 73.5 -6.5z" />
    <glyph glyph-name="h" unicode="h" horiz-adv-x="599" 
d="M86 0l0.00195312 743.003h82v-300h5c6.66699 14 16.334 26.667 29.001 38s30 20.166 52 26.499s50 9.5 84 9.5c37.333 0 67.5 -3.83301 90.5 -11.5s40.667 -19.5 53 -35.5s20.5 -36.5 24.5 -61.5s6 -54.833 6 -89.5v-319h-81v291c0 34.667 -1.5 62.167 -4.5 82.5
s-8.83301 35.666 -17.5 45.999s-21.334 17.166 -38.001 20.499s-38.667 5 -66 5c-32.667 0 -58.334 -4.16699 -77.001 -12.5s-32.334 -20.333 -41.001 -36s-14 -34.667 -16 -57s-3 -47.833 -3 -76.5v-263h-82z" />
    <glyph glyph-name="i" unicode="i" horiz-adv-x="254" 
d="M84 654v89h87v-89h-87zM86 0v510h82v-510h-82z" />
    <glyph glyph-name="j" unicode="j" horiz-adv-x="254" 
d="M84 654v89h87v-89h-87zM-9 -200l-0.000976562 64.002c29.333 0 50.833 1.66699 64.5 5s22.167 9 25.5 17s5 19 5 33v591h82v-573c0 -31.333 -3 -56.333 -9 -75s-16 -32.334 -30 -41.001s-32.167 -14.334 -54.5 -17.001s-50.166 -4 -83.499 -4z" />
    <glyph glyph-name="k" unicode="k" horiz-adv-x="537" 
d="M86 0v743h82v-450h64l180 217h92l-207 -247l210 -263h-95l-180 223h-64v-223h-82z" />
    <glyph glyph-name="l" unicode="l" horiz-adv-x="254" 
d="M86 0v743h82v-743h-82z" />
    <glyph glyph-name="m" unicode="m" horiz-adv-x="882" 
d="M86 0l0.00585938 510.004h74l3 -73h6c6 16 15.167 30 27.5 42s28.666 21.5 48.999 28.5s46.5 10.5 78.5 10.5c45.333 0 79 -6.5 101 -19.5s37.333 -33.5 46 -61.5h6c6.66699 16 16.334 30 29.001 42s29.667 21.5 51 28.5s47.666 10.5 78.999 10.5c46 0 80.333 -7 103 -21
s37.667 -35.667 45 -65s11 -67 11 -113v-319h-81v291c0 34.667 -1.33301 62.167 -4 82.5s-7.66699 35.666 -15 45.999s-18.333 17.166 -33 20.499s-34.334 5 -59.001 5c-28.667 0 -51.334 -3.83301 -68.001 -11.5s-28.834 -19.167 -36.501 -34.5s-12.5 -34.333 -14.5 -57
s-3 -49 -3 -79v-263h-81v291c0 34.667 -1.33301 62.167 -4 82.5s-7.66699 35.666 -15 45.999s-18.333 17.166 -33 20.499s-34.334 5 -59.001 5c-28.667 0 -51.334 -4.16699 -68.001 -12.5s-28.667 -20.166 -36 -35.499s-12 -34.333 -14 -57s-3 -48.334 -3 -77.001v-263h-82z
" />
    <glyph glyph-name="n" unicode="n" horiz-adv-x="599" 
d="M86 0l0.00292969 510.002h74l3 -73h6c7.33301 16 17.5 30 30.5 42s30.667 21.5 53 28.5s50.833 10.5 85.5 10.5c38 0 68.333 -4 91 -12s40.167 -20 52.5 -36s20.5 -36.5 24.5 -61.5s6 -54.833 6 -89.5v-319h-81v291c0 34.667 -1.5 62.167 -4.5 82.5
s-8.83301 35.666 -17.5 45.999s-21.334 17.166 -38.001 20.499s-38.667 5 -66 5c-32.667 0 -58.334 -4.16699 -77.001 -12.5s-32.334 -20.333 -41.001 -36s-14 -34.667 -16 -57s-3 -47.833 -3 -76.5v-263h-82z" />
    <glyph glyph-name="o" unicode="o" horiz-adv-x="577" 
d="M288 -8c-42 0 -76.833 2.5 -104.5 7.5s-49.5 13.167 -65.5 24.5s-27.833 27 -35.5 47s-12.5 45.167 -14.5 75.5s-3 66.5 -3 108.5s1 78.167 3 108.5s6.83301 55.5 14.5 75.5s19.5 35.667 35.5 47s37.833 19.5 65.5 24.5s62.5 7.5 104.5 7.5
c42.667 0 77.667 -2.5 105 -7.5s49.166 -13.167 65.499 -24.5s28.333 -27 36 -47s12.5 -45.167 14.5 -75.5s3 -66.5 3 -108.5s-1 -78.167 -3 -108.5s-6.83301 -55.5 -14.5 -75.5s-19.667 -35.667 -36 -47s-38.166 -19.5 -65.499 -24.5s-62.333 -7.5 -105 -7.5zM288 61
c36 0 63.667 2.33301 83 7s33.166 13.667 41.499 27s13.333 32.833 15 58.5s2.5 59.5 2.5 101.5s-0.833008 75.833 -2.5 101.5s-6.66699 45.167 -15 58.5s-22.166 22.333 -41.499 27s-47 7 -83 7c-35.333 0 -62.833 -2.33301 -82.5 -7s-33.5 -13.667 -41.5 -27
s-13 -32.833 -15 -58.5s-3 -59.5 -3 -101.5s1 -75.833 3 -101.5s7 -45.167 15 -58.5s21.833 -22.333 41.5 -27s47.167 -7 82.5 -7z" />
    <glyph glyph-name="p" unicode="p" horiz-adv-x="590" 
d="M86 -199l-0.000976562 708.997h74l3 -73h6c10 22.667 23.667 40 41 52s37 19.833 59 23.5s44.667 5.5 68 5.5c36.667 0 67.167 -4 91.5 -12s43.5 -21.833 57.5 -41.5s24 -46.5 30 -80.5s9 -76.667 9 -128c0 -52 -2.83301 -95.167 -8.5 -129.5
s-15.5 -61.166 -29.5 -80.499s-33 -33.166 -57 -41.499s-54.333 -12.5 -91 -12.5c-27.333 0 -51.666 2.16699 -72.999 6.5s-39.833 11.833 -55.5 22.5s-28.167 25.334 -37.5 44.001h-5v-264h-82zM304.999 64.9971c30.667 0 55.1689 2.00098 73.502 6.00098
s32.166 12.5 41.499 25.5s15.666 32 18.999 57s5 58.833 5 101.5s-1.66699 76.667 -5 102s-9.66602 44.333 -18.999 57s-23.166 21.167 -41.499 25.5s-42.833 6.5 -73.5 6.5c-34 0 -60.833 -4.83301 -80.5 -14.5s-33.834 -24.834 -42.501 -45.501
c-6.66699 -16 -10.667 -35 -12 -57s-2 -46.667 -2 -74c0 -28 0.666992 -52.5 2 -73.5s4.66602 -38.5 9.99902 -52.5c9.33301 -23.333 24 -39.833 44 -49.5s47 -14.5 81 -14.5z" />
    <glyph glyph-name="q" unicode="q" horiz-adv-x="591" 
d="M422 -199l-0.000976562 264.003h-5c-9.33301 -18.667 -21.833 -33.334 -37.5 -44.001s-34.167 -18.167 -55.5 -22.5s-45.666 -6.5 -72.999 -6.5c-36.667 0 -67 4 -91 12s-43 21.833 -57 41.5s-23.833 46.5 -29.5 80.5s-8.5 76.667 -8.5 128c0 52 3 95.167 9 129.5
s16 61.166 30 80.499s33.167 33.166 57.5 41.499s54.833 12.5 91.5 12.5c23.333 0 46 -1.83301 68 -5.5s41.833 -11.5 59.5 -23.5s31.167 -29.333 40.5 -52h6l4 73h73v-709h-82zM284.999 65.0029c34.667 0 62.001 4.99902 82.001 14.999s34 26 42 48
c6 15.333 9.66699 33.5 11 54.5s2 45.167 2 72.5c0 28.667 -0.833008 54.334 -2.5 77.001s-6.5 43 -14.5 61s-21.833 31.333 -41.5 40s-45.834 13 -78.501 13c-30.667 0 -55.167 -2.16699 -73.5 -6.5s-32.166 -12.833 -41.499 -25.5s-15.666 -31.667 -18.999 -57
s-5 -59.333 -5 -102s1.66699 -76.5 5 -101.5s9.66602 -44 18.999 -57s23.166 -21.5 41.499 -25.5s42.833 -6 73.5 -6z" />
    <glyph glyph-name="r" unicode="r" horiz-adv-x="367" 
d="M86 0v510.002h73l4 -98h6c8.66699 28.667 21 50.667 37 66s35.333 25.833 58 31.5s47.667 8.5 75 8.5v-80c-46 0 -81.333 -7.33301 -106 -22s-41.667 -37.334 -51 -68.001s-14 -69.334 -14 -116.001v-232h-82z" />
    <glyph glyph-name="s" unicode="s" horiz-adv-x="499" 
d="M256 -8c-19.333 0 -40.002 0.672852 -62.002 2.00586s-43.667 2.83301 -65 4.5s-40.666 3.83398 -57.999 6.50098v66l46.5 -4c15 -1.33301 29.833 -2.5 44.5 -3.5s29.334 -1.66699 44.001 -2s29.667 -0.5 45 -0.5c34.667 0 59.834 2.5 75.501 7.5s26 13.5 31 25.5
s7.5 27.667 7.5 47c0 22 -1.83301 38 -5.5 48s-10 16.5 -19 19.5s-22.5 5.5 -40.5 7.5l-132 15c-31.333 3.33301 -55 10.166 -71 20.499s-27 25.166 -33 44.499s-9 43.666 -9 72.999c0 33.333 4.66699 60 14 80s22.666 35 39.999 45s38.333 16.5 63 19.5
s52.334 4.5 83.001 4.5c17.333 0 35.666 -0.666992 54.999 -2s38.333 -3 57 -5s34.667 -4.33301 48 -7v-66c-17.333 2.66699 -34.833 4.83398 -52.5 6.50098s-35.667 2.83398 -54 3.50098s-36.833 1 -55.5 1c-25.333 0 -47 -1.33301 -65 -4s-31.5 -9.33398 -40.5 -20.001
s-13.5 -28.334 -13.5 -53.001c0 -19.333 1.5 -33.833 4.5 -43.5s9.16699 -16.334 18.5 -20.001s22.333 -6.5 39 -8.5l138 -15c27.333 -2.66699 48.833 -7.83398 64.5 -15.501s27 -21.167 34 -40.5s10.5 -48.333 10.5 -87c0 -32 -3.83301 -57.833 -11.5 -77.5
s-19.5 -34.834 -35.5 -45.501s-35.667 -17.834 -59 -21.501s-50.333 -5.5 -81 -5.5z" />
    <glyph glyph-name="t" unicode="t" horiz-adv-x="358" 
d="M129 0v441h-103v69h103v148h81v-148h122v-69h-122v-441h-81z" />
    <glyph glyph-name="u" unicode="u" horiz-adv-x="599" 
d="M260 -8c-37.333 0 -67.499 3.99902 -90.499 11.999s-40.5 20 -52.5 36s-20.167 36.5 -24.5 61.5s-6.5 54.833 -6.5 89.5v319h82v-291c0 -34 1.33301 -61.333 4 -82s8.5 -36.167 17.5 -46.5s21.833 -17.166 38.5 -20.499s38.334 -5 65.001 -5
c33.333 0 59.333 4.16699 78 12.5s32.167 20.333 40.5 36s13.666 34.667 15.999 57s3.5 47.833 3.5 76.5v263h81v-510h-73l-3 73h-7c-6.66699 -16 -16.5 -30 -29.5 -42s-30.833 -21.5 -53.5 -28.5s-51.334 -10.5 -86.001 -10.5z" />
    <glyph glyph-name="v" unicode="v" horiz-adv-x="530" 
d="M214 0l-187 510h85l150 -425h8l149 425h84l-187 -510h-102z" />
    <glyph glyph-name="w" unicode="w" horiz-adv-x="817" 
d="M194 0l-163 510h85l124 -411h7l124 411h77l124 -411h8l123 411h82l-163 -510h-94l-117 376h-7l-116 -376h-94z" />
    <glyph glyph-name="x" unicode="x" horiz-adv-x="546" 
d="M30 0l193 259l-186 251h93l141 -190h6l142 190h89l-185 -250l193 -260h-94l-148 198h-6l-148 -198h-90z" />
    <glyph glyph-name="y" unicode="y" horiz-adv-x="599" 
d="M282 -206c-19.333 0 -39.499 0.49707 -60.499 1.49707s-41 2 -60 3s-35.833 2.5 -50.5 4.5v65c22 -0.666992 42.167 -1.5 60.5 -2.5s35.333 -1.66699 51 -2s29.834 -0.5 42.501 -0.5c38.667 0 69.167 3 91.5 9s38.833 15.833 49.5 29.5s17.5 31.834 20.5 54.501
s4.5 50.334 4.5 83.001v30h-6c-5.33301 -13.333 -14.333 -25.666 -27 -36.999s-30 -20.333 -52 -27s-50.667 -10 -86 -10c-37.333 0 -67.5 3.83301 -90.5 11.5s-40.5 19.667 -52.5 36s-20.167 36.833 -24.5 61.5s-6.5 54 -6.5 88v318h82v-289
c0 -34.667 1.33301 -62.334 4 -83.001s8.5 -36.167 17.5 -46.5s21.833 -17.166 38.5 -20.499s38.334 -5 65.001 -5c33.333 0 59.333 4.16699 78 12.5s32.167 20.5 40.5 36.5s13.666 35.167 15.999 57.5s3.5 47.5 3.5 75.5v262h81v-447c0 -48.667 -2.5 -90.167 -7.5 -124.5
s-15.333 -62 -31 -83s-38.834 -36.5 -69.501 -46.5s-71.334 -15 -122.001 -15z" />
    <glyph glyph-name="z" unicode="z" horiz-adv-x="508" 
d="M52 0v63l297 378h-285v69h390v-63l-296 -378h298v-69h-404z" />
    <glyph glyph-name="braceleft" unicode="{" horiz-adv-x="324" 
d="M241 -150c-13.333 6.66699 -26.833 16.1719 -40.5 28.5049s-26 26.333 -37 42s-19.667 33 -26 52s-9.5 39.167 -9.5 60.5v116c0 18.667 -2.66699 37.667 -8 57s-15.166 35.5 -29.499 48.5s-35.5 19.5 -63.5 19.5v45c28 0 49.167 6.5 63.5 19.5s24.166 29.167 29.499 48.5
s8 38.333 8 57v116c0 20.667 3.16699 40.5 9.5 59.5s15 36.5 26 52.5s23.333 30.167 37 42.5s27.167 21.833 40.5 28.5h63c-12 -8.66699 -24 -19.334 -36 -32.001s-22.833 -26.834 -32.5 -42.501s-17.334 -32 -23.001 -49s-8.5 -34.167 -8.5 -51.5v-122
c0 -38 -7.33301 -69.833 -22 -95.5s-40 -42.5 -76 -50.5v-7c36 -8 61.333 -24.833 76 -50.5s22 -57.834 22 -96.501v-121c0 -17.333 2.83301 -34.5 8.5 -51.5s13.334 -33.333 23.001 -49s20.5 -29.834 32.5 -42.501s24 -23.334 36 -32.001h-63z" />
    <glyph glyph-name="bar" unicode="|" horiz-adv-x="277" 
d="M101 -161v904h75v-904h-75z" />
    <glyph glyph-name="braceright" unicode="}" horiz-adv-x="324" 
d="M19 -150c12.667 8.66699 25 19.3291 37 31.9961s22.667 26.834 32 42.501s17 32 23 49s9 34.167 9 51.5v121c0 38.667 7.5 70.834 22.5 96.501s40.167 42.5 75.5 50.5v7c-35.333 8 -60.5 24.833 -75.5 50.5s-22.5 57.5 -22.5 95.5v122c0 17.333 -3 34.5 -9 51.5
s-13.667 33.333 -23 49s-20 29.834 -32 42.501s-24.333 23.334 -37 32.001h64c14 -6.66699 27.667 -16.167 41 -28.5s25.5 -26.5 36.5 -42.5s19.667 -33.5 26 -52.5s9.5 -38.833 9.5 -59.5v-116c0 -18.667 2.66699 -37.667 8 -57s15.166 -35.5 29.499 -48.5
s35.5 -19.5 63.5 -19.5v-45c-28 0 -49.167 -6.5 -63.5 -19.5s-24.166 -29.167 -29.499 -48.5s-8 -38.333 -8 -57v-116c0 -21.333 -3.16699 -41.5 -9.5 -60.5s-15 -36.333 -26 -52s-23.167 -29.667 -36.5 -42s-27 -21.833 -41 -28.5h-64z" />
    <glyph glyph-name="asciitilde" unicode="~" horiz-adv-x="497" 
d="M67 240c0 26 1.50098 47.334 4.50098 64.001s9.83301 29.167 20.5 37.5s27 12.5 49 12.5c20 0 40 -2.5 60 -7.5s39.667 -10.5 59 -16.5l47 -13.5c15.333 -4.33301 29.666 -6.5 42.999 -6.5c14.667 0 23.667 4 27 12s5 22.333 5 43h47c0 -26 -1.5 -47.5 -4.5 -64.5
s-9.83301 -29.5 -20.5 -37.5s-27 -12 -49 -12c-20 0 -39.833 2.66699 -59.5 8l-59.5 16c-15.333 4.66699 -30.833 9 -46.5 13s-30.167 6 -43.5 6c-14 0 -22.667 -3.83301 -26 -11.5s-5 -21.834 -5 -42.501h-48z" />
    <glyph glyph-name="uni00A0" unicode="&#xa0;" horiz-adv-x="235" 
 />
    <glyph glyph-name="exclamdown" unicode="&#xa1;" horiz-adv-x="243" 
d="M74 -178v102c0 14.667 0.333008 32.667 1 54s1.5 45.5 2.5 72.5s2.33301 55.333 4 85s3.16699 59.5 4.5 89.5l4 88h63l4 -88c1.33301 -30 2.83301 -59.833 4.5 -89.5s3 -58 4 -85s1.83301 -51.167 2.5 -72.5s1 -39.333 1 -54v-102h-95zM74 412v98h95v-98h-95z" />
    <glyph glyph-name="cent" unicode="&#xa2;" horiz-adv-x="468" 
d="M269 67c-44 0.666992 -79.498 6.50098 -106.498 17.501s-47.5 27.5 -61.5 49.5s-23.5 50.333 -28.5 85s-7.5 75.667 -7.5 123c0 40.667 2 76.167 6 106.5s10.833 56.333 20.5 78s22.334 39.167 38.001 52.5s35 23.166 58 29.499s50.5 9.5 82.5 9.5
c16.667 0 33 -0.333008 49 -1s31.833 -2 47.5 -4s30.5 -4.66699 44.5 -8v-69c-15.333 3.33301 -34 6 -56 8s-43 2.66699 -63 2c-30 0 -54.333 -2.5 -73 -7.5s-32.834 -14.667 -42.501 -29s-16.334 -34.833 -20.001 -61.5s-5.5 -61.667 -5.5 -105
c0 -44 1.83301 -79.333 5.5 -106s10.667 -47.167 21 -61.5s24.833 -24 43.5 -29s43.334 -7.5 74.001 -7.5c18.667 0 39.5 1 62.5 3s42.167 5 57.5 9v-70c-12 -3.33301 -24.833 -6 -38.5 -8s-29.334 -3.5 -47.001 -4.5s-37.834 -1.5 -60.501 -1.5zM247.002 -7.99902v704h64
v-704h-64z" />
    <glyph glyph-name="sterling" unicode="&#xa3;" horiz-adv-x="590" 
d="M53 0v73.998h74v245h-74v73h75v29c0 53.333 3.83301 97.833 11.5 133.5s21 63.834 40 84.501s45 35.334 78 44.001s74.833 13 125.5 13c26 0 53 -1.33301 81 -4s50.333 -6.33398 67 -11.001v-69c-13.333 2 -27.833 3.66699 -43.5 5s-31.167 2.5 -46.5 3.5
s-29 1.5 -41 1.5c-40 0 -72.167 -2.66699 -96.5 -8s-43 -15.333 -56 -30s-21.833 -35.167 -26.5 -61.5s-7 -60.166 -7 -101.499v-29h242v-73h-242v-245h329v-74h-490z" />
    <glyph glyph-name="currency" unicode="&#xa4;" horiz-adv-x="717" 
d="M111 -9l-46.001 47l96 96c-11.333 20.667 -18.666 48.167 -21.999 82.5s-5 76.833 -5 127.5s1.5 93 4.5 127s10.167 61.333 21.5 82l-95 96l47 47l99 -100c16 8.66699 36 14.667 60 18s53 5 87 5c34.667 0 64 -1.66699 88 -5s43.667 -9.33301 59 -18l101 100l46 -46
l-96 -96c11.333 -21.333 18.5 -49 21.5 -83s4.5 -76.333 4.5 -127s-1.5 -93 -4.5 -127s-10.167 -61.667 -21.5 -83l97 -97l-47 -47l-101 101c-16 -8 -36 -13.667 -60 -17s-53 -5 -87 -5s-63 1.66699 -87 5s-43.667 9.33301 -59 18zM357.999 138c36 0 63.667 2.5 83 7.5
s33.166 14.5 41.499 28.5s13.333 34.667 15 62s2.5 63.333 2.5 108s-0.833008 80.667 -2.5 108s-6.66699 48 -15 62s-22.166 23.5 -41.499 28.5s-47 7.5 -83 7.5c-35.333 0 -62.833 -2.5 -82.5 -7.5s-33.5 -14.5 -41.5 -28.5s-13 -34.667 -15 -62s-3 -63.333 -3 -108
s1 -80.667 3 -108s7 -48 15 -62s21.833 -23.5 41.5 -28.5s47.167 -7.5 82.5 -7.5z" />
    <glyph glyph-name="yen" unicode="&#xa5;" horiz-adv-x="623" 
d="M268 0v240h-203v55h184l-217 393h91l186 -353h7l186 353h88l-217 -393h184v-55h-203v-240h-86zM65 397v55h492v-55h-492z" />
    <glyph glyph-name="brokenbar" unicode="&#xa6;" horiz-adv-x="277" 
d="M101 390v353h75v-353h-75zM101 -161v353h75v-353h-75z" />
    <glyph glyph-name="section" unicode="&#xa7;" horiz-adv-x="696" 
d="M327 -171c-23.333 0 -46.3311 0.666992 -68.998 2s-43.334 3 -62.001 5s-34 4 -46 6v68c11.333 -0.666992 24.833 -1.66699 40.5 -3s32.5 -2.33301 50.5 -3s35.333 -1 52 -1c41.333 0 74.666 1.16699 99.999 3.5s43.5 9.16602 54.5 20.499s16.5 29.333 16.5 54
c0 21.333 -1.5 37.5 -4.5 48.5s-9 19.333 -18 25s-21.833 10.834 -38.5 15.501l-229 63c-18.667 5.33301 -35.334 11.166 -50.001 17.499s-26.667 14.833 -36 25.5s-16.5 24.167 -21.5 40.5s-7.5 37.166 -7.5 62.499c0 19.333 1.16699 38.5 3.5 57.5
s7.16602 36.5 14.499 52.5s18 29.333 32 40s32.333 17 55 19c-8 13.333 -12.667 28.166 -14 44.499s-2 33.5 -2 51.5c0 30.667 5 56 15 76s24.667 35.5 44 46.5s42.5 18.667 69.5 23s57.833 6.5 92.5 6.5c23.333 0 46.333 -0.666992 69 -2s43.334 -3 62.001 -5
s33.667 -4 45 -6v-68c-18 2 -40.333 3.66699 -67 5s-52 2 -76 2c-41.333 0 -74.666 -1.33301 -99.999 -4s-43.5 -9.5 -54.5 -20.5s-16.5 -28.833 -16.5 -53.5c0 -21.333 1.83301 -37.666 5.5 -48.999s10.667 -20 21 -26s25.833 -11.667 46.5 -17l219 -62
c17.333 -4.66699 33 -10.334 47 -17.001s26 -15 36 -25s17.5 -23.333 22.5 -40s7.5 -37.667 7.5 -63c0 -19.333 -1.16699 -38.5 -3.5 -57.5s-7 -36.667 -14 -53s-17.5 -29.666 -31.5 -39.999s-32.667 -16.5 -56 -18.5c8 -13.333 12.667 -28.166 14 -44.499
s2 -33.166 2 -50.499c0 -31.333 -5 -57 -15 -77s-24.5 -35.333 -43.5 -46s-42 -18.167 -69 -22.5s-57.833 -6.5 -92.5 -6.5zM139.002 296c0 -20 1.66797 -35.833 5.00098 -47.5s9.5 -20.5 18.5 -26.5s21.833 -11.333 38.5 -16l234 -65l34 -9c10 -2.66699 18.667 -4 26 -4
c20 0 35.333 7.83301 46 23.5s16 40.834 16 75.501c0 20.667 -1.83301 36.834 -5.5 48.501s-10.334 20.667 -20.001 27s-24.167 12.166 -43.5 17.499l-227 61l-34.5 10c-9.66699 2.66699 -18.167 4 -25.5 4c-20 0 -35.333 -7.83301 -46 -23.5s-16 -40.834 -16 -75.501z" />
    <glyph glyph-name="dieresis" unicode="&#xa8;" horiz-adv-x="283" 
d="M0 628v80h77v-80h-77zM207 628v80h76v-80h-76z" />
    <glyph glyph-name="copyright" unicode="&#xa9;" horiz-adv-x="733" 
d="M366 -8c-54.667 0 -99.667 2.66699 -135 8s-63 14.833 -83 28.5s-34.333 33.667 -43 60s-14.167 60.333 -16.5 102s-3.5 92.834 -3.5 153.501s1.16699 111.834 3.5 153.501s7.83301 75.667 16.5 102s23 46.333 43 60s47.667 23.167 83 28.5s80.333 8 135 8
c55.333 0 100.5 -2.66699 135.5 -8s62.5 -14.833 82.5 -28.5s34.5 -33.667 43.5 -60s14.667 -60.333 17 -102s3.5 -92.834 3.5 -153.501s-1.16699 -111.834 -3.5 -153.501s-8 -75.667 -17 -102s-23.5 -46.333 -43.5 -60s-47.5 -23.167 -82.5 -28.5s-80.167 -8 -135.5 -8z
M389 153c-32.667 0 -58.8379 2.66406 -78.5049 7.99707s-34.667 14.833 -45 28.5s-17.333 32.834 -21 57.501s-5.5 56.667 -5.5 96c0 38.667 1.83301 70.334 5.5 95.001s10.667 44 21 58s25.333 23.5 45 28.5s45.834 7.5 78.501 7.5c16.667 0 33.334 -0.666992 50.001 -2
s29.334 -3 38.001 -5v-46c-11.333 1.33301 -24.166 2.5 -38.499 3.5s-27.166 1.5 -38.499 1.5c-24.667 0 -44 -1.16699 -58 -3.5s-24.5 -8.16602 -31.5 -17.499s-11.5 -23.5 -13.5 -42.5s-3 -44.833 -3 -77.5s1 -58.667 3 -78s6.5 -33.5 13.5 -42.5s17.5 -14.833 31.5 -17.5
s33.333 -4 58 -4c12.667 0 26.5 0.5 41.5 1.5s27.5 2.16699 37.5 3.5v-46c-10.667 -2 -24.5 -3.66699 -41.5 -5s-33.167 -2 -48.5 -2zM365.996 31.9971c46.667 0 85 1.5 115 4.5s53.5 9.83301 70.5 20.5s29.333 27.334 37 50.001s12.334 53 14.001 91s2.5 86.667 2.5 146
c0 58.667 -0.833008 107.167 -2.5 145.5s-6.33398 68.833 -14.001 91.5s-20 39.167 -37 49.5s-40.5 17 -70.5 20s-68.333 4.5 -115 4.5s-84.834 -1.5 -114.501 -4.5s-53 -9.66699 -70 -20s-29.333 -26.833 -37 -49.5s-12.5 -53.167 -14.5 -91.5s-3 -86.833 -3 -145.5
c0 -59.333 1 -108 3 -146s6.83301 -68.333 14.5 -91s20 -39.334 37 -50.001s40.333 -17.5 70 -20.5s67.834 -4.5 114.501 -4.5z" />
    <glyph glyph-name="ordfeminine" unicode="&#xaa;" horiz-adv-x="408" 
d="M162 314c-27.333 0 -49.998 3.16602 -67.998 9.49902s-31.167 17.5 -39.5 33.5s-12.5 38.333 -12.5 67c0 27.333 3 49 9 65s17.167 27.5 33.5 34.5s39.5 10.5 69.5 10.5c7.33301 0 18.666 -0.166992 33.999 -0.5s32.166 -0.833008 50.499 -1.5
s34.833 -1.33398 49.5 -2.00098v22c0 28 -2.5 48 -7.5 60s-15.5 19.833 -31.5 23.5s-40.333 5.5 -73 5.5c-10 0 -21.667 -0.333008 -35 -1s-26.666 -1.66699 -39.999 -3s-25.333 -2.66602 -36 -3.99902v53c17.333 2.66699 38 5 62 7s48 3 72 3
c33.333 0 60.166 -2.5 80.499 -7.5s35.833 -13.167 46.5 -24.5s17.667 -26.166 21 -44.499s5 -40.833 5 -67.5v-234h-58l-5 43h-5c-9.33301 -14 -20.833 -24.333 -34.5 -31s-28 -11 -43 -13s-29.833 -3 -44.5 -3zM185.002 364.999c14 0 27.167 0.831055 39.5 2.49805
s23 4.83398 32 9.50098s15.833 12 20.5 22c4 9.33301 6.83301 19.666 8.5 30.999s2.5 24.333 2.5 39v19h-118c-27.333 0 -45.333 -3.66699 -54 -11s-13 -23.666 -13 -48.999s5.16699 -42.166 15.5 -50.499s32.5 -12.5 66.5 -12.5z" />
    <glyph glyph-name="guillemotleft" unicode="&#xab;" horiz-adv-x="473" 
d="M178 99l-132 205l132 206h58l-114 -206l114 -205h-58zM346 99l-132 205l132 206h58l-114 -206l114 -205h-58z" />
    <glyph glyph-name="logicalnot" unicode="&#xac;" horiz-adv-x="539" 
d="M403 53v168h-333v67h399v-235h-66z" />
    <glyph glyph-name="uni00AD" unicode="&#xad;" horiz-adv-x="362" 
d="M59 248v74h243v-74h-243z" />
    <glyph glyph-name="registered" unicode="&#xae;" horiz-adv-x="733" 
d="M366 -8c-54.667 0 -99.667 2.66699 -135 8s-63 14.833 -83 28.5s-34.333 33.667 -43 60s-14.167 60.333 -16.5 102s-3.5 92.834 -3.5 153.501s1.16699 111.834 3.5 153.501s7.83301 75.667 16.5 102s23 46.333 43 60s47.667 23.167 83 28.5s80.333 8 135 8
c55.333 0 100.5 -2.66699 135.5 -8s62.5 -14.833 82.5 -28.5s34.5 -33.667 43.5 -60s14.667 -60.333 17 -102s3.5 -92.834 3.5 -153.501s-1.16699 -111.834 -3.5 -153.501s-8 -75.667 -17 -102s-23.5 -46.333 -43.5 -60s-47.5 -23.167 -82.5 -28.5s-80.167 -8 -135.5 -8z
M366 32c46.667 0 85 1.5 115 4.5s53.5 9.83301 70.5 20.5s29.333 27.334 37 50.001s12.334 53 14.001 91s2.5 86.667 2.5 146c0 58.667 -0.833008 107.167 -2.5 145.5s-6.33398 68.833 -14.001 91.5s-20 39.167 -37 49.5s-40.5 17 -70.5 20s-68.333 4.5 -115 4.5
s-84.834 -1.5 -114.501 -4.5s-53 -9.66699 -70 -20s-29.333 -26.833 -37 -49.5s-12.5 -53.167 -14.5 -91.5s-3 -86.833 -3 -145.5c0 -59.333 1 -108 3 -146s6.83301 -68.333 14.5 -91s20 -39.334 37 -50.001s40.333 -17.5 70 -20.5s67.834 -4.5 114.501 -4.5zM233 158
v369.999h166c34.667 0 59.667 -5.16699 75 -15.5s25 -24 29 -41s6 -35.5 6 -55.5c0 -21.333 -3.33301 -42.166 -10 -62.499s-22 -34.833 -46 -43.5l63 -152h-59l-56 144h-114v-144h-54zM287 348.999l92.001 -0.000976562c24 0 41.167 2.5 51.5 7.5s16.833 12.5 19.5 22.5
s4 22 4 36c0 15.333 -1.33301 27.833 -4 37.5s-8.83398 16.834 -18.501 21.501s-25.167 7 -46.5 7h-98v-132z" />
    <glyph glyph-name="macron" unicode="&#xaf;" horiz-adv-x="289" 
d="M0 628v57h289v-57h-289z" />
    <glyph glyph-name="degree" unicode="&#xb0;" horiz-adv-x="389" 
d="M195 397c-31.333 0 -56 2.33301 -74 7s-31.167 12.667 -39.5 24s-13.5 26.666 -15.5 45.999s-3 43.333 -3 72s1 52.667 3 72s7.16699 34.666 15.5 45.999s21.5 19.5 39.5 24.5s42.667 7.5 74 7.5s55.833 -2.5 73.5 -7.5s30.667 -13.167 39 -24.5
s13.5 -26.666 15.5 -45.999s3 -43.333 3 -72s-1 -52.667 -3 -72s-7.16699 -34.666 -15.5 -45.999s-21.333 -19.333 -39 -24s-42.167 -7 -73.5 -7zM195 443c24.667 0 42.167 2.5 52.5 7.5s16.5 15 18.5 30s3 36.833 3 65.5s-1 50.5 -3 65.5s-8.16699 25 -18.5 30
s-27.833 7.5 -52.5 7.5s-42.334 -2.5 -53.001 -7.5s-17 -15 -19 -30s-3 -36.833 -3 -65.5s1 -50.5 3 -65.5s8.33301 -25 19 -30s28.334 -7.5 53.001 -7.5z" />
    <glyph glyph-name="plusminus" unicode="&#xb1;" horiz-adv-x="540" 
d="M236 184v167h-166v66h166v167h66v-167h168v-66h-168v-167h-66zM70 0v66h400v-66h-400z" />
    <glyph glyph-name="uni00B2" unicode="&#xb2;" horiz-adv-x="356" 
d="M41 420v45.999c0 28.667 1 51.167 3 67.5s7.5 29.333 16.5 39s23.5 18.5 43.5 26.5l105 41c14 5.33301 24 10 30 14s10 9.33301 12 16s3 16 3 28c0 16 -2.66699 28 -8 36s-14.5 13 -27.5 15s-31.167 3 -54.5 3c-13.333 0 -30.833 -0.5 -52.5 -1.5s-42.5 -2.5 -62.5 -4.5
v46c16.667 3.33301 37.334 5.83301 62.001 7.5s47.667 2.5 69 2.5c24.667 0 47.167 -1.83301 67.5 -5.5s36.666 -12.5 48.999 -26.5s18.5 -36.333 18.5 -67c0 -21.333 -2.5 -38.666 -7.5 -51.999s-12.833 -24 -23.5 -32s-25 -15.667 -43 -23l-116 -46
c-7.33301 -2.66699 -12.833 -5.66699 -16.5 -9s-6 -8 -7 -14s-1.5 -15.333 -1.5 -28v-29h215v-50h-274z" />
    <glyph glyph-name="uni00B3" unicode="&#xb3;" horiz-adv-x="351" 
d="M155 416c-18 0 -38.3281 0.833008 -60.9951 2.5s-42.334 3.83398 -59.001 6.50098v46c19.333 -1.33301 39.666 -2.66602 60.999 -3.99902s38.666 -2 51.999 -2c32.667 0 57.167 3.16699 73.5 9.5s24.5 22.833 24.5 49.5c0 24 -5.33301 40.5 -16 49.5s-29 13.5 -55 13.5
h-74v48h75c12 0 23.167 1.5 33.5 4.5s18.5 8.66699 24.5 17s9 20.833 9 37.5c0 17.333 -3.33301 30.166 -10 38.499s-17.334 13.666 -32.001 15.999s-34.334 3.5 -59.001 3.5c-14.667 0 -31.834 -0.5 -51.501 -1.5s-37.5 -2.5 -53.5 -4.5v47
c16 2.66699 35.333 4.83398 58 6.50098s42.667 2.5 60 2.5c38 0 67.667 -3.33301 89 -10s36.5 -17.167 45.5 -31.5s13.5 -33.5 13.5 -57.5c0 -27.333 -5.83301 -47.833 -17.5 -61.5s-28.167 -22.834 -49.5 -27.501v-2c22.667 -4.66699 40.334 -13.167 53.001 -25.5
s19 -34.166 19 -65.499c0 -22.667 -4 -41.834 -12 -57.501s-23 -27.5 -45 -35.5s-54 -12 -96 -12z" />
    <glyph glyph-name="acute" unicode="&#xb4;" horiz-adv-x="189" 
d="M0 595v5l101 135h88v-5l-129 -135h-60z" />
    <glyph glyph-name="uni00B5" unicode="&#xb5;" horiz-adv-x="599" 
d="M86 -189l0.000976562 699h82v-291c0 -34 1.33301 -61.333 4 -82s8.5 -36.167 17.5 -46.5s21.833 -17.166 38.5 -20.499s38.334 -5 65.001 -5c33.333 0 59.333 4.16699 78 12.5s32.167 20.333 40.5 36s13.666 34.667 15.999 57s3.5 47.833 3.5 76.5v263h81v-510h-73l-3 73
h-7c-6.66699 -16 -16.5 -30 -29.5 -42s-30.833 -21.5 -53.5 -28.5s-51.334 -10.5 -86.001 -10.5c-23.333 0 -44.333 3 -63 9s-35 15.167 -49 27.5s-27 28.166 -39 47.499l75 -41h-16v-224h-82z" />
    <glyph glyph-name="paragraph" unicode="&#xb6;" horiz-adv-x="587" 
d="M309 -144v366c-46.667 0 -85 1.66699 -115 5s-53.833 9.5 -71.5 18.5s-30.5 22 -38.5 39s-13.167 39.333 -15.5 67s-3.5 61.834 -3.5 102.501s1.16699 74.834 3.5 102.501s7.5 50.167 15.5 67.5s20.833 30.666 38.5 39.999s41.5 15.666 71.5 18.999s68.333 5 115 5h62
v-832h-62zM437 -144v832h61v-832h-61z" />
    <glyph glyph-name="periodcentered" unicode="&#xb7;" horiz-adv-x="223" 
d="M64 251v97h95v-97h-95z" />
    <glyph glyph-name="cedilla" unicode="&#xb8;" horiz-adv-x="123" 
d="M0 -190v5l68 203h55v-5l-42 -203h-81z" />
    <glyph glyph-name="uni00B9" unicode="&#xb9;" horiz-adv-x="225" 
d="M103 420v313l-82 -38v52l98 50h43v-377h-59z" />
    <glyph glyph-name="ordmasculine" unicode="&#xba;" horiz-adv-x="422" 
d="M211 314c-38.667 0 -69.167 3 -91.5 9s-38.5 16.167 -48.5 30.5s-16.5 33.833 -19.5 58.5s-4.5 55.334 -4.5 92.001s1.5 67.334 4.5 92.001s9.5 44.334 19.5 59.001s26.167 25.167 48.5 31.5s52.833 9.5 91.5 9.5s69 -3.16699 91 -9.5s38.167 -16.833 48.5 -31.5
s16.833 -34.334 19.5 -59.001s4 -55.334 4 -92.001s-1.33301 -67.334 -4 -92.001s-9.16699 -44.167 -19.5 -58.5s-26.5 -24.5 -48.5 -30.5s-52.333 -9 -91 -9zM211 368c24.667 0 43.834 1.66699 57.501 5s23.167 9.66602 28.5 18.999s8.66602 23 9.99902 41s2 41.667 2 71
c0 28.667 -0.666992 52.167 -2 70.5s-4.66602 32.333 -9.99902 42s-14.833 16.167 -28.5 19.5s-32.834 5 -57.501 5s-43.834 -1.66699 -57.501 -5s-23.334 -9.83301 -29.001 -19.5s-9.16699 -23.667 -10.5 -42s-2 -41.833 -2 -70.5c0 -29.333 0.666992 -53 2 -71
s4.83301 -31.667 10.5 -41s15.334 -15.666 29.001 -18.999s32.834 -5 57.501 -5z" />
    <glyph glyph-name="guillemotright" unicode="&#xbb;" horiz-adv-x="473" 
d="M69 99l114 205l-114 206h58l132 -206l-132 -205h-58zM237 99l113 205l-113 206h58l132 -206l-132 -205h-58z" />
    <glyph glyph-name="onequarter" unicode="&#xbc;" horiz-adv-x="669" 
d="M103 308v313l-82 -38v52l98 50h43v-377h-59zM40 0l449 688h64l-449 -688h-64zM530 0v85h-205v43l142 249h66l-144 -244h142l15 123h44v-123h55v-48h-55v-85h-60z" />
    <glyph glyph-name="onehalf" unicode="&#xbd;" horiz-adv-x="725" 
d="M103 308v313l-82 -38v52l98 50h43v-377h-59zM40 0l449 688h64l-449 -688h-64zM409 0v45.999c0 28.667 1 51.167 3 67.5s7.5 29.333 16.5 39s23.5 18.5 43.5 26.5l105 41c14 5.33301 24 10 30 14s10 9.33301 12 16s3 16 3 28c0 16 -2.66699 28 -8 36s-14.5 13 -27.5 15
s-31.167 3 -54.5 3c-13.333 0 -30.833 -0.5 -52.5 -1.5s-42.5 -2.5 -62.5 -4.5v46c16.667 3.33301 37.334 5.83301 62.001 7.5s47.667 2.5 69 2.5c24.667 0 47.167 -1.83301 67.5 -5.5s36.666 -12.5 48.999 -26.5s18.5 -36.333 18.5 -67
c0 -21.333 -2.5 -38.666 -7.5 -51.999s-12.833 -24 -23.5 -32s-25 -15.667 -43 -23l-116 -46c-7.33301 -2.66699 -12.833 -5.66699 -16.5 -9s-6 -8 -7 -14s-1.5 -15.333 -1.5 -28v-29h215v-50h-274z" />
    <glyph glyph-name="threequarters" unicode="&#xbe;" horiz-adv-x="795" 
d="M155 304c-18 0 -38.3281 0.833984 -60.9951 2.50098s-42.334 3.83398 -59.001 6.50098v46c19.333 -1.33301 39.666 -2.66602 60.999 -3.99902s38.666 -2 51.999 -2c32.667 0 57.167 3.16699 73.5 9.5s24.5 22.833 24.5 49.5c0 24 -5.33301 40.5 -16 49.5
s-29 13.5 -55 13.5h-74v48h75c12 0 23.167 1.66699 33.5 5s18.5 9.16602 24.5 17.499s9 20.5 9 36.5c0 17.333 -3.33301 30.166 -10 38.499s-17.334 13.666 -32.001 15.999s-34.334 3.5 -59.001 3.5c-14.667 0 -31.834 -0.5 -51.501 -1.5s-37.5 -2.5 -53.5 -4.5v47
c16 2.66699 35.333 4.83398 58 6.50098s42.667 2.5 60 2.5c38 0 67.667 -3.33301 89 -10s36.5 -17.167 45.5 -31.5s13.5 -33.5 13.5 -57.5c0 -27.333 -5.83301 -47.833 -17.5 -61.5s-28.167 -22.834 -49.5 -27.501v-2c22.667 -4.66699 40.334 -13.167 53.001 -25.5
s19 -34.166 19 -65.499c0 -22.667 -4 -41.834 -12 -57.501s-23 -27.5 -45 -35.5s-54 -12 -96 -12zM166.005 0.000976562l449 688h64l-449 -688h-64zM656.005 0.000976562v85h-205v43l142 249h66l-144 -244h142l15 123h44v-123h55v-48h-55v-85h-60z" />
    <glyph glyph-name="questiondown" unicode="&#xbf;" horiz-adv-x="438" 
d="M266 -186c-36.667 0 -67.8291 2.99707 -93.4961 8.99707s-46.5 15.833 -62.5 29.5s-27.833 31.667 -35.5 54s-11.5 49.833 -11.5 82.5c0 21.333 1.16699 40.833 3.5 58.5s6.5 33.334 12.5 47.001s14.5 25.334 25.5 35.001s25.167 17.834 42.5 24.501l48 16
c16 6 28.833 11 38.5 15s16.667 8.33301 21 13s7.16602 11.167 8.49902 19.5s2 19.166 2 32.499v63h77v-80c0 -24.667 -2.5 -43.834 -7.5 -57.501s-12.833 -24.167 -23.5 -31.5s-25 -14 -43 -20l-31 -11c-25.333 -8 -44.333 -16.167 -57 -24.5s-21 -19.5 -25 -33.5
s-6 -35 -6 -63c0 -31.333 4.66699 -54.5 14 -69.5s24.666 -24.5 45.999 -28.5s49.666 -6 84.999 -6c10 0 21.667 0.333008 35 1s27.166 1.5 41.499 2.5s29 2.16699 44 3.5s29.167 3 42.5 5v-70c-19.333 -3.33301 -40.333 -6.16602 -63 -8.49902
s-45.167 -4.16602 -67.5 -5.49902s-42.5 -2 -60.5 -2zM256.005 411.997v98h94v-98h-94z" />
    <glyph glyph-name="Agrave" unicode="&#xc0;" horiz-adv-x="684" 
d="M28 0l260 688h108l259 -688h-89l-71 188h-309l-71 -188h-87zM212 263h257l-126 337h-5zM336 773l-129 135v5h88l101 -135v-5h-60z" />
    <glyph glyph-name="Aacute" unicode="&#xc1;" horiz-adv-x="684" 
d="M28 0l260 688h108l259 -688h-89l-71 188h-309l-71 -188h-87zM212 263h257l-126 337h-5zM289 773v5l101 135h88v-5l-129 -135h-60z" />
    <glyph glyph-name="Acircumflex" unicode="&#xc2;" horiz-adv-x="684" 
d="M28 0l260 688h108l259 -688h-89l-71 188h-309l-71 -188h-87zM212 263h257l-126 337h-5zM197 773v6l102 135h85l102 -135v-6h-56l-89 97l-88 -97h-56z" />
    <glyph glyph-name="Atilde" unicode="&#xc3;" horiz-adv-x="684" 
d="M28 0l260 688h108l259 -688h-89l-71 188h-309l-71 -188h-87zM212 263h257l-126 337h-5zM171 780c0 26 1.5 47.333 4.5 64s9.83301 29.167 20.5 37.5s27 12.5 49 12.5c18.667 0 37 -2.5 55 -7.5s36 -10.5 54 -16.5l40.5 -13c13 -4 26.167 -6 39.5 -6
c14.667 0 23.5 3.83301 26.5 11.5s4.5 21.834 4.5 42.501h47c0 -26 -1.5 -47.333 -4.5 -64s-9.66699 -29.167 -20 -37.5s-26.5 -12.5 -48.5 -12.5c-20 0 -38.5 2.66699 -55.5 8l-53.5 16c-14 4.66699 -27.667 9 -41 13s-26.333 6 -39 6
c-14.667 0 -23.5 -3.83301 -26.5 -11.5s-4.5 -21.834 -4.5 -42.501h-48z" />
    <glyph glyph-name="Adieresis" unicode="&#xc4;" horiz-adv-x="684" 
d="M28 0l260 688h108l259 -688h-89l-71 188h-309l-71 -188h-87zM212 263h257l-126 337h-5zM200 806v80h77v-80h-77zM407 806v80h76v-80h-76z" />
    <glyph glyph-name="Aring" unicode="&#xc5;" horiz-adv-x="683" 
d="M28 0l260 688h108l259 -688h-89l-71 188h-309l-71 -188h-87zM212 263h257l-126 337h-5zM355 652c-30 0 -53.5 1.83301 -70.5 5.5s-29.333 9.66699 -37 18s-12.667 19.166 -15 32.499s-3.5 29.333 -3.5 48s1.16699 34.667 3.5 48s7.33301 24.166 15 32.499
s20 14.5 37 18.5s40.5 6 70.5 6c30.667 0 54.667 -2 72 -6s30 -10.167 38 -18.5s13 -19.166 15 -32.499s3 -29.333 3 -48s-1 -34.667 -3 -48s-7 -24.166 -15 -32.499s-20.667 -14.333 -38 -18s-41.333 -5.5 -72 -5.5zM355 694c25.333 0 43.166 1.83301 53.499 5.5
s16.666 10 18.999 19s3.5 21.5 3.5 37.5s-1.16699 28.667 -3.5 38s-8.66602 15.833 -18.999 19.5s-28.166 5.5 -53.499 5.5c-24 0 -41.167 -1.83301 -51.5 -5.5s-16.666 -10.167 -18.999 -19.5s-3.5 -22 -3.5 -38s1.16699 -28.5 3.5 -37.5s8.66602 -15.333 18.999 -19
s27.5 -5.5 51.5 -5.5z" />
    <glyph glyph-name="AE" unicode="&#xc6;" horiz-adv-x="955" 
d="M-7 0l335 688h570v-74h-443l63 -229h333v-75h-315l65 -236h297v-74h-368l-50 188h-309l-91 -188h-87zM205 263h257l-89 337h-5z" />
    <glyph glyph-name="Ccedilla" unicode="&#xc7;" horiz-adv-x="575" 
d="M353 -8c-48 0 -88.3359 2.83496 -121.003 8.50195s-59.334 15.667 -80.001 30s-36.5 34.666 -47.5 60.999s-18.5 60.166 -22.5 101.499s-6 91.666 -6 150.999s2 109.5 6 150.5s11.5 74.667 22.5 101s26.833 46.833 47.5 61.5s47.334 24.834 80.001 30.501s73 8.5 121 8.5
c18.667 0 37.834 -0.666992 57.501 -2s38.5 -3 56.5 -5s33.667 -4.66699 47 -8v-69c-15.333 2 -31.166 3.83301 -47.499 5.5s-32.5 2.83398 -48.5 3.50098s-30.333 1 -43 1c-38.667 0 -71 -1.66699 -97 -5s-46.667 -9.83301 -62 -19.5s-26.833 -24.667 -34.5 -45
s-12.834 -47.333 -15.501 -81s-4 -76.167 -4 -127.5s1.33301 -93.833 4 -127.5s7.83398 -60.667 15.501 -81s19.167 -35.333 34.5 -45s36 -16.167 62 -19.5s58.333 -5 97 -5c22.667 0 47.334 1 74.001 3s49.667 4.33301 69 7v-71
c-14 -2.66699 -30.5 -4.83398 -49.5 -6.50098s-38.5 -3.16699 -58.5 -4.5s-39 -2 -57 -2zM241.997 -189.998v5l68 203h55v-5l-42 -203h-81z" />
    <glyph glyph-name="Egrave" unicode="&#xc8;" horiz-adv-x="603" 
d="M100 0v688h447v-74h-361v-229h314v-75h-314v-236h361v-74h-447zM324 773l-129 135v5h88l101 -135v-5h-60z" />
    <glyph glyph-name="Eacute" unicode="&#xc9;" horiz-adv-x="603" 
d="M100 0v688h447v-74h-361v-229h314v-75h-314v-236h361v-74h-447zM277 773v5l101 135h88v-5l-129 -135h-60z" />
    <glyph glyph-name="Ecircumflex" unicode="&#xca;" horiz-adv-x="603" 
d="M100 0v688h447v-74h-361v-229h314v-75h-314v-236h361v-74h-447zM185 773v6l102 135h85l102 -135v-6h-56l-89 97l-88 -97h-56z" />
    <glyph glyph-name="Edieresis" unicode="&#xcb;" horiz-adv-x="603" 
d="M100 0v688h447v-74h-361v-229h314v-75h-314v-236h361v-74h-447zM188 806v80h77v-80h-77zM395 806v80h76v-80h-76z" />
    <glyph glyph-name="Igrave" unicode="&#xcc;" horiz-adv-x="286" 
d="M100 0v688h86v-688h-86zM137 773l-129 135v5h88l101 -135v-5h-60z" />
    <glyph glyph-name="Iacute" unicode="&#xcd;" horiz-adv-x="286" 
d="M100 0v688h86v-688h-86zM90 773v5l101 135h88v-5l-129 -135h-60z" />
    <glyph glyph-name="Icircumflex" unicode="&#xce;" horiz-adv-x="286" 
d="M100 0v688h86v-688h-86zM-2 773v6l102 135h85l102 -135v-6h-56l-89 97l-88 -97h-56z" />
    <glyph glyph-name="Idieresis" unicode="&#xcf;" horiz-adv-x="286" 
d="M100 0v688h86v-688h-86zM1 806v80h77v-80h-77zM208 806v80h76v-80h-76z" />
    <glyph glyph-name="Eth" unicode="&#xd0;" horiz-adv-x="689" 
d="M100 0v314h-69v69h69v305h218c56.667 0 103 -2.66699 139 -8s64.5 -15 85.5 -29s36.5 -34 46.5 -60s16.333 -59 19 -99s4 -89.333 4 -148s-1.33301 -108 -4 -148s-9 -73 -19 -99s-25.5 -46 -46.5 -60s-49.5 -23.667 -85.5 -29s-82.333 -8 -139 -8h-218zM186 74
l118.001 0.000976562c42 0 76.667 1 104 3s49 7.16699 65 15.5s27.667 22 35 41s12.166 45.5 14.499 79.5s3.5 77.667 3.5 131s-1.16699 96.833 -3.5 130.5s-7.33301 60.167 -15 79.5s-19.5 33.166 -35.5 41.499s-37.5 13.5 -64.5 15.5s-61.5 3 -103.5 3h-118v-231h110v-69
h-110v-240z" />
    <glyph glyph-name="Ntilde" unicode="&#xd1;" horiz-adv-x="731" 
d="M100 0v688h88l357 -527h4v527h83v-688h-83l-362 537h-4v-537h-83zM205 780c0 26 1.5 47.333 4.5 64s9.83301 29.167 20.5 37.5s27 12.5 49 12.5c18.667 0 37 -2.5 55 -7.5s36 -10.5 54 -16.5l40.5 -13c13 -4 26.167 -6 39.5 -6c14.667 0 23.5 3.83301 26.5 11.5
s4.5 21.834 4.5 42.501h47c0 -26 -1.5 -47.333 -4.5 -64s-9.66699 -29.167 -20 -37.5s-26.5 -12.5 -48.5 -12.5c-20 0 -38.5 2.66699 -55.5 8l-53.5 16c-14 4.66699 -27.667 9 -41 13s-26.333 6 -39 6c-14.667 0 -23.5 -3.83301 -26.5 -11.5s-4.5 -21.834 -4.5 -42.501h-48z
" />
    <glyph glyph-name="Ograve" unicode="&#xd2;" horiz-adv-x="717" 
d="M358 -8c-53.333 0 -97.5 2.83301 -132.5 8.5s-62.667 15.834 -83 30.501s-35.166 35.167 -44.499 61.5s-15.333 60 -18 101s-4 91.167 -4 150.5s1.33301 109.5 4 150.5s8.66699 74.667 18 101s24.166 46.833 44.499 61.5s48 24.834 83 30.501s79.167 8.5 132.5 8.5
s97.5 -2.83301 132.5 -8.5s62.667 -15.834 83 -30.501s35.166 -35.167 44.499 -61.5s15.333 -60 18 -101s4 -91.167 4 -150.5s-1.33301 -109.5 -4 -150.5s-8.66699 -74.667 -18 -101s-24.166 -46.833 -44.499 -61.5s-48 -24.834 -83 -30.501s-79.167 -8.5 -132.5 -8.5z
M358 66c36.667 0 67 1.16699 91 3.5s43 7.83301 57 16.5s24.667 22.834 32 42.501s11.833 46.834 13.5 81.501s2.5 79.334 2.5 134.001s-0.833008 99.334 -2.5 134.001s-6.16699 61.834 -13.5 81.501s-18 33.834 -32 42.501s-33 14.167 -57 16.5s-54.333 3.5 -91 3.5
s-66.834 -1.16699 -90.501 -3.5s-42.667 -7.83301 -57 -16.5s-25 -22.834 -32 -42.501s-11.5 -46.834 -13.5 -81.501s-3 -79.334 -3 -134.001s1 -99.334 3 -134.001s6.5 -61.834 13.5 -81.501s17.667 -33.834 32 -42.501s33.333 -14.167 57 -16.5s53.834 -3.5 90.501 -3.5z
M353 773l-129 135v5h88l101 -135v-5h-60z" />
    <glyph glyph-name="Oacute" unicode="&#xd3;" horiz-adv-x="717" 
d="M358 -8c-53.333 0 -97.5 2.83301 -132.5 8.5s-62.667 15.834 -83 30.501s-35.166 35.167 -44.499 61.5s-15.333 60 -18 101s-4 91.167 -4 150.5s1.33301 109.5 4 150.5s8.66699 74.667 18 101s24.166 46.833 44.499 61.5s48 24.834 83 30.501s79.167 8.5 132.5 8.5
s97.5 -2.83301 132.5 -8.5s62.667 -15.834 83 -30.501s35.166 -35.167 44.499 -61.5s15.333 -60 18 -101s4 -91.167 4 -150.5s-1.33301 -109.5 -4 -150.5s-8.66699 -74.667 -18 -101s-24.166 -46.833 -44.499 -61.5s-48 -24.834 -83 -30.501s-79.167 -8.5 -132.5 -8.5z
M358 66c36.667 0 67 1.16699 91 3.5s43 7.83301 57 16.5s24.667 22.834 32 42.501s11.833 46.834 13.5 81.501s2.5 79.334 2.5 134.001s-0.833008 99.334 -2.5 134.001s-6.16699 61.834 -13.5 81.501s-18 33.834 -32 42.501s-33 14.167 -57 16.5s-54.333 3.5 -91 3.5
s-66.834 -1.16699 -90.501 -3.5s-42.667 -7.83301 -57 -16.5s-25 -22.834 -32 -42.501s-11.5 -46.834 -13.5 -81.501s-3 -79.334 -3 -134.001s1 -99.334 3 -134.001s6.5 -61.834 13.5 -81.501s17.667 -33.834 32 -42.501s33.333 -14.167 57 -16.5s53.834 -3.5 90.501 -3.5z
M306 773v5l101 135h88v-5l-129 -135h-60z" />
    <glyph glyph-name="Ocircumflex" unicode="&#xd4;" horiz-adv-x="717" 
d="M358 -8c-53.333 0 -97.5 2.83301 -132.5 8.5s-62.667 15.834 -83 30.501s-35.166 35.167 -44.499 61.5s-15.333 60 -18 101s-4 91.167 -4 150.5s1.33301 109.5 4 150.5s8.66699 74.667 18 101s24.166 46.833 44.499 61.5s48 24.834 83 30.501s79.167 8.5 132.5 8.5
s97.5 -2.83301 132.5 -8.5s62.667 -15.834 83 -30.501s35.166 -35.167 44.499 -61.5s15.333 -60 18 -101s4 -91.167 4 -150.5s-1.33301 -109.5 -4 -150.5s-8.66699 -74.667 -18 -101s-24.166 -46.833 -44.499 -61.5s-48 -24.834 -83 -30.501s-79.167 -8.5 -132.5 -8.5z
M358 66c36.667 0 67 1.16699 91 3.5s43 7.83301 57 16.5s24.667 22.834 32 42.501s11.833 46.834 13.5 81.501s2.5 79.334 2.5 134.001s-0.833008 99.334 -2.5 134.001s-6.16699 61.834 -13.5 81.501s-18 33.834 -32 42.501s-33 14.167 -57 16.5s-54.333 3.5 -91 3.5
s-66.834 -1.16699 -90.501 -3.5s-42.667 -7.83301 -57 -16.5s-25 -22.834 -32 -42.501s-11.5 -46.834 -13.5 -81.501s-3 -79.334 -3 -134.001s1 -99.334 3 -134.001s6.5 -61.834 13.5 -81.501s17.667 -33.834 32 -42.501s33.333 -14.167 57 -16.5s53.834 -3.5 90.501 -3.5z
M214 773v6l102 135h85l102 -135v-6h-56l-89 97l-88 -97h-56z" />
    <glyph glyph-name="Otilde" unicode="&#xd5;" horiz-adv-x="717" 
d="M358 -8c-53.333 0 -97.5 2.83301 -132.5 8.5s-62.667 15.834 -83 30.501s-35.166 35.167 -44.499 61.5s-15.333 60 -18 101s-4 91.167 -4 150.5s1.33301 109.5 4 150.5s8.66699 74.667 18 101s24.166 46.833 44.499 61.5s48 24.834 83 30.501s79.167 8.5 132.5 8.5
s97.5 -2.83301 132.5 -8.5s62.667 -15.834 83 -30.501s35.166 -35.167 44.499 -61.5s15.333 -60 18 -101s4 -91.167 4 -150.5s-1.33301 -109.5 -4 -150.5s-8.66699 -74.667 -18 -101s-24.166 -46.833 -44.499 -61.5s-48 -24.834 -83 -30.501s-79.167 -8.5 -132.5 -8.5z
M358 66c36.667 0 67 1.16699 91 3.5s43 7.83301 57 16.5s24.667 22.834 32 42.501s11.833 46.834 13.5 81.501s2.5 79.334 2.5 134.001s-0.833008 99.334 -2.5 134.001s-6.16699 61.834 -13.5 81.501s-18 33.834 -32 42.501s-33 14.167 -57 16.5s-54.333 3.5 -91 3.5
s-66.834 -1.16699 -90.501 -3.5s-42.667 -7.83301 -57 -16.5s-25 -22.834 -32 -42.501s-11.5 -46.834 -13.5 -81.501s-3 -79.334 -3 -134.001s1 -99.334 3 -134.001s6.5 -61.834 13.5 -81.501s17.667 -33.834 32 -42.501s33.333 -14.167 57 -16.5s53.834 -3.5 90.501 -3.5z
M188 780c0 26 1.5 47.333 4.5 64s9.83301 29.167 20.5 37.5s27 12.5 49 12.5c18.667 0 37 -2.5 55 -7.5s36 -10.5 54 -16.5l40.5 -13c13 -4 26.167 -6 39.5 -6c14.667 0 23.5 3.83301 26.5 11.5s4.5 21.834 4.5 42.501h47c0 -26 -1.5 -47.333 -4.5 -64
s-9.66699 -29.167 -20 -37.5s-26.5 -12.5 -48.5 -12.5c-20 0 -38.5 2.66699 -55.5 8l-53.5 16c-14 4.66699 -27.667 9 -41 13s-26.333 6 -39 6c-14.667 0 -23.5 -3.83301 -26.5 -11.5s-4.5 -21.834 -4.5 -42.501h-48z" />
    <glyph glyph-name="Odieresis" unicode="&#xd6;" horiz-adv-x="717" 
d="M358 -8c-53.333 0 -97.5 2.83301 -132.5 8.5s-62.667 15.834 -83 30.501s-35.166 35.167 -44.499 61.5s-15.333 60 -18 101s-4 91.167 -4 150.5s1.33301 109.5 4 150.5s8.66699 74.667 18 101s24.166 46.833 44.499 61.5s48 24.834 83 30.501s79.167 8.5 132.5 8.5
s97.5 -2.83301 132.5 -8.5s62.667 -15.834 83 -30.501s35.166 -35.167 44.499 -61.5s15.333 -60 18 -101s4 -91.167 4 -150.5s-1.33301 -109.5 -4 -150.5s-8.66699 -74.667 -18 -101s-24.166 -46.833 -44.499 -61.5s-48 -24.834 -83 -30.501s-79.167 -8.5 -132.5 -8.5z
M358 66c36.667 0 67 1.16699 91 3.5s43 7.83301 57 16.5s24.667 22.834 32 42.501s11.833 46.834 13.5 81.501s2.5 79.334 2.5 134.001s-0.833008 99.334 -2.5 134.001s-6.16699 61.834 -13.5 81.501s-18 33.834 -32 42.501s-33 14.167 -57 16.5s-54.333 3.5 -91 3.5
s-66.834 -1.16699 -90.501 -3.5s-42.667 -7.83301 -57 -16.5s-25 -22.834 -32 -42.501s-11.5 -46.834 -13.5 -81.501s-3 -79.334 -3 -134.001s1 -99.334 3 -134.001s6.5 -61.834 13.5 -81.501s17.667 -33.834 32 -42.501s33.333 -14.167 57 -16.5s53.834 -3.5 90.501 -3.5z
M216 806v80h77v-80h-77zM423 806v80h76v-80h-76z" />
    <glyph glyph-name="multiply" unicode="&#xd7;" horiz-adv-x="482" 
d="M115 79l-46 48l125 125l-126 126l47 47l126 -126l126 126l47 -46l-126 -127l126 -126l-47 -47l-126 127z" />
    <glyph glyph-name="Oslash" unicode="&#xd8;" horiz-adv-x="717" 
d="M76 -55l489 798h75l-489 -798h-75zM358 -8c-53.333 0 -97.5 2.83301 -132.5 8.5s-62.667 15.834 -83 30.501s-35.166 35.167 -44.499 61.5s-15.333 60 -18 101s-4 91.167 -4 150.5s1.33301 109.5 4 150.5s8.66699 74.667 18 101s24.166 46.833 44.499 61.5
s48 24.834 83 30.501s79.167 8.5 132.5 8.5s97.5 -2.83301 132.5 -8.5s62.667 -15.834 83 -30.501s35.166 -35.167 44.499 -61.5s15.333 -60 18 -101s4 -91.167 4 -150.5s-1.33301 -109.5 -4 -150.5s-8.66699 -74.667 -18 -101s-24.166 -46.833 -44.499 -61.5
s-48 -24.834 -83 -30.501s-79.167 -8.5 -132.5 -8.5zM358 66c36.667 0 67 1.16699 91 3.5s43 7.83301 57 16.5s24.667 22.834 32 42.501s11.833 46.834 13.5 81.501s2.5 79.334 2.5 134.001s-0.833008 99.334 -2.5 134.001s-6.16699 61.834 -13.5 81.501
s-18 33.834 -32 42.501s-33 14.167 -57 16.5s-54.333 3.5 -91 3.5s-66.834 -1.16699 -90.501 -3.5s-42.667 -7.83301 -57 -16.5s-25 -22.834 -32 -42.501s-11.5 -46.834 -13.5 -81.501s-3 -79.334 -3 -134.001s1 -99.334 3 -134.001s6.5 -61.834 13.5 -81.501
s17.667 -33.834 32 -42.501s33.333 -14.167 57 -16.5s53.834 -3.5 90.501 -3.5z" />
    <glyph glyph-name="Ugrave" unicode="&#xd9;" horiz-adv-x="708" 
d="M355 -8c-47.333 0 -86.832 2.83301 -118.499 8.5s-57.167 15.167 -76.5 28.5s-34 31.833 -44 55.5s-16.667 53.167 -20 88.5s-5 78 -5 128v387h86v-421c0 -42 1.66699 -76 5 -102s10.5 -46.333 21.5 -61s28.5 -24.667 52.5 -30s57 -8 99 -8s74.833 2.66699 98.5 8
s41 15.333 52 30s17.833 35 20.5 61s4 60 4 102v421h86v-387c0 -50 -1.5 -92.667 -4.5 -128s-9.33301 -64.833 -19 -88.5s-24.167 -42.167 -43.5 -55.5s-44.833 -22.833 -76.5 -28.5s-70.834 -8.5 -117.501 -8.5zM349.001 773l-129 135v5h88l101 -135v-5h-60z" />
    <glyph glyph-name="Uacute" unicode="&#xda;" horiz-adv-x="708" 
d="M355 -8c-47.333 0 -86.832 2.83301 -118.499 8.5s-57.167 15.167 -76.5 28.5s-34 31.833 -44 55.5s-16.667 53.167 -20 88.5s-5 78 -5 128v387h86v-421c0 -42 1.66699 -76 5 -102s10.5 -46.333 21.5 -61s28.5 -24.667 52.5 -30s57 -8 99 -8s74.833 2.66699 98.5 8
s41 15.333 52 30s17.833 35 20.5 61s4 60 4 102v421h86v-387c0 -50 -1.5 -92.667 -4.5 -128s-9.33301 -64.833 -19 -88.5s-24.167 -42.167 -43.5 -55.5s-44.833 -22.833 -76.5 -28.5s-70.834 -8.5 -117.501 -8.5zM302.001 773v5l101 135h88v-5l-129 -135h-60z" />
    <glyph glyph-name="Ucircumflex" unicode="&#xdb;" horiz-adv-x="708" 
d="M355 -8c-47.333 0 -86.832 2.83301 -118.499 8.5s-57.167 15.167 -76.5 28.5s-34 31.833 -44 55.5s-16.667 53.167 -20 88.5s-5 78 -5 128v387h86v-421c0 -42 1.66699 -76 5 -102s10.5 -46.333 21.5 -61s28.5 -24.667 52.5 -30s57 -8 99 -8s74.833 2.66699 98.5 8
s41 15.333 52 30s17.833 35 20.5 61s4 60 4 102v421h86v-387c0 -50 -1.5 -92.667 -4.5 -128s-9.33301 -64.833 -19 -88.5s-24.167 -42.167 -43.5 -55.5s-44.833 -22.833 -76.5 -28.5s-70.834 -8.5 -117.501 -8.5zM210.001 773v6l102 135h85l102 -135v-6h-56l-89 97l-88 -97
h-56z" />
    <glyph glyph-name="Udieresis" unicode="&#xdc;" horiz-adv-x="708" 
d="M355 -8c-47.333 0 -86.832 2.83301 -118.499 8.5s-57.167 15.167 -76.5 28.5s-34 31.833 -44 55.5s-16.667 53.167 -20 88.5s-5 78 -5 128v387h86v-421c0 -42 1.66699 -76 5 -102s10.5 -46.333 21.5 -61s28.5 -24.667 52.5 -30s57 -8 99 -8s74.833 2.66699 98.5 8
s41 15.333 52 30s17.833 35 20.5 61s4 60 4 102v421h86v-387c0 -50 -1.5 -92.667 -4.5 -128s-9.33301 -64.833 -19 -88.5s-24.167 -42.167 -43.5 -55.5s-44.833 -22.833 -76.5 -28.5s-70.834 -8.5 -117.501 -8.5zM212.001 806v80h77v-80h-77zM419.001 806v80h76v-80h-76z
" />
    <glyph glyph-name="Yacute" unicode="&#xdd;" horiz-adv-x="609" 
d="M261 0v263l-249 425h92l199 -339h7l197 339h90l-250 -425v-263h-86zM252 773v5l101 135h88v-5l-129 -135h-60z" />
    <glyph glyph-name="Thorn" unicode="&#xde;" horiz-adv-x="652" 
d="M100 0v688h86v-120h215c44 0 79.167 -5.5 105.5 -16.5s46 -26.333 59 -46s21.833 -42.5 26.5 -68.5s7 -54.667 7 -86c0 -30 -2.16699 -58.167 -6.5 -84.5s-13.166 -49.5 -26.499 -69.5s-33.333 -35.667 -60 -47s-62.334 -17 -107.001 -17h-213v-133h-86zM186 207
l185 0.00292969c32.667 0 58.5 2.83301 77.5 8.5s33.167 14.167 42.5 25.5s15.333 26.166 18 44.499s4 40.166 4 65.499c0 24.667 -1.16699 46.167 -3.5 64.5s-8 33.166 -17 44.499s-23 19.833 -42 25.5s-44.833 8.5 -77.5 8.5h-187v-287z" />
    <glyph glyph-name="germandbls" unicode="&#xdf;" horiz-adv-x="608" 
d="M86 0l0.00195312 540.006c0 48 7.16699 87.5 21.5 118.5s38 54 71 69s78.833 22.5 137.5 22.5c43.333 0 79.166 -3.83301 107.499 -11.5s50.5 -18.834 66.5 -33.501s27.167 -32.834 33.5 -54.501s9.5 -46.834 9.5 -75.501c0 -40.667 -9.33301 -71.834 -28 -93.501
s-48 -35.5 -88 -41.5v-4c41.333 -7.33301 72.5 -25.166 93.5 -53.499s31.5 -75.5 31.5 -141.5c0 -43.333 -2.5 -80.333 -7.5 -111s-14.667 -55.5 -29 -74.5s-35.333 -33 -63 -42s-63.834 -13.5 -108.501 -13.5h-74v68h54c32.667 0 58.667 1.66699 78 5s34 10.5 44 21.5
s16.667 27.833 20 50.5s5 54 5 94c0 44 -4.16699 77.667 -12.5 101s-22.666 39.166 -42.999 47.499s-49.166 12.5 -86.499 12.5h-31v69h31c33.333 0 59.666 3.16699 78.999 9.5s33.166 16.666 41.499 30.999s12.5 33.833 12.5 58.5c0 30 -4 53.167 -12 69.5
s-22.333 27.666 -43 33.999s-50 9.5 -88 9.5c-32 0 -58.667 -3.5 -80 -10.5s-37 -21.333 -47 -43s-15 -54.5 -15 -98.5v-529h-81z" />
    <glyph glyph-name="agrave" unicode="&#xe0;" horiz-adv-x="569" 
d="M223 -8c-37.333 0 -68.5029 4.33203 -93.5029 12.999s-43.667 23.667 -56 45s-18.5 51.333 -18.5 90s4.5 69.167 13.5 91.5s24.833 38.166 47.5 47.499s54.334 14 95.001 14c6.66699 0 17.167 -0.166992 31.5 -0.5s30.833 -0.666016 49.5 -0.999023l56.5 -1
c19 -0.333008 36.5 -0.833008 52.5 -1.5v32c0 30 -1.83301 53.5 -5.5 70.5s-11.167 29.667 -22.5 38s-27.166 13.666 -47.499 15.999s-47.166 3.5 -80.499 3.5c-14.667 0 -32 -0.5 -52 -1.5s-39.5 -2.33301 -58.5 -4s-34.167 -3.5 -45.5 -5.5v66
c25.333 4.66699 53.833 8.16699 85.5 10.5s64.5 3.5 98.5 3.5c36 0 66.5 -2.16699 91.5 -6.5s45.333 -11.166 61 -20.499s27.5 -21.666 35.5 -36.999s13.5 -34 16.5 -56s4.5 -47.667 4.5 -77v-321h-73l-3 72h-6c-10.667 -23.333 -25.834 -40.833 -45.501 -52.5
s-41.167 -19.167 -64.5 -22.5s-45.666 -5 -66.999 -5zM252.997 58.999c19.333 0 37.332 1.16797 53.999 3.50098s31.334 6.83301 44.001 13.5s22.667 16.667 30 30c7.33301 14 12.5 29.167 15.5 45.5s4.5 35.5 4.5 57.5v26h-170c-26 0 -46 -2 -60 -6
s-23.5 -12.333 -28.5 -25s-7.5 -31.667 -7.5 -57c0 -24.667 3 -43.334 9 -56.001s17.5 -21.167 34.5 -25.5s41.833 -6.5 74.5 -6.5zM284.996 595l-129 135v5h88l101 -135v-5h-60z" />
    <glyph glyph-name="aacute" unicode="&#xe1;" horiz-adv-x="569" 
d="M223 -8c-37.333 0 -68.5029 4.33203 -93.5029 12.999s-43.667 23.667 -56 45s-18.5 51.333 -18.5 90s4.5 69.167 13.5 91.5s24.833 38.166 47.5 47.499s54.334 14 95.001 14c6.66699 0 17.167 -0.166992 31.5 -0.5s30.833 -0.666016 49.5 -0.999023l56.5 -1
c19 -0.333008 36.5 -0.833008 52.5 -1.5v32c0 30 -1.83301 53.5 -5.5 70.5s-11.167 29.667 -22.5 38s-27.166 13.666 -47.499 15.999s-47.166 3.5 -80.499 3.5c-14.667 0 -32 -0.5 -52 -1.5s-39.5 -2.33301 -58.5 -4s-34.167 -3.5 -45.5 -5.5v66
c25.333 4.66699 53.833 8.16699 85.5 10.5s64.5 3.5 98.5 3.5c36 0 66.5 -2.16699 91.5 -6.5s45.333 -11.166 61 -20.499s27.5 -21.666 35.5 -36.999s13.5 -34 16.5 -56s4.5 -47.667 4.5 -77v-321h-73l-3 72h-6c-10.667 -23.333 -25.834 -40.833 -45.501 -52.5
s-41.167 -19.167 -64.5 -22.5s-45.666 -5 -66.999 -5zM252.997 58.999c19.333 0 37.332 1.16797 53.999 3.50098s31.334 6.83301 44.001 13.5s22.667 16.667 30 30c7.33301 14 12.5 29.167 15.5 45.5s4.5 35.5 4.5 57.5v26h-170c-26 0 -46 -2 -60 -6
s-23.5 -12.333 -28.5 -25s-7.5 -31.667 -7.5 -57c0 -24.667 3 -43.334 9 -56.001s17.5 -21.167 34.5 -25.5s41.833 -6.5 74.5 -6.5zM209.996 595v5l101 135h88v-5l-129 -135h-60z" />
    <glyph glyph-name="acircumflex" unicode="&#xe2;" horiz-adv-x="569" 
d="M223 -8c-37.333 0 -68.5029 4.33203 -93.5029 12.999s-43.667 23.667 -56 45s-18.5 51.333 -18.5 90s4.5 69.167 13.5 91.5s24.833 38.166 47.5 47.499s54.334 14 95.001 14c6.66699 0 17.167 -0.166992 31.5 -0.5s30.833 -0.666016 49.5 -0.999023l56.5 -1
c19 -0.333008 36.5 -0.833008 52.5 -1.5v32c0 30 -1.83301 53.5 -5.5 70.5s-11.167 29.667 -22.5 38s-27.166 13.666 -47.499 15.999s-47.166 3.5 -80.499 3.5c-14.667 0 -32 -0.5 -52 -1.5s-39.5 -2.33301 -58.5 -4s-34.167 -3.5 -45.5 -5.5v66
c25.333 4.66699 53.833 8.16699 85.5 10.5s64.5 3.5 98.5 3.5c36 0 66.5 -2.16699 91.5 -6.5s45.333 -11.166 61 -20.499s27.5 -21.666 35.5 -36.999s13.5 -34 16.5 -56s4.5 -47.667 4.5 -77v-321h-73l-3 72h-6c-10.667 -23.333 -25.834 -40.833 -45.501 -52.5
s-41.167 -19.167 -64.5 -22.5s-45.666 -5 -66.999 -5zM252.997 58.999c19.333 0 37.332 1.16797 53.999 3.50098s31.334 6.83301 44.001 13.5s22.667 16.667 30 30c7.33301 14 12.5 29.167 15.5 45.5s4.5 35.5 4.5 57.5v26h-170c-26 0 -46 -2 -60 -6
s-23.5 -12.333 -28.5 -25s-7.5 -31.667 -7.5 -57c0 -24.667 3 -43.334 9 -56.001s17.5 -21.167 34.5 -25.5s41.833 -6.5 74.5 -6.5zM141.996 595v6l102 134h85l102 -134v-6h-56l-89 96l-88 -96h-56z" />
    <glyph glyph-name="atilde" unicode="&#xe3;" horiz-adv-x="569" 
d="M223 -8c-37.333 0 -68.5029 4.33203 -93.5029 12.999s-43.667 23.667 -56 45s-18.5 51.333 -18.5 90s4.5 69.167 13.5 91.5s24.833 38.166 47.5 47.499s54.334 14 95.001 14c6.66699 0 17.167 -0.166992 31.5 -0.5s30.833 -0.666016 49.5 -0.999023l56.5 -1
c19 -0.333008 36.5 -0.833008 52.5 -1.5v32c0 30 -1.83301 53.5 -5.5 70.5s-11.167 29.667 -22.5 38s-27.166 13.666 -47.499 15.999s-47.166 3.5 -80.499 3.5c-14.667 0 -32 -0.5 -52 -1.5s-39.5 -2.33301 -58.5 -4s-34.167 -3.5 -45.5 -5.5v66
c25.333 4.66699 53.833 8.16699 85.5 10.5s64.5 3.5 98.5 3.5c36 0 66.5 -2.16699 91.5 -6.5s45.333 -11.166 61 -20.499s27.5 -21.666 35.5 -36.999s13.5 -34 16.5 -56s4.5 -47.667 4.5 -77v-321h-73l-3 72h-6c-10.667 -23.333 -25.834 -40.833 -45.501 -52.5
s-41.167 -19.167 -64.5 -22.5s-45.666 -5 -66.999 -5zM252.997 58.999c19.333 0 37.332 1.16797 53.999 3.50098s31.334 6.83301 44.001 13.5s22.667 16.667 30 30c7.33301 14 12.5 29.167 15.5 45.5s4.5 35.5 4.5 57.5v26h-170c-26 0 -46 -2 -60 -6
s-23.5 -12.333 -28.5 -25s-7.5 -31.667 -7.5 -57c0 -24.667 3 -43.334 9 -56.001s17.5 -21.167 34.5 -25.5s41.833 -6.5 74.5 -6.5zM114.996 602c0 26 1.5 47.333 4.5 64s9.83301 29.167 20.5 37.5s27 12.5 49 12.5c18.667 0 37 -2.5 55 -7.5s36 -10.5 54 -16.5l40.5 -13
c13 -4 26.167 -6 39.5 -6c14.667 0 23.5 3.83301 26.5 11.5s4.5 21.834 4.5 42.501h47c0 -26 -1.5 -47.333 -4.5 -64s-9.66699 -29.167 -20 -37.5s-26.5 -12.5 -48.5 -12.5c-20 0 -38.5 2.66699 -55.5 8l-53.5 16c-14 4.66699 -27.667 9 -41 13s-26.333 6 -39 6
c-14.667 0 -23.5 -3.83301 -26.5 -11.5s-4.5 -21.834 -4.5 -42.501h-48z" />
    <glyph glyph-name="adieresis" unicode="&#xe4;" horiz-adv-x="569" 
d="M223 -8c-37.333 0 -68.5029 4.33203 -93.5029 12.999s-43.667 23.667 -56 45s-18.5 51.333 -18.5 90s4.5 69.167 13.5 91.5s24.833 38.166 47.5 47.499s54.334 14 95.001 14c6.66699 0 17.167 -0.166992 31.5 -0.5s30.833 -0.666016 49.5 -0.999023l56.5 -1
c19 -0.333008 36.5 -0.833008 52.5 -1.5v32c0 30 -1.83301 53.5 -5.5 70.5s-11.167 29.667 -22.5 38s-27.166 13.666 -47.499 15.999s-47.166 3.5 -80.499 3.5c-14.667 0 -32 -0.5 -52 -1.5s-39.5 -2.33301 -58.5 -4s-34.167 -3.5 -45.5 -5.5v66
c25.333 4.66699 53.833 8.16699 85.5 10.5s64.5 3.5 98.5 3.5c36 0 66.5 -2.16699 91.5 -6.5s45.333 -11.166 61 -20.499s27.5 -21.666 35.5 -36.999s13.5 -34 16.5 -56s4.5 -47.667 4.5 -77v-321h-73l-3 72h-6c-10.667 -23.333 -25.834 -40.833 -45.501 -52.5
s-41.167 -19.167 -64.5 -22.5s-45.666 -5 -66.999 -5zM252.997 58.999c19.333 0 37.332 1.16797 53.999 3.50098s31.334 6.83301 44.001 13.5s22.667 16.667 30 30c7.33301 14 12.5 29.167 15.5 45.5s4.5 35.5 4.5 57.5v26h-170c-26 0 -46 -2 -60 -6
s-23.5 -12.333 -28.5 -25s-7.5 -31.667 -7.5 -57c0 -24.667 3 -43.334 9 -56.001s17.5 -21.167 34.5 -25.5s41.833 -6.5 74.5 -6.5zM143.996 628v80h77v-80h-77zM350.996 628v80h76v-80h-76z" />
    <glyph glyph-name="aring" unicode="&#xe5;" horiz-adv-x="569" 
d="M223 -8c-37.333 0 -68.5029 4.33203 -93.5029 12.999s-43.667 23.667 -56 45s-18.5 51.333 -18.5 90s4.5 69.167 13.5 91.5s24.833 38.166 47.5 47.499s54.334 14 95.001 14c6.66699 0 17.167 -0.166992 31.5 -0.5s30.833 -0.666016 49.5 -0.999023l56.5 -1
c19 -0.333008 36.5 -0.833008 52.5 -1.5v32c0 30 -1.83301 53.5 -5.5 70.5s-11.167 29.667 -22.5 38s-27.166 13.666 -47.499 15.999s-47.166 3.5 -80.499 3.5c-14.667 0 -32 -0.5 -52 -1.5s-39.5 -2.33301 -58.5 -4s-34.167 -3.5 -45.5 -5.5v66
c25.333 4.66699 53.833 8.16699 85.5 10.5s64.5 3.5 98.5 3.5c36 0 66.5 -2.16699 91.5 -6.5s45.333 -11.166 61 -20.499s27.5 -21.666 35.5 -36.999s13.5 -34 16.5 -56s4.5 -47.667 4.5 -77v-321h-73l-3 72h-6c-10.667 -23.333 -25.834 -40.833 -45.501 -52.5
s-41.167 -19.167 -64.5 -22.5s-45.666 -5 -66.999 -5zM252.997 58.999c19.333 0 37.332 1.16797 53.999 3.50098s31.334 6.83301 44.001 13.5s22.667 16.667 30 30c7.33301 14 12.5 29.167 15.5 45.5s4.5 35.5 4.5 57.5v26h-170c-26 0 -46 -2 -60 -6
s-23.5 -12.333 -28.5 -25s-7.5 -31.667 -7.5 -57c0 -24.667 3 -43.334 9 -56.001s17.5 -21.167 34.5 -25.5s41.833 -6.5 74.5 -6.5zM284.996 581c-30 0 -53.5 1.83301 -70.5 5.5s-29.333 9.66699 -37 18s-12.667 19.166 -15 32.499s-3.5 29.333 -3.5 48
s1.16699 34.667 3.5 48s7.33301 24.166 15 32.499s20 14.5 37 18.5s40.5 6 70.5 6c30.667 0 54.667 -2 72 -6s30 -10.167 38 -18.5s13 -19.166 15 -32.499s3 -29.333 3 -48s-1 -34.667 -3 -48s-7 -24.166 -15 -32.499s-20.667 -14.333 -38 -18s-41.333 -5.5 -72 -5.5z
M284.996 623c25.333 0 43.166 1.83301 53.499 5.5s16.666 10 18.999 19s3.5 21.5 3.5 37.5s-1.16699 28.667 -3.5 38s-8.66602 15.833 -18.999 19.5s-28.166 5.5 -53.499 5.5c-24 0 -41.167 -1.83301 -51.5 -5.5s-16.666 -10.167 -18.999 -19.5s-3.5 -22 -3.5 -38
s1.16699 -28.5 3.5 -37.5s8.66602 -15.333 18.999 -19s27.5 -5.5 51.5 -5.5z" />
    <glyph glyph-name="ae" unicode="&#xe6;" horiz-adv-x="897" 
d="M234 -8c-30 0 -56.1689 2.33301 -78.502 7s-41 12.5 -56 23.5s-26.167 26 -33.5 45s-11 43.167 -11 72.5c0 38 4.5 68 13.5 90s24.833 37.667 47.5 47s54.334 14 95.001 14h56c21.333 0 43.666 -0.166992 66.999 -0.5s45.666 -0.833008 66.999 -1.5v32
c0 30 -1.83301 53.5 -5.5 70.5s-11.167 29.667 -22.5 38s-27.166 13.666 -47.499 15.999s-47.166 3.5 -80.499 3.5c-14.667 0 -32.5 -0.5 -53.5 -1.5s-40.833 -2.33301 -59.5 -4s-33 -3.5 -43 -5.5v66c21.333 3.33301 47.833 6.5 79.5 9.5s66.5 4.5 104.5 4.5
c48 0 85.667 -4.16699 113 -12.5s47.666 -23.166 60.999 -44.499c15.333 20.667 37.166 35.334 65.499 44.001s66.5 13 114.5 13c39.333 0 71.5 -3 96.5 -9s44.833 -15.333 59.5 -28s25.334 -29.334 32.001 -50.001s11 -45.5 13 -74.5s3 -62.167 3 -99.5v-26h-348
c0 -35.333 1.66699 -64 5 -86s10.166 -39.167 20.499 -51.5s26.666 -21 48.999 -26s52.833 -7.5 91.5 -7.5c16 0 33.667 0.5 53 1.5s38.5 2.5 57.5 4.5s36.167 4 51.5 6v-66c-13.333 -2.66699 -30.166 -5 -50.499 -7s-41.666 -3.66699 -63.999 -5s-44.166 -2 -65.499 -2
c-38.667 0 -71 2.5 -97 7.5s-47.167 13.333 -63.5 25s-29.166 27.167 -38.499 46.5c-14 -24 -32.167 -41.667 -54.5 -53s-45.833 -18.5 -70.5 -21.5s-49 -4.5 -73 -4.5zM252.998 59c20 0 38.667 1.16895 56 3.50195s32.5 7.33301 45.5 15s22.833 19.167 29.5 34.5
c6 13.333 10.333 27.666 13 42.999s4 33.333 4 54v22h-170c-26 0 -46 -1.83301 -60 -5.5s-23.5 -11.5 -28.5 -23.5s-7.5 -30.333 -7.5 -55s3 -43.334 9 -56.001s17.5 -21.167 34.5 -25.5s41.833 -6.5 74.5 -6.5zM753.998 252.002c0 43.333 -1.33301 77.998 -4 103.998
s-8.33398 45.833 -17.001 59.5s-21.667 22.834 -39 27.501s-40.333 7 -69 7c-32 0 -57.333 -2.16699 -76 -6.5s-32.667 -12.166 -42 -23.499s-15.666 -27.5 -18.999 -48.5s-5 -48.833 -5 -83.5h307z" />
    <glyph glyph-name="ccedilla" unicode="&#xe7;" horiz-adv-x="460" 
d="M272 -8c-38.667 0 -70.502 3.33301 -95.502 10s-45 16.667 -60 30s-26.167 30.333 -33.5 51s-12.166 45.334 -14.499 74.001s-3.5 61.334 -3.5 98.001c0 38 1.5 71.333 4.5 100s8.66699 53.5 17 74.5s20 37.833 35 50.5s34.5 22.167 58.5 28.5s53.667 9.5 89 9.5
c23.333 0 47.833 -1.16699 73.5 -3.5s46.834 -5.5 63.501 -9.5v-66c-15.333 2.66699 -34.166 5 -56.499 7s-42.5 3 -60.5 3c-31.333 0 -56.5 -2.66699 -75.5 -8s-33.333 -15 -43 -29s-16.167 -33.667 -19.5 -59s-5 -58 -5 -98c0 -40.667 1.66699 -73.834 5 -99.501
s10.166 -45.334 20.499 -59.001s25 -23 44 -28s44.167 -7.5 75.5 -7.5c18.667 0 39 1 61 3s41.667 4.33301 59 7v-66c-16.667 -3.33301 -38 -6.33301 -64 -9s-51 -4 -75 -4zM182.998 -190v5l68 203h55v-5l-42 -203h-81z" />
    <glyph glyph-name="egrave" unicode="&#xe8;" horiz-adv-x="559" 
d="M294 -8c-41.333 0 -75.8281 2.66992 -103.495 8.00293s-49.834 14.166 -66.501 26.499s-29.334 28.666 -38.001 48.999s-14.334 45.166 -17.001 74.499s-4 64 -4 104c0 47.333 2 87.833 6 121.5s13.167 61 27.5 82s36.833 36.333 67.5 46s72 14.5 124 14.5
c39.333 0 71.5 -3 96.5 -9s44.833 -15.333 59.5 -28s25.5 -29.5 32.5 -50.5s11.5 -46 13.5 -75s3 -62.5 3 -100.5v-27h-349c0 -34.667 1.66699 -63 5 -85s10.166 -39 20.499 -51s26.666 -20.333 48.999 -25s52.833 -7 91.5 -7c16 0 33.667 0.5 53 1.5s38.666 2.5 57.999 4.5
s36.666 4 51.999 6v-66c-14 -2.66699 -31.167 -5 -51.5 -7s-41.666 -3.66699 -63.999 -5s-44.166 -2 -65.499 -2zM416.005 269.003l0.000976562 26.999c0 34.667 -2 62.167 -6 82.5s-10.833 35.666 -20.5 45.999s-22.834 17.166 -39.501 20.499s-37.334 5 -62.001 5
c-32 0 -57.333 -2.16699 -76 -6.5s-32.667 -12.166 -42 -23.499s-15.666 -27.666 -18.999 -48.999s-5 -49.666 -5 -84.999h289zM284.006 595.002l-129 135v5h88l101 -135v-5h-60z" />
    <glyph glyph-name="eacute" unicode="&#xe9;" horiz-adv-x="559" 
d="M294 -8c-41.333 0 -75.8281 2.66992 -103.495 8.00293s-49.834 14.166 -66.501 26.499s-29.334 28.666 -38.001 48.999s-14.334 45.166 -17.001 74.499s-4 64 -4 104c0 47.333 2 87.833 6 121.5s13.167 61 27.5 82s36.833 36.333 67.5 46s72 14.5 124 14.5
c39.333 0 71.5 -3 96.5 -9s44.833 -15.333 59.5 -28s25.5 -29.5 32.5 -50.5s11.5 -46 13.5 -75s3 -62.5 3 -100.5v-27h-349c0 -34.667 1.66699 -63 5 -85s10.166 -39 20.499 -51s26.666 -20.333 48.999 -25s52.833 -7 91.5 -7c16 0 33.667 0.5 53 1.5s38.666 2.5 57.999 4.5
s36.666 4 51.999 6v-66c-14 -2.66699 -31.167 -5 -51.5 -7s-41.666 -3.66699 -63.999 -5s-44.166 -2 -65.499 -2zM416.005 269.003l0.000976562 26.999c0 34.667 -2 62.167 -6 82.5s-10.833 35.666 -20.5 45.999s-22.834 17.166 -39.501 20.499s-37.334 5 -62.001 5
c-32 0 -57.333 -2.16699 -76 -6.5s-32.667 -12.166 -42 -23.499s-15.666 -27.666 -18.999 -48.999s-5 -49.666 -5 -84.999h289zM209.006 595.002v5l101 135h88v-5l-129 -135h-60z" />
    <glyph glyph-name="ecircumflex" unicode="&#xea;" horiz-adv-x="559" 
d="M294 -8c-41.333 0 -75.8281 2.66992 -103.495 8.00293s-49.834 14.166 -66.501 26.499s-29.334 28.666 -38.001 48.999s-14.334 45.166 -17.001 74.499s-4 64 -4 104c0 47.333 2 87.833 6 121.5s13.167 61 27.5 82s36.833 36.333 67.5 46s72 14.5 124 14.5
c39.333 0 71.5 -3 96.5 -9s44.833 -15.333 59.5 -28s25.5 -29.5 32.5 -50.5s11.5 -46 13.5 -75s3 -62.5 3 -100.5v-27h-349c0 -34.667 1.66699 -63 5 -85s10.166 -39 20.499 -51s26.666 -20.333 48.999 -25s52.833 -7 91.5 -7c16 0 33.667 0.5 53 1.5s38.666 2.5 57.999 4.5
s36.666 4 51.999 6v-66c-14 -2.66699 -31.167 -5 -51.5 -7s-41.666 -3.66699 -63.999 -5s-44.166 -2 -65.499 -2zM416.005 269.003l0.000976562 26.999c0 34.667 -2 62.167 -6 82.5s-10.833 35.666 -20.5 45.999s-22.834 17.166 -39.501 20.499s-37.334 5 -62.001 5
c-32 0 -57.333 -2.16699 -76 -6.5s-32.667 -12.166 -42 -23.499s-15.666 -27.666 -18.999 -48.999s-5 -49.666 -5 -84.999h289zM141.006 595.002v6l102 134h85l102 -134v-6h-56l-89 96l-88 -96h-56z" />
    <glyph glyph-name="edieresis" unicode="&#xeb;" horiz-adv-x="559" 
d="M294 -8c-41.333 0 -75.8281 2.66992 -103.495 8.00293s-49.834 14.166 -66.501 26.499s-29.334 28.666 -38.001 48.999s-14.334 45.166 -17.001 74.499s-4 64 -4 104c0 47.333 2 87.833 6 121.5s13.167 61 27.5 82s36.833 36.333 67.5 46s72 14.5 124 14.5
c39.333 0 71.5 -3 96.5 -9s44.833 -15.333 59.5 -28s25.5 -29.5 32.5 -50.5s11.5 -46 13.5 -75s3 -62.5 3 -100.5v-27h-349c0 -34.667 1.66699 -63 5 -85s10.166 -39 20.499 -51s26.666 -20.333 48.999 -25s52.833 -7 91.5 -7c16 0 33.667 0.5 53 1.5s38.666 2.5 57.999 4.5
s36.666 4 51.999 6v-66c-14 -2.66699 -31.167 -5 -51.5 -7s-41.666 -3.66699 -63.999 -5s-44.166 -2 -65.499 -2zM416.005 269.003l0.000976562 26.999c0 34.667 -2 62.167 -6 82.5s-10.833 35.666 -20.5 45.999s-22.834 17.166 -39.501 20.499s-37.334 5 -62.001 5
c-32 0 -57.333 -2.16699 -76 -6.5s-32.667 -12.166 -42 -23.499s-15.666 -27.666 -18.999 -48.999s-5 -49.666 -5 -84.999h289zM143.006 628.002v80h77v-80h-77zM350.006 628.002v80h76v-80h-76z" />
    <glyph glyph-name="igrave" unicode="&#xec;" horiz-adv-x="254" 
d="M86 0v510h82v-510h-82zM126 595l-129 135v5h88l101 -135v-5h-60z" />
    <glyph glyph-name="iacute" unicode="&#xed;" horiz-adv-x="254" 
d="M86 0v510h82v-510h-82zM51 595v5l101 135h88v-5l-129 -135h-60z" />
    <glyph glyph-name="icircumflex" unicode="&#xee;" horiz-adv-x="254" 
d="M86 0v510h82v-510h-82zM-17 595v6l102 134h85l102 -134v-6h-56l-89 96l-88 -96h-56z" />
    <glyph glyph-name="idieresis" unicode="&#xef;" horiz-adv-x="254" 
d="M86 0v510h82v-510h-82zM-15 628v80h77v-80h-77zM192 628v80h76v-80h-76z" />
    <glyph glyph-name="eth" unicode="&#xf0;" horiz-adv-x="579" 
d="M288 -8c-42 0 -76.666 2.50098 -103.999 7.50098s-49.166 13.333 -65.499 25s-28.333 27.667 -36 48s-12.5 45.333 -14.5 75s-3 65.167 -3 106.5c0 48.667 1.83301 90 5.5 124s12 61.167 25 81.5s33.333 35 61 44s65.5 13.5 113.5 13.5c29.333 0 54.5 -2.16699 75.5 -6.5
s38.5 -10.833 52.5 -19.5l5 3c-8.66699 24.667 -18.334 47.5 -29.001 68.5s-22.334 40.167 -35.001 57.5l-118 -20v56l82 13c-14 16.667 -27.5 30.667 -40.5 42l-31.5 28v4h90c7.33301 -6 16.333 -14 27 -24s22.334 -22.333 35.001 -37l107 18v-55l-71 -12
c16.667 -25.333 32.167 -55 46.5 -89s25.166 -70.667 32.499 -110c3.33301 -18 6 -36.167 8 -54.5s3.5 -36.5 4.5 -54.5s1.5 -35.667 1.5 -53c0 -45.333 -1 -83.833 -3 -115.5s-6.66699 -58.334 -14 -80.001s-19 -38.5 -35 -50.5s-37.833 -20.667 -65.5 -26
s-63.167 -8 -106.5 -8zM288.001 60.001c36 0 63.667 2.33301 83 7s33.333 13.667 42 27s13.834 32.833 15.501 58.5s2.5 59.5 2.5 101.5c0 36 -0.833008 66.333 -2.5 91s-6.83398 44.667 -15.501 60s-22.667 26.5 -42 33.5s-47 10.5 -83 10.5
c-35.333 0 -62.833 -2.33301 -82.5 -7s-33.5 -13.667 -41.5 -27s-13 -33 -15 -59s-3 -60 -3 -102s1 -75.833 3 -101.5s7 -45.167 15 -58.5s21.833 -22.333 41.5 -27s47.167 -7 82.5 -7z" />
    <glyph glyph-name="ntilde" unicode="&#xf1;" horiz-adv-x="599" 
d="M86 0l0.00292969 510.002h74l3 -73h6c7.33301 16 17.5 30 30.5 42s30.667 21.5 53 28.5s50.833 10.5 85.5 10.5c38 0 68.333 -4 91 -12s40.167 -20 52.5 -36s20.5 -36.5 24.5 -61.5s6 -54.833 6 -89.5v-319h-81v291c0 34.667 -1.5 62.167 -4.5 82.5
s-8.83301 35.666 -17.5 45.999s-21.334 17.166 -38.001 20.499s-38.667 5 -66 5c-32.667 0 -58.334 -4.16699 -77.001 -12.5s-32.334 -20.333 -41.001 -36s-14 -34.667 -16 -57s-3 -47.833 -3 -76.5v-263h-82zM128.003 602.002c0 26 1.5 47.333 4.5 64
s9.83301 29.167 20.5 37.5s27 12.5 49 12.5c18.667 0 37 -2.5 55 -7.5s36 -10.5 54 -16.5l40.5 -13c13 -4 26.167 -6 39.5 -6c14.667 0 23.5 3.83301 26.5 11.5s4.5 21.834 4.5 42.501h47c0 -26 -1.5 -47.333 -4.5 -64s-9.66699 -29.167 -20 -37.5s-26.5 -12.5 -48.5 -12.5
c-20 0 -38.5 2.66699 -55.5 8l-53.5 16c-14 4.66699 -27.667 9 -41 13s-26.333 6 -39 6c-14.667 0 -23.5 -3.83301 -26.5 -11.5s-4.5 -21.834 -4.5 -42.501h-48z" />
    <glyph glyph-name="ograve" unicode="&#xf2;" horiz-adv-x="577" 
d="M288 -8c-42 0 -76.833 2.5 -104.5 7.5s-49.5 13.167 -65.5 24.5s-27.833 27 -35.5 47s-12.5 45.167 -14.5 75.5s-3 66.5 -3 108.5s1 78.167 3 108.5s6.83301 55.5 14.5 75.5s19.5 35.667 35.5 47s37.833 19.5 65.5 24.5s62.5 7.5 104.5 7.5
c42.667 0 77.667 -2.5 105 -7.5s49.166 -13.167 65.499 -24.5s28.333 -27 36 -47s12.5 -45.167 14.5 -75.5s3 -66.5 3 -108.5s-1 -78.167 -3 -108.5s-6.83301 -55.5 -14.5 -75.5s-19.667 -35.667 -36 -47s-38.166 -19.5 -65.499 -24.5s-62.333 -7.5 -105 -7.5zM288 61
c36 0 63.667 2.33301 83 7s33.166 13.667 41.499 27s13.333 32.833 15 58.5s2.5 59.5 2.5 101.5s-0.833008 75.833 -2.5 101.5s-6.66699 45.167 -15 58.5s-22.166 22.333 -41.499 27s-47 7 -83 7c-35.333 0 -62.833 -2.33301 -82.5 -7s-33.5 -13.667 -41.5 -27
s-13 -32.833 -15 -58.5s-3 -59.5 -3 -101.5s1 -75.833 3 -101.5s7 -45.167 15 -58.5s21.833 -22.333 41.5 -27s47.167 -7 82.5 -7zM287 595l-129 135v5h88l101 -135v-5h-60z" />
    <glyph glyph-name="oacute" unicode="&#xf3;" horiz-adv-x="577" 
d="M288 -8c-42 0 -76.833 2.5 -104.5 7.5s-49.5 13.167 -65.5 24.5s-27.833 27 -35.5 47s-12.5 45.167 -14.5 75.5s-3 66.5 -3 108.5s1 78.167 3 108.5s6.83301 55.5 14.5 75.5s19.5 35.667 35.5 47s37.833 19.5 65.5 24.5s62.5 7.5 104.5 7.5
c42.667 0 77.667 -2.5 105 -7.5s49.166 -13.167 65.499 -24.5s28.333 -27 36 -47s12.5 -45.167 14.5 -75.5s3 -66.5 3 -108.5s-1 -78.167 -3 -108.5s-6.83301 -55.5 -14.5 -75.5s-19.667 -35.667 -36 -47s-38.166 -19.5 -65.499 -24.5s-62.333 -7.5 -105 -7.5zM288 61
c36 0 63.667 2.33301 83 7s33.166 13.667 41.499 27s13.333 32.833 15 58.5s2.5 59.5 2.5 101.5s-0.833008 75.833 -2.5 101.5s-6.66699 45.167 -15 58.5s-22.166 22.333 -41.499 27s-47 7 -83 7c-35.333 0 -62.833 -2.33301 -82.5 -7s-33.5 -13.667 -41.5 -27
s-13 -32.833 -15 -58.5s-3 -59.5 -3 -101.5s1 -75.833 3 -101.5s7 -45.167 15 -58.5s21.833 -22.333 41.5 -27s47.167 -7 82.5 -7zM212 595v5l101 135h88v-5l-129 -135h-60z" />
    <glyph glyph-name="ocircumflex" unicode="&#xf4;" horiz-adv-x="577" 
d="M288 -8c-42 0 -76.833 2.5 -104.5 7.5s-49.5 13.167 -65.5 24.5s-27.833 27 -35.5 47s-12.5 45.167 -14.5 75.5s-3 66.5 -3 108.5s1 78.167 3 108.5s6.83301 55.5 14.5 75.5s19.5 35.667 35.5 47s37.833 19.5 65.5 24.5s62.5 7.5 104.5 7.5
c42.667 0 77.667 -2.5 105 -7.5s49.166 -13.167 65.499 -24.5s28.333 -27 36 -47s12.5 -45.167 14.5 -75.5s3 -66.5 3 -108.5s-1 -78.167 -3 -108.5s-6.83301 -55.5 -14.5 -75.5s-19.667 -35.667 -36 -47s-38.166 -19.5 -65.499 -24.5s-62.333 -7.5 -105 -7.5zM288 61
c36 0 63.667 2.33301 83 7s33.166 13.667 41.499 27s13.333 32.833 15 58.5s2.5 59.5 2.5 101.5s-0.833008 75.833 -2.5 101.5s-6.66699 45.167 -15 58.5s-22.166 22.333 -41.499 27s-47 7 -83 7c-35.333 0 -62.833 -2.33301 -82.5 -7s-33.5 -13.667 -41.5 -27
s-13 -32.833 -15 -58.5s-3 -59.5 -3 -101.5s1 -75.833 3 -101.5s7 -45.167 15 -58.5s21.833 -22.333 41.5 -27s47.167 -7 82.5 -7zM144 595v6l102 134h85l102 -134v-6h-56l-89 96l-88 -96h-56z" />
    <glyph glyph-name="otilde" unicode="&#xf5;" horiz-adv-x="577" 
d="M288 -8c-42 0 -76.833 2.5 -104.5 7.5s-49.5 13.167 -65.5 24.5s-27.833 27 -35.5 47s-12.5 45.167 -14.5 75.5s-3 66.5 -3 108.5s1 78.167 3 108.5s6.83301 55.5 14.5 75.5s19.5 35.667 35.5 47s37.833 19.5 65.5 24.5s62.5 7.5 104.5 7.5
c42.667 0 77.667 -2.5 105 -7.5s49.166 -13.167 65.499 -24.5s28.333 -27 36 -47s12.5 -45.167 14.5 -75.5s3 -66.5 3 -108.5s-1 -78.167 -3 -108.5s-6.83301 -55.5 -14.5 -75.5s-19.667 -35.667 -36 -47s-38.166 -19.5 -65.499 -24.5s-62.333 -7.5 -105 -7.5zM288 61
c36 0 63.667 2.33301 83 7s33.166 13.667 41.499 27s13.333 32.833 15 58.5s2.5 59.5 2.5 101.5s-0.833008 75.833 -2.5 101.5s-6.66699 45.167 -15 58.5s-22.166 22.333 -41.499 27s-47 7 -83 7c-35.333 0 -62.833 -2.33301 -82.5 -7s-33.5 -13.667 -41.5 -27
s-13 -32.833 -15 -58.5s-3 -59.5 -3 -101.5s1 -75.833 3 -101.5s7 -45.167 15 -58.5s21.833 -22.333 41.5 -27s47.167 -7 82.5 -7zM117 602c0 26 1.5 47.333 4.5 64s9.83301 29.167 20.5 37.5s27 12.5 49 12.5c18.667 0 37 -2.5 55 -7.5s36 -10.5 54 -16.5l40.5 -13
c13 -4 26.167 -6 39.5 -6c14.667 0 23.5 3.83301 26.5 11.5s4.5 21.834 4.5 42.501h47c0 -26 -1.5 -47.333 -4.5 -64s-9.66699 -29.167 -20 -37.5s-26.5 -12.5 -48.5 -12.5c-20 0 -38.5 2.66699 -55.5 8l-53.5 16c-14 4.66699 -27.667 9 -41 13s-26.333 6 -39 6
c-14.667 0 -23.5 -3.83301 -26.5 -11.5s-4.5 -21.834 -4.5 -42.501h-48z" />
    <glyph glyph-name="odieresis" unicode="&#xf6;" horiz-adv-x="577" 
d="M288 -8c-42 0 -76.833 2.5 -104.5 7.5s-49.5 13.167 -65.5 24.5s-27.833 27 -35.5 47s-12.5 45.167 -14.5 75.5s-3 66.5 -3 108.5s1 78.167 3 108.5s6.83301 55.5 14.5 75.5s19.5 35.667 35.5 47s37.833 19.5 65.5 24.5s62.5 7.5 104.5 7.5
c42.667 0 77.667 -2.5 105 -7.5s49.166 -13.167 65.499 -24.5s28.333 -27 36 -47s12.5 -45.167 14.5 -75.5s3 -66.5 3 -108.5s-1 -78.167 -3 -108.5s-6.83301 -55.5 -14.5 -75.5s-19.667 -35.667 -36 -47s-38.166 -19.5 -65.499 -24.5s-62.333 -7.5 -105 -7.5zM288 61
c36 0 63.667 2.33301 83 7s33.166 13.667 41.499 27s13.333 32.833 15 58.5s2.5 59.5 2.5 101.5s-0.833008 75.833 -2.5 101.5s-6.66699 45.167 -15 58.5s-22.166 22.333 -41.499 27s-47 7 -83 7c-35.333 0 -62.833 -2.33301 -82.5 -7s-33.5 -13.667 -41.5 -27
s-13 -32.833 -15 -58.5s-3 -59.5 -3 -101.5s1 -75.833 3 -101.5s7 -45.167 15 -58.5s21.833 -22.333 41.5 -27s47.167 -7 82.5 -7zM146 628v80h77v-80h-77zM353 628v80h76v-80h-76z" />
    <glyph glyph-name="divide" unicode="&#xf7;" horiz-adv-x="540" 
d="M70 220v66h400v-66h-400zM234 26v78h72v-78h-72zM234 402v77h72v-77h-72z" />
    <glyph glyph-name="oslash" unicode="&#xf8;" horiz-adv-x="577" 
d="M65 -55l379 620h68l-381 -620h-66zM288 -8c-42 0 -76.833 2.5 -104.5 7.5s-49.5 13.167 -65.5 24.5s-27.833 27 -35.5 47s-12.5 45.167 -14.5 75.5s-3 66.5 -3 108.5s1 78.167 3 108.5s6.83301 55.5 14.5 75.5s19.5 35.667 35.5 47s37.833 19.5 65.5 24.5
s62.5 7.5 104.5 7.5c42.667 0 77.667 -2.5 105 -7.5s49.166 -13.167 65.499 -24.5s28.333 -27 36 -47s12.5 -45.167 14.5 -75.5s3 -66.5 3 -108.5s-1 -78.167 -3 -108.5s-6.83301 -55.5 -14.5 -75.5s-19.667 -35.667 -36 -47s-38.166 -19.5 -65.499 -24.5
s-62.333 -7.5 -105 -7.5zM288 61c36 0 63.667 2.33301 83 7s33.166 13.667 41.499 27s13.333 32.833 15 58.5s2.5 59.5 2.5 101.5s-0.833008 75.833 -2.5 101.5s-6.66699 45.167 -15 58.5s-22.166 22.333 -41.499 27s-47 7 -83 7c-35.333 0 -62.833 -2.33301 -82.5 -7
s-33.5 -13.667 -41.5 -27s-13 -32.833 -15 -58.5s-3 -59.5 -3 -101.5s1 -75.833 3 -101.5s7 -45.167 15 -58.5s21.833 -22.333 41.5 -27s47.167 -7 82.5 -7z" />
    <glyph glyph-name="ugrave" unicode="&#xf9;" horiz-adv-x="599" 
d="M260 -8c-37.333 0 -67.499 3.99902 -90.499 11.999s-40.5 20 -52.5 36s-20.167 36.5 -24.5 61.5s-6.5 54.833 -6.5 89.5v319h82v-291c0 -34 1.33301 -61.333 4 -82s8.5 -36.167 17.5 -46.5s21.833 -17.166 38.5 -20.499s38.334 -5 65.001 -5
c33.333 0 59.333 4.16699 78 12.5s32.167 20.333 40.5 36s13.666 34.667 15.999 57s3.5 47.833 3.5 76.5v263h81v-510h-73l-3 73h-7c-6.66699 -16 -16.5 -30 -29.5 -42s-30.833 -21.5 -53.5 -28.5s-51.334 -10.5 -86.001 -10.5zM298.001 594.999l-129 135v5h88l101 -135v-5
h-60z" />
    <glyph glyph-name="uacute" unicode="&#xfa;" horiz-adv-x="599" 
d="M260 -8c-37.333 0 -67.499 3.99902 -90.499 11.999s-40.5 20 -52.5 36s-20.167 36.5 -24.5 61.5s-6.5 54.833 -6.5 89.5v319h82v-291c0 -34 1.33301 -61.333 4 -82s8.5 -36.167 17.5 -46.5s21.833 -17.166 38.5 -20.499s38.334 -5 65.001 -5
c33.333 0 59.333 4.16699 78 12.5s32.167 20.333 40.5 36s13.666 34.667 15.999 57s3.5 47.833 3.5 76.5v263h81v-510h-73l-3 73h-7c-6.66699 -16 -16.5 -30 -29.5 -42s-30.833 -21.5 -53.5 -28.5s-51.334 -10.5 -86.001 -10.5zM223.001 594.999v5l101 135h88v-5l-129 -135
h-60z" />
    <glyph glyph-name="ucircumflex" unicode="&#xfb;" horiz-adv-x="599" 
d="M260 -8c-37.333 0 -67.499 3.99902 -90.499 11.999s-40.5 20 -52.5 36s-20.167 36.5 -24.5 61.5s-6.5 54.833 -6.5 89.5v319h82v-291c0 -34 1.33301 -61.333 4 -82s8.5 -36.167 17.5 -46.5s21.833 -17.166 38.5 -20.499s38.334 -5 65.001 -5
c33.333 0 59.333 4.16699 78 12.5s32.167 20.333 40.5 36s13.666 34.667 15.999 57s3.5 47.833 3.5 76.5v263h81v-510h-73l-3 73h-7c-6.66699 -16 -16.5 -30 -29.5 -42s-30.833 -21.5 -53.5 -28.5s-51.334 -10.5 -86.001 -10.5zM155.001 594.999v6l102 134h85l102 -134v-6
h-56l-89 96l-88 -96h-56z" />
    <glyph glyph-name="udieresis" unicode="&#xfc;" horiz-adv-x="599" 
d="M260 -8c-37.333 0 -67.499 3.99902 -90.499 11.999s-40.5 20 -52.5 36s-20.167 36.5 -24.5 61.5s-6.5 54.833 -6.5 89.5v319h82v-291c0 -34 1.33301 -61.333 4 -82s8.5 -36.167 17.5 -46.5s21.833 -17.166 38.5 -20.499s38.334 -5 65.001 -5
c33.333 0 59.333 4.16699 78 12.5s32.167 20.333 40.5 36s13.666 34.667 15.999 57s3.5 47.833 3.5 76.5v263h81v-510h-73l-3 73h-7c-6.66699 -16 -16.5 -30 -29.5 -42s-30.833 -21.5 -53.5 -28.5s-51.334 -10.5 -86.001 -10.5zM157.001 627.999v80h77v-80h-77z
M364.001 627.999v80h76v-80h-76z" />
    <glyph glyph-name="yacute" unicode="&#xfd;" horiz-adv-x="599" 
d="M282 -206c-19.333 0 -39.499 0.49707 -60.499 1.49707s-41 2 -60 3s-35.833 2.5 -50.5 4.5v65c22 -0.666992 42.167 -1.5 60.5 -2.5s35.333 -1.66699 51 -2s29.834 -0.5 42.501 -0.5c38.667 0 69.167 3 91.5 9s38.833 15.833 49.5 29.5s17.5 31.834 20.5 54.501
s4.5 50.334 4.5 83.001v30h-6c-5.33301 -13.333 -14.333 -25.666 -27 -36.999s-30 -20.333 -52 -27s-50.667 -10 -86 -10c-37.333 0 -67.5 3.83301 -90.5 11.5s-40.5 19.667 -52.5 36s-20.167 36.833 -24.5 61.5s-6.5 54 -6.5 88v318h82v-289
c0 -34.667 1.33301 -62.334 4 -83.001s8.5 -36.167 17.5 -46.5s21.833 -17.166 38.5 -20.499s38.334 -5 65.001 -5c33.333 0 59.333 4.16699 78 12.5s32.167 20.5 40.5 36.5s13.666 35.167 15.999 57.5s3.5 47.5 3.5 75.5v262h81v-447c0 -48.667 -2.5 -90.167 -7.5 -124.5
s-15.333 -62 -31 -83s-38.834 -36.5 -69.501 -46.5s-71.334 -15 -122.001 -15zM223.001 594.997v5l101 135h88v-5l-129 -135h-60z" />
    <glyph glyph-name="thorn" unicode="&#xfe;" horiz-adv-x="590" 
d="M86 -189v931.998h82v-300h5c9.33301 20 21.833 35.333 37.5 46s34.167 18.167 55.5 22.5s45 6.5 71 6.5c36.667 0 67.167 -4 91.5 -12s43.5 -21.833 57.5 -41.5s24 -46.5 30 -80.5s9 -76.667 9 -128c0 -52 -2.83301 -95.167 -8.5 -129.5s-15.5 -61.166 -29.5 -80.499
s-33 -33.166 -57 -41.499s-54.333 -12.5 -91 -12.5c-40.667 0 -75 5.16699 -103 15.5s-49 29.5 -63 57.5h-5v-254h-82zM305 64.998c30.667 0 55.166 2.00195 73.499 6.00195s32.166 12.5 41.499 25.5s15.666 32 18.999 57s5 58.833 5 101.5s-1.66699 76.667 -5 102
s-9.66602 44.333 -18.999 57s-23.166 21.167 -41.499 25.5s-42.833 6.5 -73.5 6.5c-32.667 0 -59 -4.66699 -79 -14s-34.333 -24.333 -43 -45c-7.33301 -16 -11.666 -34.833 -12.999 -56.5s-2 -46.834 -2 -75.501c0 -27.333 0.666992 -51.333 2 -72
s4.33301 -37.334 9 -50.001c9.33301 -24.667 24 -42.167 44 -52.5s47.333 -15.5 82 -15.5z" />
    <glyph glyph-name="ydieresis" unicode="&#xff;" horiz-adv-x="599" 
d="M282 -206c-19.333 0 -39.499 0.49707 -60.499 1.49707s-41 2 -60 3s-35.833 2.5 -50.5 4.5v65c22 -0.666992 42.167 -1.5 60.5 -2.5s35.333 -1.66699 51 -2s29.834 -0.5 42.501 -0.5c38.667 0 69.167 3 91.5 9s38.833 15.833 49.5 29.5s17.5 31.834 20.5 54.501
s4.5 50.334 4.5 83.001v30h-6c-5.33301 -13.333 -14.333 -25.666 -27 -36.999s-30 -20.333 -52 -27s-50.667 -10 -86 -10c-37.333 0 -67.5 3.83301 -90.5 11.5s-40.5 19.667 -52.5 36s-20.167 36.833 -24.5 61.5s-6.5 54 -6.5 88v318h82v-289
c0 -34.667 1.33301 -62.334 4 -83.001s8.5 -36.167 17.5 -46.5s21.833 -17.166 38.5 -20.499s38.334 -5 65.001 -5c33.333 0 59.333 4.16699 78 12.5s32.167 20.5 40.5 36.5s13.666 35.167 15.999 57.5s3.5 47.5 3.5 75.5v262h81v-447c0 -48.667 -2.5 -90.167 -7.5 -124.5
s-15.333 -62 -31 -83s-38.834 -36.5 -69.501 -46.5s-71.334 -15 -122.001 -15zM157.001 627.997v80h77v-80h-77zM364.001 627.997v80h76v-80h-76z" />
    <glyph glyph-name="Amacron" unicode="&#x100;" horiz-adv-x="684" 
d="M28 0l260 688h108l259 -688h-89l-71 188h-309l-71 -188h-87zM212 263h257l-126 337h-5zM197 806v57h289v-57h-289z" />
    <glyph glyph-name="amacron" unicode="&#x101;" horiz-adv-x="569" 
d="M223 -8c-37.333 0 -68.5029 4.33203 -93.5029 12.999s-43.667 23.667 -56 45s-18.5 51.333 -18.5 90s4.5 69.167 13.5 91.5s24.833 38.166 47.5 47.499s54.334 14 95.001 14c6.66699 0 17.167 -0.166992 31.5 -0.5s30.833 -0.666016 49.5 -0.999023l56.5 -1
c19 -0.333008 36.5 -0.833008 52.5 -1.5v32c0 30 -1.83301 53.5 -5.5 70.5s-11.167 29.667 -22.5 38s-27.166 13.666 -47.499 15.999s-47.166 3.5 -80.499 3.5c-14.667 0 -32 -0.5 -52 -1.5s-39.5 -2.33301 -58.5 -4s-34.167 -3.5 -45.5 -5.5v66
c25.333 4.66699 53.833 8.16699 85.5 10.5s64.5 3.5 98.5 3.5c36 0 66.5 -2.16699 91.5 -6.5s45.333 -11.166 61 -20.499s27.5 -21.666 35.5 -36.999s13.5 -34 16.5 -56s4.5 -47.667 4.5 -77v-321h-73l-3 72h-6c-10.667 -23.333 -25.834 -40.833 -45.501 -52.5
s-41.167 -19.167 -64.5 -22.5s-45.666 -5 -66.999 -5zM252.997 58.999c19.333 0 37.332 1.16797 53.999 3.50098s31.334 6.83301 44.001 13.5s22.667 16.667 30 30c7.33301 14 12.5 29.167 15.5 45.5s4.5 35.5 4.5 57.5v26h-170c-26 0 -46 -2 -60 -6
s-23.5 -12.333 -28.5 -25s-7.5 -31.667 -7.5 -57c0 -24.667 3 -43.334 9 -56.001s17.5 -21.167 34.5 -25.5s41.833 -6.5 74.5 -6.5zM141.996 628v57h289v-57h-289z" />
    <glyph glyph-name="Abreve" unicode="&#x102;" horiz-adv-x="684" 
d="M28 0l260 688h108l259 -688h-89l-71 188h-309l-71 -188h-87zM212 263h257l-126 337h-5zM341 764c-32.667 0 -58.333 3.5 -77 10.5s-32.167 17 -40.5 30s-13.666 28.167 -15.999 45.5s-3.5 36.666 -3.5 57.999h53c0 -20 1.16699 -37 3.5 -51s9.33301 -24.5 21 -31.5
s31.5 -10.5 59.5 -10.5s47.833 3.5 59.5 10.5s18.834 17.5 21.501 31.5s4 31 4 51h53c0 -21.333 -1.16699 -40.666 -3.5 -57.999s-7.83301 -32.5 -16.5 -45.5s-22.334 -23 -41.001 -30s-44.334 -10.5 -77.001 -10.5z" />
    <glyph glyph-name="abreve" unicode="&#x103;" horiz-adv-x="569" 
d="M223 -8c-37.333 0 -68.5029 4.33203 -93.5029 12.999s-43.667 23.667 -56 45s-18.5 51.333 -18.5 90s4.5 69.167 13.5 91.5s24.833 38.166 47.5 47.499s54.334 14 95.001 14c6.66699 0 17.167 -0.166992 31.5 -0.5s30.833 -0.666016 49.5 -0.999023l56.5 -1
c19 -0.333008 36.5 -0.833008 52.5 -1.5v32c0 30 -1.83301 53.5 -5.5 70.5s-11.167 29.667 -22.5 38s-27.166 13.666 -47.499 15.999s-47.166 3.5 -80.499 3.5c-14.667 0 -32 -0.5 -52 -1.5s-39.5 -2.33301 -58.5 -4s-34.167 -3.5 -45.5 -5.5v66
c25.333 4.66699 53.833 8.16699 85.5 10.5s64.5 3.5 98.5 3.5c36 0 66.5 -2.16699 91.5 -6.5s45.333 -11.166 61 -20.499s27.5 -21.666 35.5 -36.999s13.5 -34 16.5 -56s4.5 -47.667 4.5 -77v-321h-73l-3 72h-6c-10.667 -23.333 -25.834 -40.833 -45.501 -52.5
s-41.167 -19.167 -64.5 -22.5s-45.666 -5 -66.999 -5zM252.997 58.999c19.333 0 37.332 1.16797 53.999 3.50098s31.334 6.83301 44.001 13.5s22.667 16.667 30 30c7.33301 14 12.5 29.167 15.5 45.5s4.5 35.5 4.5 57.5v26h-170c-26 0 -46 -2 -60 -6
s-23.5 -12.333 -28.5 -25s-7.5 -31.667 -7.5 -57c0 -24.667 3 -43.334 9 -56.001s17.5 -21.167 34.5 -25.5s41.833 -6.5 74.5 -6.5zM284.996 586c-32.667 0 -58.333 3.66699 -77 11s-32.167 17.333 -40.5 30s-13.666 27.834 -15.999 45.501s-3.5 36.834 -3.5 57.501h53
c0 -20 1.16699 -36.833 3.5 -50.5s9.33301 -24.167 21 -31.5s31.5 -11 59.5 -11s47.833 3.66699 59.5 11s18.834 17.833 21.501 31.5s4 30.5 4 50.5h53c0 -20.667 -1.16699 -39.834 -3.5 -57.501s-7.83301 -32.834 -16.5 -45.501s-22.334 -22.667 -41.001 -30
s-44.334 -11 -77.001 -11z" />
    <glyph glyph-name="Aogonek" unicode="&#x104;" horiz-adv-x="684" 
d="M28 0l260 688h108l259 -688h-89l-71 188h-309l-71 -188h-87zM212 263h257l-126 337h-5zM618 -200c-24.667 0 -44 3.50195 -58 10.502s-23.833 16.333 -29.5 28s-8.5 24.5 -8.5 38.5c0 21.333 7 44.166 21 68.499s32 45.833 54 64.5l59 -10
c-8.66699 -6.66699 -18 -16 -28 -28s-18.333 -24.833 -25 -38.5s-10 -26.834 -10 -39.501c0 -11.333 3.33301 -20.833 10 -28.5s19 -11.5 37 -11.5h7.5c3 0 6.16699 0.333008 9.5 1v-53c-6.66699 -0.666992 -13.167 -1.16699 -19.5 -1.5s-12.833 -0.5 -19.5 -0.5z" />
    <glyph glyph-name="aogonek" unicode="&#x105;" horiz-adv-x="569" 
d="M223 -8c-37.333 0 -68.5029 4.33203 -93.5029 12.999s-43.667 23.667 -56 45s-18.5 51.333 -18.5 90s4.5 69.167 13.5 91.5s24.833 38.166 47.5 47.499s54.334 14 95.001 14c6.66699 0 17.167 -0.166992 31.5 -0.5s30.833 -0.666016 49.5 -0.999023l56.5 -1
c19 -0.333008 36.5 -0.833008 52.5 -1.5v32c0 30 -1.83301 53.5 -5.5 70.5s-11.167 29.667 -22.5 38s-27.166 13.666 -47.499 15.999s-47.166 3.5 -80.499 3.5c-14.667 0 -32 -0.5 -52 -1.5s-39.5 -2.33301 -58.5 -4s-34.167 -3.5 -45.5 -5.5v66
c25.333 4.66699 53.833 8.16699 85.5 10.5s64.5 3.5 98.5 3.5c36 0 66.5 -2.16699 91.5 -6.5s45.333 -11.166 61 -20.499s27.5 -21.666 35.5 -36.999s13.5 -34 16.5 -56s4.5 -47.667 4.5 -77v-321h-73l-3 72h-6c-10.667 -23.333 -25.834 -40.833 -45.501 -52.5
s-41.167 -19.167 -64.5 -22.5s-45.666 -5 -66.999 -5zM252.997 58.999c19.333 0 37.332 1.16797 53.999 3.50098s31.334 6.83301 44.001 13.5s22.667 16.667 30 30c7.33301 14 12.5 29.167 15.5 45.5s4.5 35.5 4.5 57.5v26h-170c-26 0 -46 -2 -60 -6
s-23.5 -12.333 -28.5 -25s-7.5 -31.667 -7.5 -57c0 -24.667 3 -43.334 9 -56.001s17.5 -21.167 34.5 -25.5s41.833 -6.5 74.5 -6.5zM443.996 -200c-24.667 0 -44 3.50195 -58 10.502s-23.833 16.333 -29.5 28s-8.5 24.5 -8.5 38.5c0 21.333 7 44.166 21 68.499
s32 45.833 54 64.5l59 -10c-8.66699 -6.66699 -18 -16 -28 -28s-18.333 -24.833 -25 -38.5s-10 -26.834 -10 -39.501c0 -11.333 3.33301 -20.833 10 -28.5s19 -11.5 37 -11.5h7.5c3 0 6.16699 0.333008 9.5 1v-53c-6.66699 -0.666992 -13.167 -1.16699 -19.5 -1.5
s-12.833 -0.5 -19.5 -0.5z" />
    <glyph glyph-name="Cacute" unicode="&#x106;" horiz-adv-x="575" 
d="M353 -8c-48 0 -88.3359 2.83496 -121.003 8.50195s-59.334 15.667 -80.001 30s-36.5 34.666 -47.5 60.999s-18.5 60.166 -22.5 101.499s-6 91.666 -6 150.999s2 109.5 6 150.5s11.5 74.667 22.5 101s26.833 46.833 47.5 61.5s47.334 24.834 80.001 30.501s73 8.5 121 8.5
c18.667 0 37.834 -0.666992 57.501 -2s38.5 -3 56.5 -5s33.667 -4.66699 47 -8v-69c-15.333 2 -31.166 3.83301 -47.499 5.5s-32.5 2.83398 -48.5 3.50098s-30.333 1 -43 1c-38.667 0 -71 -1.66699 -97 -5s-46.667 -9.83301 -62 -19.5s-26.833 -24.667 -34.5 -45
s-12.834 -47.333 -15.501 -81s-4 -76.167 -4 -127.5s1.33301 -93.833 4 -127.5s7.83398 -60.667 15.501 -81s19.167 -35.333 34.5 -45s36 -16.167 62 -19.5s58.333 -5 97 -5c22.667 0 47.334 1 74.001 3s49.667 4.33301 69 7v-71
c-14 -2.66699 -30.5 -4.83398 -49.5 -6.50098s-38.5 -3.16699 -58.5 -4.5s-39 -2 -57 -2zM278.997 773.002v5l101 135h88v-5l-129 -135h-60z" />
    <glyph glyph-name="cacute" unicode="&#x107;" horiz-adv-x="460" 
d="M272 -8c-38.667 0 -70.502 3.33301 -95.502 10s-45 16.667 -60 30s-26.167 30.333 -33.5 51s-12.166 45.334 -14.499 74.001s-3.5 61.334 -3.5 98.001c0 38 1.5 71.333 4.5 100s8.66699 53.5 17 74.5s20 37.833 35 50.5s34.5 22.167 58.5 28.5s53.667 9.5 89 9.5
c23.333 0 47.833 -1.16699 73.5 -3.5s46.834 -5.5 63.501 -9.5v-66c-15.333 2.66699 -34.166 5 -56.499 7s-42.5 3 -60.5 3c-31.333 0 -56.5 -2.66699 -75.5 -8s-33.333 -15 -43 -29s-16.167 -33.667 -19.5 -59s-5 -58 -5 -98c0 -40.667 1.66699 -73.834 5 -99.501
s10.166 -45.334 20.499 -59.001s25 -23 44 -28s44.167 -7.5 75.5 -7.5c18.667 0 39 1 61 3s41.667 4.33301 59 7v-66c-16.667 -3.33301 -38 -6.33301 -64 -9s-51 -4 -75 -4zM177.998 595v5l101 135h88v-5l-129 -135h-60z" />
    <glyph glyph-name="Ccircumflex" unicode="&#x108;" horiz-adv-x="575" 
d="M353 -8c-48 0 -88.3359 2.83496 -121.003 8.50195s-59.334 15.667 -80.001 30s-36.5 34.666 -47.5 60.999s-18.5 60.166 -22.5 101.499s-6 91.666 -6 150.999s2 109.5 6 150.5s11.5 74.667 22.5 101s26.833 46.833 47.5 61.5s47.334 24.834 80.001 30.501s73 8.5 121 8.5
c18.667 0 37.834 -0.666992 57.501 -2s38.5 -3 56.5 -5s33.667 -4.66699 47 -8v-69c-15.333 2 -31.166 3.83301 -47.499 5.5s-32.5 2.83398 -48.5 3.50098s-30.333 1 -43 1c-38.667 0 -71 -1.66699 -97 -5s-46.667 -9.83301 -62 -19.5s-26.833 -24.667 -34.5 -45
s-12.834 -47.333 -15.501 -81s-4 -76.167 -4 -127.5s1.33301 -93.833 4 -127.5s7.83398 -60.667 15.501 -81s19.167 -35.333 34.5 -45s36 -16.167 62 -19.5s58.333 -5 97 -5c22.667 0 47.334 1 74.001 3s49.667 4.33301 69 7v-71
c-14 -2.66699 -30.5 -4.83398 -49.5 -6.50098s-38.5 -3.16699 -58.5 -4.5s-39 -2 -57 -2zM186.997 773.002v6l102 135h85l102 -135v-6h-56l-89 97l-88 -97h-56z" />
    <glyph glyph-name="ccircumflex" unicode="&#x109;" horiz-adv-x="460" 
d="M272 -8c-38.667 0 -70.502 3.33301 -95.502 10s-45 16.667 -60 30s-26.167 30.333 -33.5 51s-12.166 45.334 -14.499 74.001s-3.5 61.334 -3.5 98.001c0 38 1.5 71.333 4.5 100s8.66699 53.5 17 74.5s20 37.833 35 50.5s34.5 22.167 58.5 28.5s53.667 9.5 89 9.5
c23.333 0 47.833 -1.16699 73.5 -3.5s46.834 -5.5 63.501 -9.5v-66c-15.333 2.66699 -34.166 5 -56.499 7s-42.5 3 -60.5 3c-31.333 0 -56.5 -2.66699 -75.5 -8s-33.333 -15 -43 -29s-16.167 -33.667 -19.5 -59s-5 -58 -5 -98c0 -40.667 1.66699 -73.834 5 -99.501
s10.166 -45.334 20.499 -59.001s25 -23 44 -28s44.167 -7.5 75.5 -7.5c18.667 0 39 1 61 3s41.667 4.33301 59 7v-66c-16.667 -3.33301 -38 -6.33301 -64 -9s-51 -4 -75 -4zM109.998 595v6l102 134h85l102 -134v-6h-56l-89 96l-88 -96h-56z" />
    <glyph glyph-name="Cdotaccent" unicode="&#x10a;" horiz-adv-x="575" 
d="M353 -8c-48 0 -88.3359 2.83496 -121.003 8.50195s-59.334 15.667 -80.001 30s-36.5 34.666 -47.5 60.999s-18.5 60.166 -22.5 101.499s-6 91.666 -6 150.999s2 109.5 6 150.5s11.5 74.667 22.5 101s26.833 46.833 47.5 61.5s47.334 24.834 80.001 30.501s73 8.5 121 8.5
c18.667 0 37.834 -0.666992 57.501 -2s38.5 -3 56.5 -5s33.667 -4.66699 47 -8v-69c-15.333 2 -31.166 3.83301 -47.499 5.5s-32.5 2.83398 -48.5 3.50098s-30.333 1 -43 1c-38.667 0 -71 -1.66699 -97 -5s-46.667 -9.83301 -62 -19.5s-26.833 -24.667 -34.5 -45
s-12.834 -47.333 -15.501 -81s-4 -76.167 -4 -127.5s1.33301 -93.833 4 -127.5s7.83398 -60.667 15.501 -81s19.167 -35.333 34.5 -45s36 -16.167 62 -19.5s58.333 -5 97 -5c22.667 0 47.334 1 74.001 3s49.667 4.33301 69 7v-71
c-14 -2.66699 -30.5 -4.83398 -49.5 -6.50098s-38.5 -3.16699 -58.5 -4.5s-39 -2 -57 -2zM292.997 806.002v81h77v-81h-77z" />
    <glyph glyph-name="cdotaccent" unicode="&#x10b;" horiz-adv-x="460" 
d="M272 -8c-38.667 0 -70.502 3.33301 -95.502 10s-45 16.667 -60 30s-26.167 30.333 -33.5 51s-12.166 45.334 -14.499 74.001s-3.5 61.334 -3.5 98.001c0 38 1.5 71.333 4.5 100s8.66699 53.5 17 74.5s20 37.833 35 50.5s34.5 22.167 58.5 28.5s53.667 9.5 89 9.5
c23.333 0 47.833 -1.16699 73.5 -3.5s46.834 -5.5 63.501 -9.5v-66c-15.333 2.66699 -34.166 5 -56.499 7s-42.5 3 -60.5 3c-31.333 0 -56.5 -2.66699 -75.5 -8s-33.333 -15 -43 -29s-16.167 -33.667 -19.5 -59s-5 -58 -5 -98c0 -40.667 1.66699 -73.834 5 -99.501
s10.166 -45.334 20.499 -59.001s25 -23 44 -28s44.167 -7.5 75.5 -7.5c18.667 0 39 1 61 3s41.667 4.33301 59 7v-66c-16.667 -3.33301 -38 -6.33301 -64 -9s-51 -4 -75 -4zM215.998 628v80h77v-80h-77z" />
    <glyph glyph-name="Ccaron" unicode="&#x10c;" horiz-adv-x="575" 
d="M353 -8c-48 0 -88.3359 2.83496 -121.003 8.50195s-59.334 15.667 -80.001 30s-36.5 34.666 -47.5 60.999s-18.5 60.166 -22.5 101.499s-6 91.666 -6 150.999s2 109.5 6 150.5s11.5 74.667 22.5 101s26.833 46.833 47.5 61.5s47.334 24.834 80.001 30.501s73 8.5 121 8.5
c18.667 0 37.834 -0.666992 57.501 -2s38.5 -3 56.5 -5s33.667 -4.66699 47 -8v-69c-15.333 2 -31.166 3.83301 -47.499 5.5s-32.5 2.83398 -48.5 3.50098s-30.333 1 -43 1c-38.667 0 -71 -1.66699 -97 -5s-46.667 -9.83301 -62 -19.5s-26.833 -24.667 -34.5 -45
s-12.834 -47.333 -15.501 -81s-4 -76.167 -4 -127.5s1.33301 -93.833 4 -127.5s7.83398 -60.667 15.501 -81s19.167 -35.333 34.5 -45s36 -16.167 62 -19.5s58.333 -5 97 -5c22.667 0 47.334 1 74.001 3s49.667 4.33301 69 7v-71
c-14 -2.66699 -30.5 -4.83398 -49.5 -6.50098s-38.5 -3.16699 -58.5 -4.5s-39 -2 -57 -2zM288.997 773.002l-102 134v6h56l88 -97l89 97h56v-6l-102 -134h-85z" />
    <glyph glyph-name="ccaron" unicode="&#x10d;" horiz-adv-x="460" 
d="M272 -8c-38.667 0 -70.502 3.33301 -95.502 10s-45 16.667 -60 30s-26.167 30.333 -33.5 51s-12.166 45.334 -14.499 74.001s-3.5 61.334 -3.5 98.001c0 38 1.5 71.333 4.5 100s8.66699 53.5 17 74.5s20 37.833 35 50.5s34.5 22.167 58.5 28.5s53.667 9.5 89 9.5
c23.333 0 47.833 -1.16699 73.5 -3.5s46.834 -5.5 63.501 -9.5v-66c-15.333 2.66699 -34.166 5 -56.499 7s-42.5 3 -60.5 3c-31.333 0 -56.5 -2.66699 -75.5 -8s-33.333 -15 -43 -29s-16.167 -33.667 -19.5 -59s-5 -58 -5 -98c0 -40.667 1.66699 -73.834 5 -99.501
s10.166 -45.334 20.499 -59.001s25 -23 44 -28s44.167 -7.5 75.5 -7.5c18.667 0 39 1 61 3s41.667 4.33301 59 7v-66c-16.667 -3.33301 -38 -6.33301 -64 -9s-51 -4 -75 -4zM211.998 595l-102 134v6h56l88 -97l89 97h56v-6l-102 -134h-85z" />
    <glyph glyph-name="Dcaron" unicode="&#x10e;" horiz-adv-x="689" 
d="M100 0v688h218c56.667 0 103 -2.66699 139 -8s64.5 -15 85.5 -29s36.5 -34 46.5 -60s16.333 -59 19 -99s4 -89.333 4 -148s-1.33301 -108 -4 -148s-9 -73 -19 -99s-25.5 -46 -46.5 -60s-49.5 -23.667 -85.5 -29s-82.333 -8 -139 -8h-218zM186 74l118.001 0.000976562
c42 0 76.667 1 104 3s49 7.16699 65 15.5s27.667 22 35 41s12.166 45.5 14.499 79.5s3.5 77.667 3.5 131s-1.16699 96.833 -3.5 130.5s-7.33301 60.167 -15 79.5s-19.5 33.166 -35.5 41.499s-37.5 13.5 -64.5 15.5s-61.5 3 -103.5 3h-118v-540zM302.001 773.001l-102 134v6
h56l88 -97l89 97h56v-6l-102 -134h-85z" />
    <glyph glyph-name="dcaron" unicode="&#x10f;" horiz-adv-x="590" 
d="M253 -8c-36.667 0 -67.166 4.00391 -91.499 12.0039s-43.5 21.833 -57.5 41.5s-24 46.5 -30 80.5s-9 76.667 -9 128c0 52 2.83301 95.167 8.5 129.5s15.5 61.166 29.5 80.499s33 33.166 57 41.499s54.333 12.5 91 12.5c27.333 0 51.666 -2.16699 72.999 -6.5
s39.833 -11.833 55.5 -22.5s28.167 -25.334 37.5 -44.001h5v298h82v-743h-73l-4 73h-6c-9.33301 -23.333 -22.833 -40.833 -40.5 -52.5s-37.5 -19.334 -59.5 -23.001s-44.667 -5.5 -68 -5.5zM285.001 64.0039c34 0 61.001 4.66699 81.001 14s34 24 42 44
c6.66699 18.667 10.667 39 12 61s2 48 2 78c0 24.667 -0.666992 47.167 -2 67.5s-5 38.166 -11 53.499c-8.66699 22.667 -23 38.834 -43 48.501s-47.667 14.5 -83 14.5c-30 0 -54 -2 -72 -6s-31.667 -12.5 -41 -25.5s-15.666 -32 -18.999 -57s-5 -58.833 -5 -101.5
s1.66699 -76.667 5 -102s9.66602 -44.333 18.999 -57s23.166 -21.167 41.499 -25.5s42.833 -6.5 73.5 -6.5zM534.002 444.004l14 168v76h71v-76l-34 -168h-51z" />
    <glyph glyph-name="Dcroat" unicode="&#x110;" horiz-adv-x="689" 
d="M100 0v314h-69v69h69v305h218c56.667 0 103 -2.66699 139 -8s64.5 -15 85.5 -29s36.5 -34 46.5 -60s16.333 -59 19 -99s4 -89.333 4 -148s-1.33301 -108 -4 -148s-9 -73 -19 -99s-25.5 -46 -46.5 -60s-49.5 -23.667 -85.5 -29s-82.333 -8 -139 -8h-218zM186 74
l118.001 0.000976562c42 0 76.667 1 104 3s49 7.16699 65 15.5s27.667 22 35 41s12.166 45.5 14.499 79.5s3.5 77.667 3.5 131s-1.16699 96.833 -3.5 130.5s-7.33301 60.167 -15 79.5s-19.5 33.166 -35.5 41.499s-37.5 13.5 -64.5 15.5s-61.5 3 -103.5 3h-118v-231h110v-69
h-110v-240z" />
    <glyph glyph-name="dcroat" unicode="&#x111;" horiz-adv-x="590" 
d="M286 633v55h284v-55h-284zM253 -8c-36.667 0 -67.166 4.00391 -91.499 12.0039s-43.5 21.833 -57.5 41.5s-24 46.5 -30 80.5s-9 76.667 -9 128c0 52 2.83301 95.167 8.5 129.5s15.5 61.166 29.5 80.499s33 33.166 57 41.499s54.333 12.5 91 12.5
c27.333 0 51.666 -2.16699 72.999 -6.5s39.833 -11.833 55.5 -22.5s28.167 -25.334 37.5 -44.001h5v298h82v-743h-73l-4 73h-6c-9.33301 -23.333 -22.833 -40.833 -40.5 -52.5s-37.5 -19.334 -59.5 -23.001s-44.667 -5.5 -68 -5.5zM285.001 64.0039
c34 0 61.001 4.66699 81.001 14s34 24 42 44c6.66699 18.667 10.667 39 12 61s2 48 2 78c0 24.667 -0.666992 47.167 -2 67.5s-5 38.166 -11 53.499c-8.66699 22.667 -23 38.834 -43 48.501s-47.667 14.5 -83 14.5c-30 0 -54 -2 -72 -6s-31.667 -12.5 -41 -25.5
s-15.666 -32 -18.999 -57s-5 -58.833 -5 -101.5s1.66699 -76.667 5 -102s9.66602 -44.333 18.999 -57s23.166 -21.167 41.499 -25.5s42.833 -6.5 73.5 -6.5z" />
    <glyph glyph-name="Emacron" unicode="&#x112;" horiz-adv-x="603" 
d="M100 0v688h447v-74h-361v-229h314v-75h-314v-236h361v-74h-447zM185 806v57h289v-57h-289z" />
    <glyph glyph-name="emacron" unicode="&#x113;" horiz-adv-x="559" 
d="M294 -8c-41.333 0 -75.8281 2.66992 -103.495 8.00293s-49.834 14.166 -66.501 26.499s-29.334 28.666 -38.001 48.999s-14.334 45.166 -17.001 74.499s-4 64 -4 104c0 47.333 2 87.833 6 121.5s13.167 61 27.5 82s36.833 36.333 67.5 46s72 14.5 124 14.5
c39.333 0 71.5 -3 96.5 -9s44.833 -15.333 59.5 -28s25.5 -29.5 32.5 -50.5s11.5 -46 13.5 -75s3 -62.5 3 -100.5v-27h-349c0 -34.667 1.66699 -63 5 -85s10.166 -39 20.499 -51s26.666 -20.333 48.999 -25s52.833 -7 91.5 -7c16 0 33.667 0.5 53 1.5s38.666 2.5 57.999 4.5
s36.666 4 51.999 6v-66c-14 -2.66699 -31.167 -5 -51.5 -7s-41.666 -3.66699 -63.999 -5s-44.166 -2 -65.499 -2zM416.005 269.003l0.000976562 26.999c0 34.667 -2 62.167 -6 82.5s-10.833 35.666 -20.5 45.999s-22.834 17.166 -39.501 20.499s-37.334 5 -62.001 5
c-32 0 -57.333 -2.16699 -76 -6.5s-32.667 -12.166 -42 -23.499s-15.666 -27.666 -18.999 -48.999s-5 -49.666 -5 -84.999h289zM141.006 628.002v57h289v-57h-289z" />
    <glyph glyph-name="Ebreve" unicode="&#x114;" horiz-adv-x="603" 
d="M100 0v688h447v-74h-361v-229h314v-75h-314v-236h361v-74h-447zM329 764c-32.667 0 -58.333 3.5 -77 10.5s-32.167 17 -40.5 30s-13.666 28.167 -15.999 45.5s-3.5 36.666 -3.5 57.999h53c0 -20 1.16699 -37 3.5 -51s9.33301 -24.5 21 -31.5s31.5 -10.5 59.5 -10.5
s47.833 3.5 59.5 10.5s18.834 17.5 21.501 31.5s4 31 4 51h53c0 -21.333 -1.16699 -40.666 -3.5 -57.999s-7.83301 -32.5 -16.5 -45.5s-22.334 -23 -41.001 -30s-44.334 -10.5 -77.001 -10.5z" />
    <glyph glyph-name="ebreve" unicode="&#x115;" horiz-adv-x="559" 
d="M294 -8c-41.333 0 -75.8281 2.66992 -103.495 8.00293s-49.834 14.166 -66.501 26.499s-29.334 28.666 -38.001 48.999s-14.334 45.166 -17.001 74.499s-4 64 -4 104c0 47.333 2 87.833 6 121.5s13.167 61 27.5 82s36.833 36.333 67.5 46s72 14.5 124 14.5
c39.333 0 71.5 -3 96.5 -9s44.833 -15.333 59.5 -28s25.5 -29.5 32.5 -50.5s11.5 -46 13.5 -75s3 -62.5 3 -100.5v-27h-349c0 -34.667 1.66699 -63 5 -85s10.166 -39 20.499 -51s26.666 -20.333 48.999 -25s52.833 -7 91.5 -7c16 0 33.667 0.5 53 1.5s38.666 2.5 57.999 4.5
s36.666 4 51.999 6v-66c-14 -2.66699 -31.167 -5 -51.5 -7s-41.666 -3.66699 -63.999 -5s-44.166 -2 -65.499 -2zM416.005 269.003l0.000976562 26.999c0 34.667 -2 62.167 -6 82.5s-10.833 35.666 -20.5 45.999s-22.834 17.166 -39.501 20.499s-37.334 5 -62.001 5
c-32 0 -57.333 -2.16699 -76 -6.5s-32.667 -12.166 -42 -23.499s-15.666 -27.666 -18.999 -48.999s-5 -49.666 -5 -84.999h289zM284.006 586.002c-32.667 0 -58.333 3.66699 -77 11s-32.167 17.333 -40.5 30s-13.666 27.834 -15.999 45.501s-3.5 36.834 -3.5 57.501h53
c0 -20 1.16699 -36.833 3.5 -50.5s9.33301 -24.167 21 -31.5s31.5 -11 59.5 -11s47.833 3.66699 59.5 11s18.834 17.833 21.501 31.5s4 30.5 4 50.5h53c0 -20.667 -1.16699 -39.834 -3.5 -57.501s-7.83301 -32.834 -16.5 -45.501s-22.334 -22.667 -41.001 -30
s-44.334 -11 -77.001 -11z" />
    <glyph glyph-name="Edotaccent" unicode="&#x116;" horiz-adv-x="603" 
d="M100 0v688h447v-74h-361v-229h314v-75h-314v-236h361v-74h-447zM291 806v81h77v-81h-77z" />
    <glyph glyph-name="edotaccent" unicode="&#x117;" horiz-adv-x="559" 
d="M294 -8c-41.333 0 -75.8281 2.66992 -103.495 8.00293s-49.834 14.166 -66.501 26.499s-29.334 28.666 -38.001 48.999s-14.334 45.166 -17.001 74.499s-4 64 -4 104c0 47.333 2 87.833 6 121.5s13.167 61 27.5 82s36.833 36.333 67.5 46s72 14.5 124 14.5
c39.333 0 71.5 -3 96.5 -9s44.833 -15.333 59.5 -28s25.5 -29.5 32.5 -50.5s11.5 -46 13.5 -75s3 -62.5 3 -100.5v-27h-349c0 -34.667 1.66699 -63 5 -85s10.166 -39 20.499 -51s26.666 -20.333 48.999 -25s52.833 -7 91.5 -7c16 0 33.667 0.5 53 1.5s38.666 2.5 57.999 4.5
s36.666 4 51.999 6v-66c-14 -2.66699 -31.167 -5 -51.5 -7s-41.666 -3.66699 -63.999 -5s-44.166 -2 -65.499 -2zM416.005 269.003l0.000976562 26.999c0 34.667 -2 62.167 -6 82.5s-10.833 35.666 -20.5 45.999s-22.834 17.166 -39.501 20.499s-37.334 5 -62.001 5
c-32 0 -57.333 -2.16699 -76 -6.5s-32.667 -12.166 -42 -23.499s-15.666 -27.666 -18.999 -48.999s-5 -49.666 -5 -84.999h289zM247.006 628.002v80h77v-80h-77z" />
    <glyph glyph-name="Eogonek" unicode="&#x118;" horiz-adv-x="603" 
d="M100 0v688h447v-74h-361v-229h314v-75h-314v-236h361v-74h-447zM509 -200c-24.667 0 -44 3.50195 -58 10.502s-23.833 16.333 -29.5 28s-8.5 24.5 -8.5 38.5c0 21.333 7 44.166 21 68.499s32 45.833 54 64.5l59 -10c-8.66699 -6.66699 -18 -16 -28 -28
s-18.333 -24.833 -25 -38.5s-10 -26.834 -10 -39.501c0 -11.333 3.33301 -20.833 10 -28.5s19 -11.5 37 -11.5h7.5c3 0 6.16699 0.333008 9.5 1v-53c-6.66699 -0.666992 -13.167 -1.16699 -19.5 -1.5s-12.833 -0.5 -19.5 -0.5z" />
    <glyph glyph-name="eogonek" unicode="&#x119;" horiz-adv-x="559" 
d="M294 -8c-41.333 0 -75.8281 2.66992 -103.495 8.00293s-49.834 14.166 -66.501 26.499s-29.334 28.666 -38.001 48.999s-14.334 45.166 -17.001 74.499s-4 64 -4 104c0 47.333 2 87.833 6 121.5s13.167 61 27.5 82s36.833 36.333 67.5 46s72 14.5 124 14.5
c39.333 0 71.5 -3 96.5 -9s44.833 -15.333 59.5 -28s25.5 -29.5 32.5 -50.5s11.5 -46 13.5 -75s3 -62.5 3 -100.5v-27h-349c0 -34.667 1.66699 -63 5 -85s10.166 -39 20.499 -51s26.666 -20.333 48.999 -25s52.833 -7 91.5 -7c16 0 33.667 0.5 53 1.5s38.666 2.5 57.999 4.5
s36.666 4 51.999 6v-66c-14 -2.66699 -31.167 -5 -51.5 -7s-41.666 -3.66699 -63.999 -5s-44.166 -2 -65.499 -2zM416.005 269.003l0.000976562 26.999c0 34.667 -2 62.167 -6 82.5s-10.833 35.666 -20.5 45.999s-22.834 17.166 -39.501 20.499s-37.334 5 -62.001 5
c-32 0 -57.333 -2.16699 -76 -6.5s-32.667 -12.166 -42 -23.499s-15.666 -27.666 -18.999 -48.999s-5 -49.666 -5 -84.999h289zM437.006 -193.998c-24.667 0 -44 3.50195 -58 10.502s-23.833 16.333 -29.5 28s-8.5 24.5 -8.5 38.5c0 21.333 7 44.166 21 68.499
s32 45.833 54 64.5l59 -10c-8.66699 -6.66699 -18 -16 -28 -28s-18.333 -24.833 -25 -38.5s-10 -26.834 -10 -39.501c0 -11.333 3.33301 -20.833 10 -28.5s19 -11.5 37 -11.5h7.5c3 0 6.16699 0.333008 9.5 1v-53c-6.66699 -0.666992 -13.167 -1.16699 -19.5 -1.5
s-12.833 -0.5 -19.5 -0.5z" />
    <glyph glyph-name="Ecaron" unicode="&#x11a;" horiz-adv-x="603" 
d="M100 0v688h447v-74h-361v-229h314v-75h-314v-236h361v-74h-447zM287 773l-102 134v6h56l88 -97l89 97h56v-6l-102 -134h-85z" />
    <glyph glyph-name="ecaron" unicode="&#x11b;" horiz-adv-x="559" 
d="M294 -8c-41.333 0 -75.8281 2.66992 -103.495 8.00293s-49.834 14.166 -66.501 26.499s-29.334 28.666 -38.001 48.999s-14.334 45.166 -17.001 74.499s-4 64 -4 104c0 47.333 2 87.833 6 121.5s13.167 61 27.5 82s36.833 36.333 67.5 46s72 14.5 124 14.5
c39.333 0 71.5 -3 96.5 -9s44.833 -15.333 59.5 -28s25.5 -29.5 32.5 -50.5s11.5 -46 13.5 -75s3 -62.5 3 -100.5v-27h-349c0 -34.667 1.66699 -63 5 -85s10.166 -39 20.499 -51s26.666 -20.333 48.999 -25s52.833 -7 91.5 -7c16 0 33.667 0.5 53 1.5s38.666 2.5 57.999 4.5
s36.666 4 51.999 6v-66c-14 -2.66699 -31.167 -5 -51.5 -7s-41.666 -3.66699 -63.999 -5s-44.166 -2 -65.499 -2zM416.005 269.003l0.000976562 26.999c0 34.667 -2 62.167 -6 82.5s-10.833 35.666 -20.5 45.999s-22.834 17.166 -39.501 20.499s-37.334 5 -62.001 5
c-32 0 -57.333 -2.16699 -76 -6.5s-32.667 -12.166 -42 -23.499s-15.666 -27.666 -18.999 -48.999s-5 -49.666 -5 -84.999h289zM243.006 595.002l-102 134v6h56l88 -97l89 97h56v-6l-102 -134h-85z" />
    <glyph glyph-name="Gcircumflex" unicode="&#x11c;" horiz-adv-x="676" 
d="M368 -8c-48.667 0 -89.999 2.83594 -123.999 8.50293s-61.833 15.834 -83.5 30.501s-38.667 35.167 -51 61.5s-21 60 -26 101s-7.5 91.167 -7.5 150.5s2.5 109.5 7.5 150.5s13.833 74.667 26.5 101s30 46.833 52 61.5s49.833 24.834 83.5 30.501s74.5 8.5 122.5 8.5
c22.667 0 47 -1 73 -3s51.5 -4.33301 76.5 -7s47.5 -6 67.5 -10v-70c-21.333 3.33301 -43 6.16602 -65 8.49902s-42.5 4.16602 -61.5 5.49902s-35.167 2 -48.5 2c-41.333 0 -76.5 -1 -105.5 -3s-52.833 -7.33301 -71.5 -16s-33 -22.834 -43 -42.501
s-17.167 -46.834 -21.5 -81.501s-6.5 -79.667 -6.5 -135c0 -48.667 1.33301 -89.5 4 -122.5s8.16699 -59.833 16.5 -80.5s20 -36.667 35 -48s35 -18.833 60 -22.5s55.833 -5.5 92.5 -5.5c14 0 29.333 0.333008 46 1s33 1.66699 49 3s29.333 2.66602 40 3.99902v224h-156v73
h239v-358c-22 -4 -46.167 -7.5 -72.5 -10.5s-52.333 -5.33301 -78 -7s-48.834 -2.5 -69.501 -2.5zM214.001 773.003v6l102 135h85l102 -135v-6h-56l-89 97l-88 -97h-56z" />
    <glyph glyph-name="gcircumflex" unicode="&#x11d;" horiz-adv-x="590" 
d="M273 -206c-21.333 0 -43.1689 0.503906 -65.502 1.50391s-43.5 2.16699 -63.5 3.5s-37 2.66602 -51 3.99902v66c16 -1.33301 33.667 -2.5 53 -3.5s38.5 -1.66699 57.5 -2s36.167 -0.5 51.5 -0.5c38.667 0 69 2.66699 91 8s38.667 14.666 50 27.999s18.5 32 21.5 56
s4.5 54.667 4.5 92v21h-5c-8.66699 -18.667 -20.667 -33.334 -36 -44.001s-33.666 -18.167 -54.999 -22.5s-45.666 -6.5 -72.999 -6.5c-37.333 0 -68.166 4 -92.499 12s-43.5 21.5 -57.5 40.5s-23.833 45.5 -29.5 79.5s-8.5 76.667 -8.5 128c0 52 3 95 9 129
s16 60.667 30 80s33.167 33.166 57.5 41.499s55.166 12.5 92.499 12.5c22.667 0 45 -1.83301 67 -5.5s41.833 -11.5 59.5 -23.5s31.167 -29.333 40.5 -52h6l4 73h73v-444c0 -49.333 -2.5 -91.333 -7.5 -126s-15.167 -62.667 -30.5 -84s-38.333 -37 -69 -47s-72 -15 -124 -15
zM284.997 66.0039c33.333 0 59.666 4.50098 78.999 13.501s33.333 23.167 42 42.5c7.33301 16 11.833 35 13.5 57s2.5 47.667 2.5 77c0 28 -0.666992 52.833 -2 74.5s-5.66602 40.167 -12.999 55.5c-8.66699 21.333 -23 36.666 -43 45.999s-46.333 14 -79 14
c-30.667 0 -55.167 -2.16699 -73.5 -6.5s-32.166 -12.833 -41.499 -25.5s-15.666 -31.667 -18.999 -57s-5 -59 -5 -101s1.66699 -75.667 5 -101s9.66602 -44.333 18.999 -57s23.166 -21.167 41.499 -25.5s42.833 -6.5 73.5 -6.5zM150.997 595.005v6l102 134h85l102 -134v-6
h-56l-89 96l-88 -96h-56z" />
    <glyph glyph-name="Gbreve" unicode="&#x11e;" horiz-adv-x="676" 
d="M368 -8c-48.667 0 -89.999 2.83594 -123.999 8.50293s-61.833 15.834 -83.5 30.501s-38.667 35.167 -51 61.5s-21 60 -26 101s-7.5 91.167 -7.5 150.5s2.5 109.5 7.5 150.5s13.833 74.667 26.5 101s30 46.833 52 61.5s49.833 24.834 83.5 30.501s74.5 8.5 122.5 8.5
c22.667 0 47 -1 73 -3s51.5 -4.33301 76.5 -7s47.5 -6 67.5 -10v-70c-21.333 3.33301 -43 6.16602 -65 8.49902s-42.5 4.16602 -61.5 5.49902s-35.167 2 -48.5 2c-41.333 0 -76.5 -1 -105.5 -3s-52.833 -7.33301 -71.5 -16s-33 -22.834 -43 -42.501
s-17.167 -46.834 -21.5 -81.501s-6.5 -79.667 -6.5 -135c0 -48.667 1.33301 -89.5 4 -122.5s8.16699 -59.833 16.5 -80.5s20 -36.667 35 -48s35 -18.833 60 -22.5s55.833 -5.5 92.5 -5.5c14 0 29.333 0.333008 46 1s33 1.66699 49 3s29.333 2.66602 40 3.99902v224h-156v73
h239v-358c-22 -4 -46.167 -7.5 -72.5 -10.5s-52.333 -5.33301 -78 -7s-48.834 -2.5 -69.501 -2.5zM357.001 764.003c-32.667 0 -58.333 3.5 -77 10.5s-32.167 17 -40.5 30s-13.666 28.167 -15.999 45.5s-3.5 36.666 -3.5 57.999h53c0 -20 1.16699 -37 3.5 -51
s9.33301 -24.5 21 -31.5s31.5 -10.5 59.5 -10.5s47.833 3.5 59.5 10.5s18.834 17.5 21.501 31.5s4 31 4 51h53c0 -21.333 -1.16699 -40.666 -3.5 -57.999s-7.83301 -32.5 -16.5 -45.5s-22.334 -23 -41.001 -30s-44.334 -10.5 -77.001 -10.5z" />
    <glyph glyph-name="gbreve" unicode="&#x11f;" horiz-adv-x="590" 
d="M273 -206c-21.333 0 -43.1689 0.503906 -65.502 1.50391s-43.5 2.16699 -63.5 3.5s-37 2.66602 -51 3.99902v66c16 -1.33301 33.667 -2.5 53 -3.5s38.5 -1.66699 57.5 -2s36.167 -0.5 51.5 -0.5c38.667 0 69 2.66699 91 8s38.667 14.666 50 27.999s18.5 32 21.5 56
s4.5 54.667 4.5 92v21h-5c-8.66699 -18.667 -20.667 -33.334 -36 -44.001s-33.666 -18.167 -54.999 -22.5s-45.666 -6.5 -72.999 -6.5c-37.333 0 -68.166 4 -92.499 12s-43.5 21.5 -57.5 40.5s-23.833 45.5 -29.5 79.5s-8.5 76.667 -8.5 128c0 52 3 95 9 129
s16 60.667 30 80s33.167 33.166 57.5 41.499s55.166 12.5 92.499 12.5c22.667 0 45 -1.83301 67 -5.5s41.833 -11.5 59.5 -23.5s31.167 -29.333 40.5 -52h6l4 73h73v-444c0 -49.333 -2.5 -91.333 -7.5 -126s-15.167 -62.667 -30.5 -84s-38.333 -37 -69 -47s-72 -15 -124 -15
zM284.997 66.0039c33.333 0 59.666 4.50098 78.999 13.501s33.333 23.167 42 42.5c7.33301 16 11.833 35 13.5 57s2.5 47.667 2.5 77c0 28 -0.666992 52.833 -2 74.5s-5.66602 40.167 -12.999 55.5c-8.66699 21.333 -23 36.666 -43 45.999s-46.333 14 -79 14
c-30.667 0 -55.167 -2.16699 -73.5 -6.5s-32.166 -12.833 -41.499 -25.5s-15.666 -31.667 -18.999 -57s-5 -59 -5 -101s1.66699 -75.667 5 -101s9.66602 -44.333 18.999 -57s23.166 -21.167 41.499 -25.5s42.833 -6.5 73.5 -6.5zM293.997 586.005
c-32.667 0 -58.333 3.66699 -77 11s-32.167 17.333 -40.5 30s-13.666 27.834 -15.999 45.501s-3.5 36.834 -3.5 57.501h53c0 -20 1.16699 -36.833 3.5 -50.5s9.33301 -24.167 21 -31.5s31.5 -11 59.5 -11s47.833 3.66699 59.5 11s18.834 17.833 21.501 31.5s4 30.5 4 50.5
h53c0 -20.667 -1.16699 -39.834 -3.5 -57.501s-7.83301 -32.834 -16.5 -45.501s-22.334 -22.667 -41.001 -30s-44.334 -11 -77.001 -11z" />
    <glyph glyph-name="Gdotaccent" unicode="&#x120;" horiz-adv-x="676" 
d="M368 -8c-48.667 0 -89.999 2.83594 -123.999 8.50293s-61.833 15.834 -83.5 30.501s-38.667 35.167 -51 61.5s-21 60 -26 101s-7.5 91.167 -7.5 150.5s2.5 109.5 7.5 150.5s13.833 74.667 26.5 101s30 46.833 52 61.5s49.833 24.834 83.5 30.501s74.5 8.5 122.5 8.5
c22.667 0 47 -1 73 -3s51.5 -4.33301 76.5 -7s47.5 -6 67.5 -10v-70c-21.333 3.33301 -43 6.16602 -65 8.49902s-42.5 4.16602 -61.5 5.49902s-35.167 2 -48.5 2c-41.333 0 -76.5 -1 -105.5 -3s-52.833 -7.33301 -71.5 -16s-33 -22.834 -43 -42.501
s-17.167 -46.834 -21.5 -81.501s-6.5 -79.667 -6.5 -135c0 -48.667 1.33301 -89.5 4 -122.5s8.16699 -59.833 16.5 -80.5s20 -36.667 35 -48s35 -18.833 60 -22.5s55.833 -5.5 92.5 -5.5c14 0 29.333 0.333008 46 1s33 1.66699 49 3s29.333 2.66602 40 3.99902v224h-156v73
h239v-358c-22 -4 -46.167 -7.5 -72.5 -10.5s-52.333 -5.33301 -78 -7s-48.834 -2.5 -69.501 -2.5zM319.001 806.003v81h77v-81h-77z" />
    <glyph glyph-name="gdotaccent" unicode="&#x121;" horiz-adv-x="590" 
d="M273 -206c-21.333 0 -43.1689 0.503906 -65.502 1.50391s-43.5 2.16699 -63.5 3.5s-37 2.66602 -51 3.99902v66c16 -1.33301 33.667 -2.5 53 -3.5s38.5 -1.66699 57.5 -2s36.167 -0.5 51.5 -0.5c38.667 0 69 2.66699 91 8s38.667 14.666 50 27.999s18.5 32 21.5 56
s4.5 54.667 4.5 92v21h-5c-8.66699 -18.667 -20.667 -33.334 -36 -44.001s-33.666 -18.167 -54.999 -22.5s-45.666 -6.5 -72.999 -6.5c-37.333 0 -68.166 4 -92.499 12s-43.5 21.5 -57.5 40.5s-23.833 45.5 -29.5 79.5s-8.5 76.667 -8.5 128c0 52 3 95 9 129
s16 60.667 30 80s33.167 33.166 57.5 41.499s55.166 12.5 92.499 12.5c22.667 0 45 -1.83301 67 -5.5s41.833 -11.5 59.5 -23.5s31.167 -29.333 40.5 -52h6l4 73h73v-444c0 -49.333 -2.5 -91.333 -7.5 -126s-15.167 -62.667 -30.5 -84s-38.333 -37 -69 -47s-72 -15 -124 -15
zM284.997 66.0039c33.333 0 59.666 4.50098 78.999 13.501s33.333 23.167 42 42.5c7.33301 16 11.833 35 13.5 57s2.5 47.667 2.5 77c0 28 -0.666992 52.833 -2 74.5s-5.66602 40.167 -12.999 55.5c-8.66699 21.333 -23 36.666 -43 45.999s-46.333 14 -79 14
c-30.667 0 -55.167 -2.16699 -73.5 -6.5s-32.166 -12.833 -41.499 -25.5s-15.666 -31.667 -18.999 -57s-5 -59 -5 -101s1.66699 -75.667 5 -101s9.66602 -44.333 18.999 -57s23.166 -21.167 41.499 -25.5s42.833 -6.5 73.5 -6.5zM255.997 628.005v80h77v-80h-77z" />
    <glyph glyph-name="uni0122" unicode="&#x122;" horiz-adv-x="676" 
d="M368 -8c-48.667 0 -89.999 2.83594 -123.999 8.50293s-61.833 15.834 -83.5 30.501s-38.667 35.167 -51 61.5s-21 60 -26 101s-7.5 91.167 -7.5 150.5s2.5 109.5 7.5 150.5s13.833 74.667 26.5 101s30 46.833 52 61.5s49.833 24.834 83.5 30.501s74.5 8.5 122.5 8.5
c22.667 0 47 -1 73 -3s51.5 -4.33301 76.5 -7s47.5 -6 67.5 -10v-70c-21.333 3.33301 -43 6.16602 -65 8.49902s-42.5 4.16602 -61.5 5.49902s-35.167 2 -48.5 2c-41.333 0 -76.5 -1 -105.5 -3s-52.833 -7.33301 -71.5 -16s-33 -22.834 -43 -42.501
s-17.167 -46.834 -21.5 -81.501s-6.5 -79.667 -6.5 -135c0 -48.667 1.33301 -89.5 4 -122.5s8.16699 -59.833 16.5 -80.5s20 -36.667 35 -48s35 -18.833 60 -22.5s55.833 -5.5 92.5 -5.5c14 0 29.333 0.333008 46 1s33 1.66699 49 3s29.333 2.66602 40 3.99902v224h-156v73
h239v-358c-22 -4 -46.167 -7.5 -72.5 -10.5s-52.333 -5.33301 -78 -7s-48.834 -2.5 -69.501 -2.5zM292.001 -282.997l0.000976562 38.002c16.667 0 29 1.33301 37 4s13.5 7.66699 16.5 15s4.5 17.666 4.5 30.999v17h-37v95h91v-80c0 -24.667 -1.33301 -44.667 -4 -60
s-7.83398 -27.333 -15.501 -36s-19 -14.834 -34 -18.501s-34.5 -5.5 -58.5 -5.5z" />
    <glyph glyph-name="uni0123" unicode="&#x123;" horiz-adv-x="590" 
d="M273 -206c-21.333 0 -43.1689 0.503906 -65.502 1.50391s-43.5 2.16699 -63.5 3.5s-37 2.66602 -51 3.99902v66c16 -1.33301 33.667 -2.5 53 -3.5s38.5 -1.66699 57.5 -2s36.167 -0.5 51.5 -0.5c38.667 0 69 2.66699 91 8s38.667 14.666 50 27.999s18.5 32 21.5 56
s4.5 54.667 4.5 92v21h-5c-8.66699 -18.667 -20.667 -33.334 -36 -44.001s-33.666 -18.167 -54.999 -22.5s-45.666 -6.5 -72.999 -6.5c-37.333 0 -68.166 4 -92.499 12s-43.5 21.5 -57.5 40.5s-23.833 45.5 -29.5 79.5s-8.5 76.667 -8.5 128c0 52 3 95 9 129
s16 60.667 30 80s33.167 33.166 57.5 41.499s55.166 12.5 92.499 12.5c22.667 0 45 -1.83301 67 -5.5s41.833 -11.5 59.5 -23.5s31.167 -29.333 40.5 -52h6l4 73h73v-444c0 -49.333 -2.5 -91.333 -7.5 -126s-15.167 -62.667 -30.5 -84s-38.333 -37 -69 -47s-72 -15 -124 -15
zM284.997 66.0039c33.333 0 59.666 4.50098 78.999 13.501s33.333 23.167 42 42.5c7.33301 16 11.833 35 13.5 57s2.5 47.667 2.5 77c0 28 -0.666992 52.833 -2 74.5s-5.66602 40.167 -12.999 55.5c-8.66699 21.333 -23 36.666 -43 45.999s-46.333 14 -79 14
c-30.667 0 -55.167 -2.16699 -73.5 -6.5s-32.166 -12.833 -41.499 -25.5s-15.666 -31.667 -18.999 -57s-5 -59 -5 -101s1.66699 -75.667 5 -101s9.66602 -44.333 18.999 -57s23.166 -21.167 41.499 -25.5s42.833 -6.5 73.5 -6.5zM249.997 578.005v79.999
c0 24.667 1.33301 44.667 4 60s8 27.333 16 36s19.333 14.834 34 18.501s34 5.5 58 5.5v-38c-24 0 -39.667 -3.16699 -47 -9.5s-11 -19.833 -11 -40.5v-17h37v-95h-91z" />
    <glyph glyph-name="Hcircumflex" unicode="&#x124;" horiz-adv-x="731" 
d="M100 0v688h86v-303h360v303h86v-688h-86v309h-360v-309h-86zM221 773v6l102 135h85l102 -135v-6h-56l-89 97l-88 -97h-56z" />
    <glyph glyph-name="hcircumflex" unicode="&#x125;" horiz-adv-x="599" 
d="M86 0l0.00195312 743.003h82v-300h5c6.66699 14 16.334 26.667 29.001 38s30 20.166 52 26.499s50 9.5 84 9.5c37.333 0 67.5 -3.83301 90.5 -11.5s40.667 -19.5 53 -35.5s20.5 -36.5 24.5 -61.5s6 -54.833 6 -89.5v-319h-81v291c0 34.667 -1.5 62.167 -4.5 82.5
s-8.83301 35.666 -17.5 45.999s-21.334 17.166 -38.001 20.499s-38.667 5 -66 5c-32.667 0 -58.334 -4.16699 -77.001 -12.5s-32.334 -20.333 -41.001 -36s-14 -34.667 -16 -57s-3 -47.833 -3 -76.5v-263h-82zM-16.998 773.003v6l102 135h85l102 -135v-6h-56l-89 97l-88 -97
h-56z" />
    <glyph glyph-name="Hbar" unicode="&#x126;" horiz-adv-x="731" 
d="M100 0v688h86v-136h360v136h86v-688h-86v278h-360v-278h-86zM186 354h360v129h-360v-129z" />
    <glyph glyph-name="hbar" unicode="&#x127;" horiz-adv-x="599" 
d="M20 633v55h284v-55h-284zM86 0l0.00195312 743.003h82v-300h5c6.66699 14 16.334 26.667 29.001 38s30 20.166 52 26.499s50 9.5 84 9.5c37.333 0 67.5 -3.83301 90.5 -11.5s40.667 -19.5 53 -35.5s20.5 -36.5 24.5 -61.5s6 -54.833 6 -89.5v-319h-81v291
c0 34.667 -1.5 62.167 -4.5 82.5s-8.83301 35.666 -17.5 45.999s-21.334 17.166 -38.001 20.499s-38.667 5 -66 5c-32.667 0 -58.334 -4.16699 -77.001 -12.5s-32.334 -20.333 -41.001 -36s-14 -34.667 -16 -57s-3 -47.833 -3 -76.5v-263h-82z" />
    <glyph glyph-name="Itilde" unicode="&#x128;" horiz-adv-x="286" 
d="M100 0v688h86v-688h-86zM-28 780c0 26 1.5 47.333 4.5 64s9.83301 29.167 20.5 37.5s27 12.5 49 12.5c18.667 0 37 -2.5 55 -7.5s36 -10.5 54 -16.5l40.5 -13c13 -4 26.167 -6 39.5 -6c14.667 0 23.5 3.83301 26.5 11.5s4.5 21.834 4.5 42.501h47
c0 -26 -1.5 -47.333 -4.5 -64s-9.66699 -29.167 -20 -37.5s-26.5 -12.5 -48.5 -12.5c-20 0 -38.5 2.66699 -55.5 8l-53.5 16c-14 4.66699 -27.667 9 -41 13s-26.333 6 -39 6c-14.667 0 -23.5 -3.83301 -26.5 -11.5s-4.5 -21.834 -4.5 -42.501h-48z" />
    <glyph glyph-name="itilde" unicode="&#x129;" horiz-adv-x="254" 
d="M86 0v510h82v-510h-82zM-45 602c0 26 1.5 47.333 4.5 64s9.83301 29.167 20.5 37.5s27 12.5 49 12.5c18.667 0 37 -2.5 55 -7.5s36 -10.5 54 -16.5l40.5 -13c13 -4 26.167 -6 39.5 -6c14.667 0 23.5 3.83301 26.5 11.5s4.5 21.834 4.5 42.501h47
c0 -26 -1.5 -47.333 -4.5 -64s-9.66699 -29.167 -20 -37.5s-26.5 -12.5 -48.5 -12.5c-20 0 -38.5 2.66699 -55.5 8l-53.5 16c-14 4.66699 -27.667 9 -41 13s-26.333 6 -39 6c-14.667 0 -23.5 -3.83301 -26.5 -11.5s-4.5 -21.834 -4.5 -42.501h-48z" />
    <glyph glyph-name="Imacron" unicode="&#x12a;" horiz-adv-x="286" 
d="M100 0v688h86v-688h-86zM-2 806v57h289v-57h-289z" />
    <glyph glyph-name="imacron" unicode="&#x12b;" horiz-adv-x="254" 
d="M86 0v510h82v-510h-82zM-18 628v57h289v-57h-289z" />
    <glyph glyph-name="Ibreve" unicode="&#x12c;" horiz-adv-x="286" 
d="M100 0v688h86v-688h-86zM142 764c-32.667 0 -58.333 3.5 -77 10.5s-32.167 17 -40.5 30s-13.666 28.167 -15.999 45.5s-3.5 36.666 -3.5 57.999h53c0 -20 1.16699 -37 3.5 -51s9.33301 -24.5 21 -31.5s31.5 -10.5 59.5 -10.5s47.833 3.5 59.5 10.5
s18.834 17.5 21.501 31.5s4 31 4 51h53c0 -21.333 -1.16699 -40.666 -3.5 -57.999s-7.83301 -32.5 -16.5 -45.5s-22.334 -23 -41.001 -30s-44.334 -10.5 -77.001 -10.5z" />
    <glyph glyph-name="ibreve" unicode="&#x12d;" horiz-adv-x="254" 
d="M86 0v510h82v-510h-82zM126 586c-32.667 0 -58.333 3.66699 -77 11s-32.167 17.333 -40.5 30s-13.666 27.834 -15.999 45.501s-3.5 36.834 -3.5 57.501h53c0 -20 1.16699 -36.833 3.5 -50.5s9.33301 -24.167 21 -31.5s31.5 -11 59.5 -11s47.833 3.66699 59.5 11
s18.834 17.833 21.501 31.5s4 30.5 4 50.5h53c0 -20.667 -1.16699 -39.834 -3.5 -57.501s-7.83301 -32.834 -16.5 -45.501s-22.334 -22.667 -41.001 -30s-44.334 -11 -77.001 -11z" />
    <glyph glyph-name="Iogonek" unicode="&#x12e;" horiz-adv-x="286" 
d="M100 0v688h86v-688h-86zM148 -200c-24.667 0 -44 3.50195 -58 10.502s-23.833 16.333 -29.5 28s-8.5 24.5 -8.5 38.5c0 21.333 7 44.166 21 68.499s32 45.833 54 64.5l59 -10c-8.66699 -6.66699 -18 -16 -28 -28s-18.333 -24.833 -25 -38.5s-10 -26.834 -10 -39.501
c0 -11.333 3.33301 -20.833 10 -28.5s19 -11.5 37 -11.5h7.5c3 0 6.16699 0.333008 9.5 1v-53c-6.66699 -0.666992 -13.167 -1.16699 -19.5 -1.5s-12.833 -0.5 -19.5 -0.5z" />
    <glyph glyph-name="iogonek" unicode="&#x12f;" horiz-adv-x="254" 
d="M84 654v89h87v-89h-87zM86 0v510h82v-510h-82zM130 -200c-24.667 0 -44 3.50195 -58 10.502s-23.833 16.333 -29.5 28s-8.5 24.5 -8.5 38.5c0 21.333 7 44.166 21 68.499s32 45.833 54 64.5l59 -10c-8.66699 -6.66699 -18 -16 -28 -28s-18.333 -24.833 -25 -38.5
s-10 -26.834 -10 -39.501c0 -11.333 3.33301 -20.833 10 -28.5s19 -11.5 37 -11.5h7.5c3 0 6.16699 0.333008 9.5 1v-53c-6.66699 -0.666992 -13.167 -1.16699 -19.5 -1.5s-12.833 -0.5 -19.5 -0.5z" />
    <glyph glyph-name="Idotaccent" unicode="&#x130;" horiz-adv-x="286" 
d="M100 0v688h86v-688h-86zM104 806v81h77v-81h-77z" />
    <glyph glyph-name="dotlessi" unicode="&#x131;" horiz-adv-x="254" 
d="M86 0v510h82v-510h-82z" />
    <glyph glyph-name="IJ" unicode="&#x132;" horiz-adv-x="641" 
d="M100 0v688h86v-688h-86zM319 0l-0.00292969 71.001c36 0.666992 63.667 2.66699 83 6s33.333 10.5 42 21.5s13.834 28.667 15.501 53s2.5 58.166 2.5 101.499v435h86v-408c0 -53.333 -1 -97.5 -3 -132.5s-6.66699 -62.333 -14 -82s-19.166 -34.167 -35.499 -43.5
s-38.666 -15.333 -66.999 -18s-64.833 -4 -109.5 -4z" />
    <glyph glyph-name="ij" unicode="&#x133;" horiz-adv-x="508" 
d="M84 654v89h87v-89h-87zM86 0v510h82v-510h-82zM338 654v89h87v-89h-87zM245 -200l-0.000976562 64.002c29.333 0 50.833 1.66699 64.5 5s22.167 9 25.5 17s5 19 5 33v591h82v-573c0 -31.333 -3 -56.333 -9 -75s-16 -32.334 -30 -41.001s-32.167 -14.334 -54.5 -17.001
s-50.166 -4 -83.499 -4z" />
    <glyph glyph-name="Jcircumflex" unicode="&#x134;" horiz-adv-x="355" 
d="M33 0l-0.00292969 71.001c36 0.666992 63.667 2.66699 83 6s33.333 10.5 42 21.5s13.834 28.667 15.501 53s2.5 58.166 2.5 101.499v435h86v-408c0 -53.333 -1 -97.5 -3 -132.5s-6.66699 -62.333 -14 -82s-19.166 -34.167 -35.499 -43.5s-38.666 -15.333 -66.999 -18
s-64.833 -4 -109.5 -4zM74.9971 773.001v6l102 135h85l102 -135v-6h-56l-89 97l-88 -97h-56z" />
    <glyph glyph-name="jcircumflex" unicode="&#x135;" horiz-adv-x="254" 
d="M-9 -200l-0.000976562 64.002c29.333 0 50.833 1.66699 64.5 5s22.167 9 25.5 17s5 19 5 33v591h82v-573c0 -31.333 -3 -56.333 -9 -75s-16 -32.334 -30 -41.001s-32.167 -14.334 -54.5 -17.001s-50.166 -4 -83.499 -4zM-17.001 595.002v6l102 134h85l102 -134v-6h-56
l-89 96l-88 -96h-56z" />
    <glyph glyph-name="uni0136" unicode="&#x136;" horiz-adv-x="670" 
d="M100 0v688h86v-301h123l236 301h95l-261 -334l264 -354h-100l-234 312h-123v-312h-86zM270 -283l0.000976562 38.002c16.667 0 29 1.33301 37 4s13.5 7.66699 16.5 15s4.5 17.666 4.5 30.999v17h-37v95h91v-80c0 -24.667 -1.33301 -44.667 -4 -60
s-7.83398 -27.333 -15.501 -36s-19 -14.834 -34 -18.501s-34.5 -5.5 -58.5 -5.5z" />
    <glyph glyph-name="uni0137" unicode="&#x137;" horiz-adv-x="537" 
d="M86 0v743h82v-450h64l180 217h92l-207 -247l210 -263h-95l-180 223h-64v-223h-82zM208 -283l0.000976562 38.002c16.667 0 29 1.33301 37 4s13.5 7.66699 16.5 15s4.5 17.666 4.5 30.999v17h-37v95h91v-80c0 -24.667 -1.33301 -44.667 -4 -60
s-7.83398 -27.333 -15.501 -36s-19 -14.834 -34 -18.501s-34.5 -5.5 -58.5 -5.5z" />
    <glyph glyph-name="kgreenlandic" unicode="&#x138;" horiz-adv-x="537" 
d="M86 0v510h82v-217h64l180 217h92l-207 -247l210 -263h-95l-180 223h-64v-223h-82z" />
    <glyph glyph-name="Lacute" unicode="&#x139;" horiz-adv-x="538" 
d="M100 0v688h86v-612h321v-76h-407zM90 773v5l101 135h88v-5l-129 -135h-60z" />
    <glyph glyph-name="lacute" unicode="&#x13a;" horiz-adv-x="254" 
d="M86 0v743h82v-743h-82zM74 835v5l101 135h88v-5l-129 -135h-60z" />
    <glyph glyph-name="uni013B" unicode="&#x13b;" horiz-adv-x="538" 
d="M100 0v688h86v-612h321v-76h-407zM250 -283l0.000976562 38.002c16.667 0 29 1.33301 37 4s13.5 7.66699 16.5 15s4.5 17.666 4.5 30.999v17h-37v95h91v-80c0 -24.667 -1.33301 -44.667 -4 -60s-7.83398 -27.333 -15.501 -36s-19 -14.834 -34 -18.501
s-34.5 -5.5 -58.5 -5.5z" />
    <glyph glyph-name="uni013C" unicode="&#x13c;" horiz-adv-x="254" 
d="M86 0v743h82v-743h-82zM61 -283l0.000976562 38.002c16.667 0 29 1.33301 37 4s13.5 7.66699 16.5 15s4.5 17.666 4.5 30.999v17h-37v95h91v-80c0 -24.667 -1.33301 -44.667 -4 -60s-7.83398 -27.333 -15.501 -36s-19 -14.834 -34 -18.501s-34.5 -5.5 -58.5 -5.5z" />
    <glyph glyph-name="Lcaron" unicode="&#x13d;" horiz-adv-x="538" 
d="M100 0v688h86v-612h321v-76h-407zM325 444l14 168v76h71v-76l-34 -168h-51z" />
    <glyph glyph-name="lcaron" unicode="&#x13e;" horiz-adv-x="254" 
d="M86 0v743h82v-743h-82zM211 444l14 168v76h71v-76l-34 -168h-51z" />
    <glyph glyph-name="Ldot" unicode="&#x13f;" horiz-adv-x="536" 
d="M100 0v688h86v-612h321v-76h-407zM374 311v97h86v-97h-86z" />
    <glyph glyph-name="ldot" unicode="&#x140;" horiz-adv-x="271" 
d="M86 0v743h82v-743h-82zM220 251v97h86v-97h-86z" />
    <glyph glyph-name="Lslash" unicode="&#x141;" horiz-adv-x="538" 
d="M36 266v67l339 126v-67zM100 0v688h86v-612h321v-76h-407z" />
    <glyph glyph-name="lslash" unicode="&#x142;" horiz-adv-x="259" 
d="M89 0v320l-60 -21v68l60 21v355h81v-325l61 22v-68l-61 -22v-350h-81z" />
    <glyph glyph-name="Nacute" unicode="&#x143;" horiz-adv-x="731" 
d="M100 0v688h88l357 -527h4v527h83v-688h-83l-362 537h-4v-537h-83zM323 773v5l101 135h88v-5l-129 -135h-60z" />
    <glyph glyph-name="nacute" unicode="&#x144;" horiz-adv-x="599" 
d="M86 0l0.00292969 510.002h74l3 -73h6c7.33301 16 17.5 30 30.5 42s30.667 21.5 53 28.5s50.833 10.5 85.5 10.5c38 0 68.333 -4 91 -12s40.167 -20 52.5 -36s20.5 -36.5 24.5 -61.5s6 -54.833 6 -89.5v-319h-81v291c0 34.667 -1.5 62.167 -4.5 82.5
s-8.83301 35.666 -17.5 45.999s-21.334 17.166 -38.001 20.499s-38.667 5 -66 5c-32.667 0 -58.334 -4.16699 -77.001 -12.5s-32.334 -20.333 -41.001 -36s-14 -34.667 -16 -57s-3 -47.833 -3 -76.5v-263h-82zM223.003 595.002v5l101 135h88v-5l-129 -135h-60z" />
    <glyph glyph-name="uni0145" unicode="&#x145;" horiz-adv-x="731" 
d="M100 0v688h88l357 -527h4v527h83v-688h-83l-362 537h-4v-537h-83zM310 -283l0.000976562 38.002c16.667 0 29 1.33301 37 4s13.5 7.66699 16.5 15s4.5 17.666 4.5 30.999v17h-37v95h91v-80c0 -24.667 -1.33301 -44.667 -4 -60s-7.83398 -27.333 -15.501 -36
s-19 -14.834 -34 -18.501s-34.5 -5.5 -58.5 -5.5z" />
    <glyph glyph-name="uni0146" unicode="&#x146;" horiz-adv-x="599" 
d="M86 0l0.00292969 510.002h74l3 -73h6c7.33301 16 17.5 30 30.5 42s30.667 21.5 53 28.5s50.833 10.5 85.5 10.5c38 0 68.333 -4 91 -12s40.167 -20 52.5 -36s20.5 -36.5 24.5 -61.5s6 -54.833 6 -89.5v-319h-81v291c0 34.667 -1.5 62.167 -4.5 82.5
s-8.83301 35.666 -17.5 45.999s-21.334 17.166 -38.001 20.499s-38.667 5 -66 5c-32.667 0 -58.334 -4.16699 -77.001 -12.5s-32.334 -20.333 -41.001 -36s-14 -34.667 -16 -57s-3 -47.833 -3 -76.5v-263h-82zM233.003 -282.998l0.000976562 38.002
c16.667 0 29 1.33301 37 4s13.5 7.66699 16.5 15s4.5 17.666 4.5 30.999v17h-37v95h91v-80c0 -24.667 -1.33301 -44.667 -4 -60s-7.83398 -27.333 -15.501 -36s-19 -14.834 -34 -18.501s-34.5 -5.5 -58.5 -5.5z" />
    <glyph glyph-name="Ncaron" unicode="&#x147;" horiz-adv-x="731" 
d="M100 0v688h88l357 -527h4v527h83v-688h-83l-362 537h-4v-537h-83zM333 773l-102 134v6h56l88 -97l89 97h56v-6l-102 -134h-85z" />
    <glyph glyph-name="ncaron" unicode="&#x148;" horiz-adv-x="599" 
d="M86 0l0.00292969 510.002h74l3 -73h6c7.33301 16 17.5 30 30.5 42s30.667 21.5 53 28.5s50.833 10.5 85.5 10.5c38 0 68.333 -4 91 -12s40.167 -20 52.5 -36s20.5 -36.5 24.5 -61.5s6 -54.833 6 -89.5v-319h-81v291c0 34.667 -1.5 62.167 -4.5 82.5
s-8.83301 35.666 -17.5 45.999s-21.334 17.166 -38.001 20.499s-38.667 5 -66 5c-32.667 0 -58.334 -4.16699 -77.001 -12.5s-32.334 -20.333 -41.001 -36s-14 -34.667 -16 -57s-3 -47.833 -3 -76.5v-263h-82zM257.003 595.002l-102 134v6h56l88 -97l89 97h56v-6l-102 -134
h-85z" />
    <glyph glyph-name="napostrophe" unicode="&#x149;" horiz-adv-x="604" 
d="M86 0l0.00292969 510.002h74l3 -73h6c7.33301 16 17.5 30 30.5 42s30.667 21.5 53 28.5s50.833 10.5 85.5 10.5c38 0 68.333 -4 91 -12s40.167 -20 52.5 -36s20.5 -36.5 24.5 -61.5s6 -54.833 6 -89.5v-319h-81v291c0 34.667 -1.5 62.167 -4.5 82.5
s-8.83301 35.666 -17.5 45.999s-21.334 17.166 -38.001 20.499s-38.667 5 -66 5c-32.667 0 -58.334 -4.16699 -77.001 -12.5s-32.334 -20.333 -41.001 -36s-14 -34.667 -16 -57s-3 -47.833 -3 -76.5v-263h-82zM0.00292969 516.002l0.000976562 37.002
c16.667 0 29 1.66699 37 5s13.5 9.66602 16.5 18.999s4.5 22.333 4.5 39v17h-37v80h91v-66c0 -26.667 -1.33301 -48.5 -4 -65.5s-7.83398 -30.333 -15.501 -40s-19 -16.334 -34 -20.001s-34.5 -5.5 -58.5 -5.5z" />
    <glyph glyph-name="Eng" unicode="&#x14a;" horiz-adv-x="731" 
d="M453 -200v64.001c30 0 51.667 1.66699 65 5s21.833 9 25.5 17s5.5 19 5.5 33v81l-362 537h-4v-537h-83v688h88l357 -527h4v527h83v-751c0 -25.333 -2 -46.333 -6 -63s-10.167 -30 -18.5 -40s-19.5 -17.333 -33.5 -22s-31 -7.83398 -51 -9.50098s-43.333 -2.5 -70 -2.5z
" />
    <glyph glyph-name="eng" unicode="&#x14b;" horiz-adv-x="599" 
d="M335 -200l0.00390625 64.0039c30 0 51.667 1.66699 65 5s21.833 9 25.5 17s5.5 19 5.5 33v372c0 34.667 -1.5 62.167 -4.5 82.5s-8.83301 35.666 -17.5 45.999s-21.334 17.166 -38.001 20.499s-38.667 5 -66 5c-32.667 0 -58.334 -4.16699 -77.001 -12.5
s-32.334 -20.333 -41.001 -36s-14 -34.667 -16 -57s-3 -47.833 -3 -76.5v-263h-82v510h74l3 -73h6c7.33301 16 17.5 30 30.5 42s30.667 21.5 53 28.5s50.833 10.5 85.5 10.5c38 0 68.333 -4 91 -12s40.167 -20 52.5 -36s20.5 -36.5 24.5 -61.5s6 -54.833 6 -89.5v-382
c0 -31.333 -3 -56.333 -9 -75s-15.833 -32.334 -29.5 -41.001s-31.834 -14.334 -54.501 -17.001s-50.667 -4 -84 -4z" />
    <glyph glyph-name="Omacron" unicode="&#x14c;" horiz-adv-x="717" 
d="M358 -8c-53.333 0 -97.5 2.83301 -132.5 8.5s-62.667 15.834 -83 30.501s-35.166 35.167 -44.499 61.5s-15.333 60 -18 101s-4 91.167 -4 150.5s1.33301 109.5 4 150.5s8.66699 74.667 18 101s24.166 46.833 44.499 61.5s48 24.834 83 30.501s79.167 8.5 132.5 8.5
s97.5 -2.83301 132.5 -8.5s62.667 -15.834 83 -30.501s35.166 -35.167 44.499 -61.5s15.333 -60 18 -101s4 -91.167 4 -150.5s-1.33301 -109.5 -4 -150.5s-8.66699 -74.667 -18 -101s-24.166 -46.833 -44.499 -61.5s-48 -24.834 -83 -30.501s-79.167 -8.5 -132.5 -8.5z
M358 66c36.667 0 67 1.16699 91 3.5s43 7.83301 57 16.5s24.667 22.834 32 42.501s11.833 46.834 13.5 81.501s2.5 79.334 2.5 134.001s-0.833008 99.334 -2.5 134.001s-6.16699 61.834 -13.5 81.501s-18 33.834 -32 42.501s-33 14.167 -57 16.5s-54.333 3.5 -91 3.5
s-66.834 -1.16699 -90.501 -3.5s-42.667 -7.83301 -57 -16.5s-25 -22.834 -32 -42.501s-11.5 -46.834 -13.5 -81.501s-3 -79.334 -3 -134.001s1 -99.334 3 -134.001s6.5 -61.834 13.5 -81.501s17.667 -33.834 32 -42.501s33.333 -14.167 57 -16.5s53.834 -3.5 90.501 -3.5z
M214 806v57h289v-57h-289z" />
    <glyph glyph-name="omacron" unicode="&#x14d;" horiz-adv-x="577" 
d="M288 -8c-42 0 -76.833 2.5 -104.5 7.5s-49.5 13.167 -65.5 24.5s-27.833 27 -35.5 47s-12.5 45.167 -14.5 75.5s-3 66.5 -3 108.5s1 78.167 3 108.5s6.83301 55.5 14.5 75.5s19.5 35.667 35.5 47s37.833 19.5 65.5 24.5s62.5 7.5 104.5 7.5
c42.667 0 77.667 -2.5 105 -7.5s49.166 -13.167 65.499 -24.5s28.333 -27 36 -47s12.5 -45.167 14.5 -75.5s3 -66.5 3 -108.5s-1 -78.167 -3 -108.5s-6.83301 -55.5 -14.5 -75.5s-19.667 -35.667 -36 -47s-38.166 -19.5 -65.499 -24.5s-62.333 -7.5 -105 -7.5zM288 61
c36 0 63.667 2.33301 83 7s33.166 13.667 41.499 27s13.333 32.833 15 58.5s2.5 59.5 2.5 101.5s-0.833008 75.833 -2.5 101.5s-6.66699 45.167 -15 58.5s-22.166 22.333 -41.499 27s-47 7 -83 7c-35.333 0 -62.833 -2.33301 -82.5 -7s-33.5 -13.667 -41.5 -27
s-13 -32.833 -15 -58.5s-3 -59.5 -3 -101.5s1 -75.833 3 -101.5s7 -45.167 15 -58.5s21.833 -22.333 41.5 -27s47.167 -7 82.5 -7zM143 628v57h289v-57h-289z" />
    <glyph glyph-name="Obreve" unicode="&#x14e;" horiz-adv-x="717" 
d="M358 -8c-53.333 0 -97.5 2.83301 -132.5 8.5s-62.667 15.834 -83 30.501s-35.166 35.167 -44.499 61.5s-15.333 60 -18 101s-4 91.167 -4 150.5s1.33301 109.5 4 150.5s8.66699 74.667 18 101s24.166 46.833 44.499 61.5s48 24.834 83 30.501s79.167 8.5 132.5 8.5
s97.5 -2.83301 132.5 -8.5s62.667 -15.834 83 -30.501s35.166 -35.167 44.499 -61.5s15.333 -60 18 -101s4 -91.167 4 -150.5s-1.33301 -109.5 -4 -150.5s-8.66699 -74.667 -18 -101s-24.166 -46.833 -44.499 -61.5s-48 -24.834 -83 -30.501s-79.167 -8.5 -132.5 -8.5z
M358 66c36.667 0 67 1.16699 91 3.5s43 7.83301 57 16.5s24.667 22.834 32 42.501s11.833 46.834 13.5 81.501s2.5 79.334 2.5 134.001s-0.833008 99.334 -2.5 134.001s-6.16699 61.834 -13.5 81.501s-18 33.834 -32 42.501s-33 14.167 -57 16.5s-54.333 3.5 -91 3.5
s-66.834 -1.16699 -90.501 -3.5s-42.667 -7.83301 -57 -16.5s-25 -22.834 -32 -42.501s-11.5 -46.834 -13.5 -81.501s-3 -79.334 -3 -134.001s1 -99.334 3 -134.001s6.5 -61.834 13.5 -81.501s17.667 -33.834 32 -42.501s33.333 -14.167 57 -16.5s53.834 -3.5 90.501 -3.5z
M357 764c-32.667 0 -58.333 3.5 -77 10.5s-32.167 17 -40.5 30s-13.666 28.167 -15.999 45.5s-3.5 36.666 -3.5 57.999h53c0 -20 1.16699 -37 3.5 -51s9.33301 -24.5 21 -31.5s31.5 -10.5 59.5 -10.5s47.833 3.5 59.5 10.5s18.834 17.5 21.501 31.5s4 31 4 51h53
c0 -21.333 -1.16699 -40.666 -3.5 -57.999s-7.83301 -32.5 -16.5 -45.5s-22.334 -23 -41.001 -30s-44.334 -10.5 -77.001 -10.5z" />
    <glyph glyph-name="obreve" unicode="&#x14f;" horiz-adv-x="577" 
d="M288 -8c-42 0 -76.833 2.5 -104.5 7.5s-49.5 13.167 -65.5 24.5s-27.833 27 -35.5 47s-12.5 45.167 -14.5 75.5s-3 66.5 -3 108.5s1 78.167 3 108.5s6.83301 55.5 14.5 75.5s19.5 35.667 35.5 47s37.833 19.5 65.5 24.5s62.5 7.5 104.5 7.5
c42.667 0 77.667 -2.5 105 -7.5s49.166 -13.167 65.499 -24.5s28.333 -27 36 -47s12.5 -45.167 14.5 -75.5s3 -66.5 3 -108.5s-1 -78.167 -3 -108.5s-6.83301 -55.5 -14.5 -75.5s-19.667 -35.667 -36 -47s-38.166 -19.5 -65.499 -24.5s-62.333 -7.5 -105 -7.5zM288 61
c36 0 63.667 2.33301 83 7s33.166 13.667 41.499 27s13.333 32.833 15 58.5s2.5 59.5 2.5 101.5s-0.833008 75.833 -2.5 101.5s-6.66699 45.167 -15 58.5s-22.166 22.333 -41.499 27s-47 7 -83 7c-35.333 0 -62.833 -2.33301 -82.5 -7s-33.5 -13.667 -41.5 -27
s-13 -32.833 -15 -58.5s-3 -59.5 -3 -101.5s1 -75.833 3 -101.5s7 -45.167 15 -58.5s21.833 -22.333 41.5 -27s47.167 -7 82.5 -7zM287 586c-32.667 0 -58.333 3.66699 -77 11s-32.167 17.333 -40.5 30s-13.666 27.834 -15.999 45.501s-3.5 36.834 -3.5 57.501h53
c0 -20 1.16699 -36.833 3.5 -50.5s9.33301 -24.167 21 -31.5s31.5 -11 59.5 -11s47.833 3.66699 59.5 11s18.834 17.833 21.501 31.5s4 30.5 4 50.5h53c0 -20.667 -1.16699 -39.834 -3.5 -57.501s-7.83301 -32.834 -16.5 -45.501s-22.334 -22.667 -41.001 -30
s-44.334 -11 -77.001 -11z" />
    <glyph glyph-name="Ohungarumlaut" unicode="&#x150;" horiz-adv-x="717" 
d="M358 -8c-53.333 0 -97.5 2.83301 -132.5 8.5s-62.667 15.834 -83 30.501s-35.166 35.167 -44.499 61.5s-15.333 60 -18 101s-4 91.167 -4 150.5s1.33301 109.5 4 150.5s8.66699 74.667 18 101s24.166 46.833 44.499 61.5s48 24.834 83 30.501s79.167 8.5 132.5 8.5
s97.5 -2.83301 132.5 -8.5s62.667 -15.834 83 -30.501s35.166 -35.167 44.499 -61.5s15.333 -60 18 -101s4 -91.167 4 -150.5s-1.33301 -109.5 -4 -150.5s-8.66699 -74.667 -18 -101s-24.166 -46.833 -44.499 -61.5s-48 -24.834 -83 -30.501s-79.167 -8.5 -132.5 -8.5z
M358 66c36.667 0 67 1.16699 91 3.5s43 7.83301 57 16.5s24.667 22.834 32 42.501s11.833 46.834 13.5 81.501s2.5 79.334 2.5 134.001s-0.833008 99.334 -2.5 134.001s-6.16699 61.834 -13.5 81.501s-18 33.834 -32 42.501s-33 14.167 -57 16.5s-54.333 3.5 -91 3.5
s-66.834 -1.16699 -90.501 -3.5s-42.667 -7.83301 -57 -16.5s-25 -22.834 -32 -42.501s-11.5 -46.834 -13.5 -81.501s-3 -79.334 -3 -134.001s1 -99.334 3 -134.001s6.5 -61.834 13.5 -81.501s17.667 -33.834 32 -42.501s33.333 -14.167 57 -16.5s53.834 -3.5 90.501 -3.5z
M226 773v5l89 117h77v-5l-113 -117h-53zM407 773v5l89 117h77v-5l-114 -117h-52z" />
    <glyph glyph-name="ohungarumlaut" unicode="&#x151;" horiz-adv-x="577" 
d="M288 -8c-42 0 -76.833 2.5 -104.5 7.5s-49.5 13.167 -65.5 24.5s-27.833 27 -35.5 47s-12.5 45.167 -14.5 75.5s-3 66.5 -3 108.5s1 78.167 3 108.5s6.83301 55.5 14.5 75.5s19.5 35.667 35.5 47s37.833 19.5 65.5 24.5s62.5 7.5 104.5 7.5
c42.667 0 77.667 -2.5 105 -7.5s49.166 -13.167 65.499 -24.5s28.333 -27 36 -47s12.5 -45.167 14.5 -75.5s3 -66.5 3 -108.5s-1 -78.167 -3 -108.5s-6.83301 -55.5 -14.5 -75.5s-19.667 -35.667 -36 -47s-38.166 -19.5 -65.499 -24.5s-62.333 -7.5 -105 -7.5zM288 61
c36 0 63.667 2.33301 83 7s33.166 13.667 41.499 27s13.333 32.833 15 58.5s2.5 59.5 2.5 101.5s-0.833008 75.833 -2.5 101.5s-6.66699 45.167 -15 58.5s-22.166 22.333 -41.499 27s-47 7 -83 7c-35.333 0 -62.833 -2.33301 -82.5 -7s-33.5 -13.667 -41.5 -27
s-13 -32.833 -15 -58.5s-3 -59.5 -3 -101.5s1 -75.833 3 -101.5s7 -45.167 15 -58.5s21.833 -22.333 41.5 -27s47.167 -7 82.5 -7zM164 595v5l89 117h77v-5l-113 -117h-53zM345 595v5l89 117h77v-5l-114 -117h-52z" />
    <glyph glyph-name="OE" unicode="&#x152;" horiz-adv-x="1045" 
d="M358 0c-53.333 0 -97.5 2.66309 -132.5 7.99609s-62.667 15.333 -83 30s-35.166 34.834 -44.499 60.501s-15.333 58.5 -18 98.5s-4 89 -4 147s1.33301 107 4 147s8.66699 72.833 18 98.5s24.166 45.834 44.499 60.501s48 24.667 83 30s79.167 8 132.5 8h630v-74h-325
c-12.667 0 -25.5 0.5 -38.5 1.5s-24.5 2.5 -34.5 4.5c14 -14 24.5 -31.667 31.5 -53s11.833 -47 14.5 -77s4 -65 4 -105h301v-75h-301c0 -41.333 -1.16699 -77.666 -3.5 -108.999s-7 -57.666 -14 -78.999s-17.833 -39.333 -32.5 -54c10 2 21.5 3.5 34.5 4.5
s25.833 1.5 38.5 1.5h325v-74h-630zM358 73.9961c36.667 0 67 1 91 3s43 7.33301 57 16s24.667 22.5 32 41.5s11.833 45.5 13.5 79.5s2.5 77.333 2.5 130s-0.833008 96 -2.5 130s-6.16699 60.5 -13.5 79.5s-18 32.833 -32 41.5s-33 14 -57 16s-54.333 3 -91 3
s-66.834 -1 -90.501 -3s-42.667 -7.33301 -57 -16s-25 -22.5 -32 -41.5s-11.5 -45.5 -13.5 -79.5s-3 -77.333 -3 -130s1 -96 3 -130s6.5 -60.5 13.5 -79.5s17.667 -32.833 32 -41.5s33.333 -14 57 -16s53.834 -3 90.501 -3z" />
    <glyph glyph-name="oe" unicode="&#x153;" horiz-adv-x="926" 
d="M288 -8c-52.667 0 -93.999 4.00293 -123.999 12.0029s-52.167 21.5 -66.5 40.5s-23.333 45.667 -27 80s-5.5 77.833 -5.5 130.5s1.83301 96.167 5.5 130.5s12.667 61.166 27 80.499s36.5 32.833 66.5 40.5s71.333 11.5 124 11.5c51.333 0 91.333 -4.5 120 -13.5
s50 -25.167 64 -48.5c15.333 22 37.5 37.833 66.5 47.5s68.5 14.5 118.5 14.5c48.667 0 86.834 -4.83301 114.501 -14.5s47.834 -24.834 60.501 -45.501s20.667 -47.667 24 -81s5 -74 5 -122v-27h-348c0 -34.667 1.5 -63 4.5 -85s9.83301 -39 20.5 -51
s27.167 -20.333 49.5 -25s52.833 -7 91.5 -7c16 0 33.5 0.5 52.5 1.5s38.167 2.5 57.5 4.5s36.666 4 51.999 6v-66c-13.333 -2.66699 -30.166 -5 -50.499 -7s-41.833 -3.66699 -64.5 -5s-44.334 -2 -65.001 -2c-50.667 0 -90.667 4.66699 -120 14s-52.333 25.666 -69 48.999
c-9.33301 -16 -21.833 -28.5 -37.5 -37.5s-35.334 -15.5 -59.001 -19.5s-52.834 -6 -87.501 -6zM288.001 61.0029c36 0 63.667 2.33301 83 7s33.166 13.667 41.499 27s13.333 32.833 15 58.5s2.5 59.5 2.5 101.5s-0.833008 75.833 -2.5 101.5s-6.66699 45.167 -15 58.5
s-22.166 22.333 -41.499 27s-47 7 -83 7c-35.333 0 -62.833 -2.33301 -82.5 -7s-33.5 -13.667 -41.5 -27s-13 -32.833 -15 -58.5s-3 -59.5 -3 -101.5s1 -75.833 3 -101.5s7 -45.167 15 -58.5s21.833 -22.333 41.5 -27s47.167 -7 82.5 -7zM783.001 268.003v27.999
c0 34.667 -2 62.167 -6 82.5s-10.833 35.666 -20.5 45.999s-22.834 17.166 -39.501 20.499s-37.667 5 -63 5c-31.333 0 -56.333 -2.16699 -75 -6.5s-32.667 -12.166 -42 -23.499s-15.666 -27.666 -18.999 -48.999s-5 -49.666 -5 -84.999h289z" />
    <glyph glyph-name="Racute" unicode="&#x154;" horiz-adv-x="681" 
d="M100 0l0.000976562 687.999h316c43.333 0 77.833 -5.16699 103.5 -15.5s44.667 -25 57 -44s20.5 -41.167 24.5 -66.5s6 -52.333 6 -81c0 -24.667 -2.16699 -50.167 -6.5 -76.5s-14 -50.166 -29 -71.499s-38.5 -37 -70.5 -47l116 -286h-92l-114 289l24 -12
c-4.66699 -1.33301 -10.334 -2.33301 -17.001 -3s-15.667 -1 -27 -1h-205v-273h-86zM186.001 347.999l192.998 0.00195312c33.333 0 59.5 2.66699 78.5 8s33 13.666 42 24.999s14.833 25.166 17.5 41.499s4 35.833 4 58.5s-1.16699 42.167 -3.5 58.5s-7.66602 30 -15.999 41
s-21.666 19.333 -39.999 25s-43.5 8.5 -75.5 8.5h-200v-266zM287.999 773.001v5l101 135h88v-5l-129 -135h-60z" />
    <glyph glyph-name="racute" unicode="&#x155;" horiz-adv-x="367" 
d="M86 0v510.002h73l4 -98h6c8.66699 28.667 21 50.667 37 66s35.333 25.833 58 31.5s47.667 8.5 75 8.5v-80c-46 0 -81.333 -7.33301 -106 -22s-41.667 -37.334 -51 -68.001s-14 -69.334 -14 -116.001v-232h-82zM107 595.002v5l101 135h88v-5l-129 -135h-60z" />
    <glyph glyph-name="uni0156" unicode="&#x156;" horiz-adv-x="681" 
d="M100 0l0.000976562 687.999h316c43.333 0 77.833 -5.16699 103.5 -15.5s44.667 -25 57 -44s20.5 -41.167 24.5 -66.5s6 -52.333 6 -81c0 -24.667 -2.16699 -50.167 -6.5 -76.5s-14 -50.166 -29 -71.499s-38.5 -37 -70.5 -47l116 -286h-92l-114 289l24 -12
c-4.66699 -1.33301 -10.334 -2.33301 -17.001 -3s-15.667 -1 -27 -1h-205v-273h-86zM186.001 347.999l192.998 0.00195312c33.333 0 59.5 2.66699 78.5 8s33 13.666 42 24.999s14.833 25.166 17.5 41.499s4 35.833 4 58.5s-1.16699 42.167 -3.5 58.5s-7.66602 30 -15.999 41
s-21.666 19.333 -39.999 25s-43.5 8.5 -75.5 8.5h-200v-266zM274.999 -282.999l0.000976562 38.002c16.667 0 29 1.33301 37 4s13.5 7.66699 16.5 15s4.5 17.666 4.5 30.999v17h-37v95h91v-80c0 -24.667 -1.33301 -44.667 -4 -60s-7.83398 -27.333 -15.501 -36
s-19 -14.834 -34 -18.501s-34.5 -5.5 -58.5 -5.5z" />
    <glyph glyph-name="uni0157" unicode="&#x157;" horiz-adv-x="367" 
d="M86 0v510.002h73l4 -98h6c8.66699 28.667 21 50.667 37 66s35.333 25.833 58 31.5s47.667 8.5 75 8.5v-80c-46 0 -81.333 -7.33301 -106 -22s-41.667 -37.334 -51 -68.001s-14 -69.334 -14 -116.001v-232h-82zM61 -282.998l0.000976562 38.002c16.667 0 29 1.33301 37 4
s13.5 7.66699 16.5 15s4.5 17.666 4.5 30.999v17h-37v95h91v-80c0 -24.667 -1.33301 -44.667 -4 -60s-7.83398 -27.333 -15.501 -36s-19 -14.834 -34 -18.501s-34.5 -5.5 -58.5 -5.5z" />
    <glyph glyph-name="Rcaron" unicode="&#x158;" horiz-adv-x="681" 
d="M100 0l0.000976562 687.999h316c43.333 0 77.833 -5.16699 103.5 -15.5s44.667 -25 57 -44s20.5 -41.167 24.5 -66.5s6 -52.333 6 -81c0 -24.667 -2.16699 -50.167 -6.5 -76.5s-14 -50.166 -29 -71.499s-38.5 -37 -70.5 -47l116 -286h-92l-114 289l24 -12
c-4.66699 -1.33301 -10.334 -2.33301 -17.001 -3s-15.667 -1 -27 -1h-205v-273h-86zM186.001 347.999l192.998 0.00195312c33.333 0 59.5 2.66699 78.5 8s33 13.666 42 24.999s14.833 25.166 17.5 41.499s4 35.833 4 58.5s-1.16699 42.167 -3.5 58.5s-7.66602 30 -15.999 41
s-21.666 19.333 -39.999 25s-43.5 8.5 -75.5 8.5h-200v-266zM297.999 773.001l-102 134v6h56l88 -97l89 97h56v-6l-102 -134h-85z" />
    <glyph glyph-name="rcaron" unicode="&#x159;" horiz-adv-x="367" 
d="M86 0v510.002h73l4 -98h6c8.66699 28.667 21 50.667 37 66s35.333 25.833 58 31.5s47.667 8.5 75 8.5v-80c-46 0 -81.333 -7.33301 -106 -22s-41.667 -37.334 -51 -68.001s-14 -69.334 -14 -116.001v-232h-82zM141 595.002l-102 134v6h56l88 -97l89 97h56v-6l-102 -134
h-85z" />
    <glyph glyph-name="Sacute" unicode="&#x15a;" horiz-adv-x="628" 
d="M329 -8c-24.667 0 -51.6611 0.668945 -80.9941 2.00195s-57.833 3 -85.5 5s-52.834 4.33301 -75.501 7v73l75.5 -6c26.333 -2 52 -3.66699 77 -5s46.167 -2 63.5 -2c35.333 0 63.666 1.5 84.999 4.5s39.333 8.83301 54 17.5c10 6 17.333 14 22 24s7.5 21.667 8.5 35
s1.5 27.666 1.5 42.999c0 22.667 -0.666992 41 -2 55s-4.83301 24.833 -10.5 32.5s-14.834 13.334 -27.501 17.001s-29.667 6.5 -51 8.5l-171 19c-32 4 -57.667 10.833 -77 20.5s-33.833 22 -43.5 37s-16.167 33 -19.5 54s-5 44.5 -5 70.5c0 42 5.5 75.667 16.5 101
s27.167 44.666 48.5 57.999s47.166 22.166 77.499 26.499s65.166 6.5 104.499 6.5c25.333 0 51.333 -0.666992 78 -2s51.834 -3.16602 75.501 -5.49902s43.167 -5.16602 58.5 -8.49902v-71c-17.333 2.66699 -37.333 5 -60 7s-45.834 3.5 -69.501 4.5s-46.167 1.5 -67.5 1.5
c-36.667 0 -66.334 -1.66699 -89.001 -5s-40.667 -9.33301 -54 -18c-14.667 -8.66699 -23.834 -20.834 -27.501 -36.501s-5.5 -34.5 -5.5 -56.5c0 -26 1.83301 -46.167 5.5 -60.5s11.667 -24.333 24 -30s30.833 -9.83398 55.5 -12.501l167 -19
c24 -2 45.167 -5.16699 63.5 -9.5s34.166 -11.5 47.499 -21.5s23.333 -24.333 30 -43c4 -9.33301 7 -19.666 9 -30.999s3.5 -23.833 4.5 -37.5s1.5 -28.834 1.5 -45.501c0 -38 -3.66699 -69.5 -11 -94.5s-17.666 -44.833 -30.999 -59.5s-29.666 -25.667 -48.999 -33
s-40.833 -12 -64.5 -14s-49.167 -3 -76.5 -3zM261.006 773.002v5l101 135h88v-5l-129 -135h-60z" />
    <glyph glyph-name="sacute" unicode="&#x15b;" horiz-adv-x="499" 
d="M256 -8c-19.333 0 -40.002 0.672852 -62.002 2.00586s-43.667 2.83301 -65 4.5s-40.666 3.83398 -57.999 6.50098v66l46.5 -4c15 -1.33301 29.833 -2.5 44.5 -3.5s29.334 -1.66699 44.001 -2s29.667 -0.5 45 -0.5c34.667 0 59.834 2.5 75.501 7.5s26 13.5 31 25.5
s7.5 27.667 7.5 47c0 22 -1.83301 38 -5.5 48s-10 16.5 -19 19.5s-22.5 5.5 -40.5 7.5l-132 15c-31.333 3.33301 -55 10.166 -71 20.499s-27 25.166 -33 44.499s-9 43.666 -9 72.999c0 33.333 4.66699 60 14 80s22.666 35 39.999 45s38.333 16.5 63 19.5
s52.334 4.5 83.001 4.5c17.333 0 35.666 -0.666992 54.999 -2s38.333 -3 57 -5s34.667 -4.33301 48 -7v-66c-17.333 2.66699 -34.833 4.83398 -52.5 6.50098s-35.667 2.83398 -54 3.50098s-36.833 1 -55.5 1c-25.333 0 -47 -1.33301 -65 -4s-31.5 -9.33398 -40.5 -20.001
s-13.5 -28.334 -13.5 -53.001c0 -19.333 1.5 -33.833 4.5 -43.5s9.16699 -16.334 18.5 -20.001s22.333 -6.5 39 -8.5l138 -15c27.333 -2.66699 48.833 -7.83398 64.5 -15.501s27 -21.167 34 -40.5s10.5 -48.333 10.5 -87c0 -32 -3.83301 -57.833 -11.5 -77.5
s-19.5 -34.834 -35.5 -45.501s-35.667 -17.834 -59 -21.501s-50.333 -5.5 -81 -5.5zM172.998 595.006v5l101 135h88v-5l-129 -135h-60z" />
    <glyph glyph-name="Scircumflex" unicode="&#x15c;" horiz-adv-x="628" 
d="M329 -8c-24.667 0 -51.6611 0.668945 -80.9941 2.00195s-57.833 3 -85.5 5s-52.834 4.33301 -75.501 7v73l75.5 -6c26.333 -2 52 -3.66699 77 -5s46.167 -2 63.5 -2c35.333 0 63.666 1.5 84.999 4.5s39.333 8.83301 54 17.5c10 6 17.333 14 22 24s7.5 21.667 8.5 35
s1.5 27.666 1.5 42.999c0 22.667 -0.666992 41 -2 55s-4.83301 24.833 -10.5 32.5s-14.834 13.334 -27.501 17.001s-29.667 6.5 -51 8.5l-171 19c-32 4 -57.667 10.833 -77 20.5s-33.833 22 -43.5 37s-16.167 33 -19.5 54s-5 44.5 -5 70.5c0 42 5.5 75.667 16.5 101
s27.167 44.666 48.5 57.999s47.166 22.166 77.499 26.499s65.166 6.5 104.499 6.5c25.333 0 51.333 -0.666992 78 -2s51.834 -3.16602 75.501 -5.49902s43.167 -5.16602 58.5 -8.49902v-71c-17.333 2.66699 -37.333 5 -60 7s-45.834 3.5 -69.501 4.5s-46.167 1.5 -67.5 1.5
c-36.667 0 -66.334 -1.66699 -89.001 -5s-40.667 -9.33301 -54 -18c-14.667 -8.66699 -23.834 -20.834 -27.501 -36.501s-5.5 -34.5 -5.5 -56.5c0 -26 1.83301 -46.167 5.5 -60.5s11.667 -24.333 24 -30s30.833 -9.83398 55.5 -12.501l167 -19
c24 -2 45.167 -5.16699 63.5 -9.5s34.166 -11.5 47.499 -21.5s23.333 -24.333 30 -43c4 -9.33301 7 -19.666 9 -30.999s3.5 -23.833 4.5 -37.5s1.5 -28.834 1.5 -45.501c0 -38 -3.66699 -69.5 -11 -94.5s-17.666 -44.833 -30.999 -59.5s-29.666 -25.667 -48.999 -33
s-40.833 -12 -64.5 -14s-49.167 -3 -76.5 -3zM170.006 773.002v6l102 135h85l102 -135v-6h-56l-89 97l-88 -97h-56z" />
    <glyph glyph-name="scircumflex" unicode="&#x15d;" horiz-adv-x="499" 
d="M256 -8c-19.333 0 -40.002 0.672852 -62.002 2.00586s-43.667 2.83301 -65 4.5s-40.666 3.83398 -57.999 6.50098v66l46.5 -4c15 -1.33301 29.833 -2.5 44.5 -3.5s29.334 -1.66699 44.001 -2s29.667 -0.5 45 -0.5c34.667 0 59.834 2.5 75.501 7.5s26 13.5 31 25.5
s7.5 27.667 7.5 47c0 22 -1.83301 38 -5.5 48s-10 16.5 -19 19.5s-22.5 5.5 -40.5 7.5l-132 15c-31.333 3.33301 -55 10.166 -71 20.499s-27 25.166 -33 44.499s-9 43.666 -9 72.999c0 33.333 4.66699 60 14 80s22.666 35 39.999 45s38.333 16.5 63 19.5
s52.334 4.5 83.001 4.5c17.333 0 35.666 -0.666992 54.999 -2s38.333 -3 57 -5s34.667 -4.33301 48 -7v-66c-17.333 2.66699 -34.833 4.83398 -52.5 6.50098s-35.667 2.83398 -54 3.50098s-36.833 1 -55.5 1c-25.333 0 -47 -1.33301 -65 -4s-31.5 -9.33398 -40.5 -20.001
s-13.5 -28.334 -13.5 -53.001c0 -19.333 1.5 -33.833 4.5 -43.5s9.16699 -16.334 18.5 -20.001s22.333 -6.5 39 -8.5l138 -15c27.333 -2.66699 48.833 -7.83398 64.5 -15.501s27 -21.167 34 -40.5s10.5 -48.333 10.5 -87c0 -32 -3.83301 -57.833 -11.5 -77.5
s-19.5 -34.834 -35.5 -45.501s-35.667 -17.834 -59 -21.501s-50.333 -5.5 -81 -5.5zM104.998 595.006v6l102 134h85l102 -134v-6h-56l-89 96l-88 -96h-56z" />
    <glyph glyph-name="Scedilla" unicode="&#x15e;" horiz-adv-x="628" 
d="M329 -8c-24.667 0 -51.6611 0.668945 -80.9941 2.00195s-57.833 3 -85.5 5s-52.834 4.33301 -75.501 7v73l75.5 -6c26.333 -2 52 -3.66699 77 -5s46.167 -2 63.5 -2c35.333 0 63.666 1.5 84.999 4.5s39.333 8.83301 54 17.5c10 6 17.333 14 22 24s7.5 21.667 8.5 35
s1.5 27.666 1.5 42.999c0 22.667 -0.666992 41 -2 55s-4.83301 24.833 -10.5 32.5s-14.834 13.334 -27.501 17.001s-29.667 6.5 -51 8.5l-171 19c-32 4 -57.667 10.833 -77 20.5s-33.833 22 -43.5 37s-16.167 33 -19.5 54s-5 44.5 -5 70.5c0 42 5.5 75.667 16.5 101
s27.167 44.666 48.5 57.999s47.166 22.166 77.499 26.499s65.166 6.5 104.499 6.5c25.333 0 51.333 -0.666992 78 -2s51.834 -3.16602 75.501 -5.49902s43.167 -5.16602 58.5 -8.49902v-71c-17.333 2.66699 -37.333 5 -60 7s-45.834 3.5 -69.501 4.5s-46.167 1.5 -67.5 1.5
c-36.667 0 -66.334 -1.66699 -89.001 -5s-40.667 -9.33301 -54 -18c-14.667 -8.66699 -23.834 -20.834 -27.501 -36.501s-5.5 -34.5 -5.5 -56.5c0 -26 1.83301 -46.167 5.5 -60.5s11.667 -24.333 24 -30s30.833 -9.83398 55.5 -12.501l167 -19
c24 -2 45.167 -5.16699 63.5 -9.5s34.166 -11.5 47.499 -21.5s23.333 -24.333 30 -43c4 -9.33301 7 -19.666 9 -30.999s3.5 -23.833 4.5 -37.5s1.5 -28.834 1.5 -45.501c0 -38 -3.66699 -69.5 -11 -94.5s-17.666 -44.833 -30.999 -59.5s-29.666 -25.667 -48.999 -33
s-40.833 -12 -64.5 -14s-49.167 -3 -76.5 -3zM224.006 -189.998v5l68 203h55v-5l-42 -203h-81z" />
    <glyph glyph-name="scedilla" unicode="&#x15f;" horiz-adv-x="499" 
d="M256 -8c-19.333 0 -40.002 0.672852 -62.002 2.00586s-43.667 2.83301 -65 4.5s-40.666 3.83398 -57.999 6.50098v66l46.5 -4c15 -1.33301 29.833 -2.5 44.5 -3.5s29.334 -1.66699 44.001 -2s29.667 -0.5 45 -0.5c34.667 0 59.834 2.5 75.501 7.5s26 13.5 31 25.5
s7.5 27.667 7.5 47c0 22 -1.83301 38 -5.5 48s-10 16.5 -19 19.5s-22.5 5.5 -40.5 7.5l-132 15c-31.333 3.33301 -55 10.166 -71 20.499s-27 25.166 -33 44.499s-9 43.666 -9 72.999c0 33.333 4.66699 60 14 80s22.666 35 39.999 45s38.333 16.5 63 19.5
s52.334 4.5 83.001 4.5c17.333 0 35.666 -0.666992 54.999 -2s38.333 -3 57 -5s34.667 -4.33301 48 -7v-66c-17.333 2.66699 -34.833 4.83398 -52.5 6.50098s-35.667 2.83398 -54 3.50098s-36.833 1 -55.5 1c-25.333 0 -47 -1.33301 -65 -4s-31.5 -9.33398 -40.5 -20.001
s-13.5 -28.334 -13.5 -53.001c0 -19.333 1.5 -33.833 4.5 -43.5s9.16699 -16.334 18.5 -20.001s22.333 -6.5 39 -8.5l138 -15c27.333 -2.66699 48.833 -7.83398 64.5 -15.501s27 -21.167 34 -40.5s10.5 -48.333 10.5 -87c0 -32 -3.83301 -57.833 -11.5 -77.5
s-19.5 -34.834 -35.5 -45.501s-35.667 -17.834 -59 -21.501s-50.333 -5.5 -81 -5.5zM157.998 -189.994v5l68 203h55v-5l-42 -203h-81z" />
    <glyph glyph-name="Scaron" unicode="&#x160;" horiz-adv-x="628" 
d="M329 -8c-24.667 0 -51.6611 0.668945 -80.9941 2.00195s-57.833 3 -85.5 5s-52.834 4.33301 -75.501 7v73l75.5 -6c26.333 -2 52 -3.66699 77 -5s46.167 -2 63.5 -2c35.333 0 63.666 1.5 84.999 4.5s39.333 8.83301 54 17.5c10 6 17.333 14 22 24s7.5 21.667 8.5 35
s1.5 27.666 1.5 42.999c0 22.667 -0.666992 41 -2 55s-4.83301 24.833 -10.5 32.5s-14.834 13.334 -27.501 17.001s-29.667 6.5 -51 8.5l-171 19c-32 4 -57.667 10.833 -77 20.5s-33.833 22 -43.5 37s-16.167 33 -19.5 54s-5 44.5 -5 70.5c0 42 5.5 75.667 16.5 101
s27.167 44.666 48.5 57.999s47.166 22.166 77.499 26.499s65.166 6.5 104.499 6.5c25.333 0 51.333 -0.666992 78 -2s51.834 -3.16602 75.501 -5.49902s43.167 -5.16602 58.5 -8.49902v-71c-17.333 2.66699 -37.333 5 -60 7s-45.834 3.5 -69.501 4.5s-46.167 1.5 -67.5 1.5
c-36.667 0 -66.334 -1.66699 -89.001 -5s-40.667 -9.33301 -54 -18c-14.667 -8.66699 -23.834 -20.834 -27.501 -36.501s-5.5 -34.5 -5.5 -56.5c0 -26 1.83301 -46.167 5.5 -60.5s11.667 -24.333 24 -30s30.833 -9.83398 55.5 -12.501l167 -19
c24 -2 45.167 -5.16699 63.5 -9.5s34.166 -11.5 47.499 -21.5s23.333 -24.333 30 -43c4 -9.33301 7 -19.666 9 -30.999s3.5 -23.833 4.5 -37.5s1.5 -28.834 1.5 -45.501c0 -38 -3.66699 -69.5 -11 -94.5s-17.666 -44.833 -30.999 -59.5s-29.666 -25.667 -48.999 -33
s-40.833 -12 -64.5 -14s-49.167 -3 -76.5 -3zM272.006 773.002l-102 134v6h56l88 -97l89 97h56v-6l-102 -134h-85z" />
    <glyph glyph-name="scaron" unicode="&#x161;" horiz-adv-x="499" 
d="M256 -8c-19.333 0 -40.002 0.672852 -62.002 2.00586s-43.667 2.83301 -65 4.5s-40.666 3.83398 -57.999 6.50098v66l46.5 -4c15 -1.33301 29.833 -2.5 44.5 -3.5s29.334 -1.66699 44.001 -2s29.667 -0.5 45 -0.5c34.667 0 59.834 2.5 75.501 7.5s26 13.5 31 25.5
s7.5 27.667 7.5 47c0 22 -1.83301 38 -5.5 48s-10 16.5 -19 19.5s-22.5 5.5 -40.5 7.5l-132 15c-31.333 3.33301 -55 10.166 -71 20.499s-27 25.166 -33 44.499s-9 43.666 -9 72.999c0 33.333 4.66699 60 14 80s22.666 35 39.999 45s38.333 16.5 63 19.5
s52.334 4.5 83.001 4.5c17.333 0 35.666 -0.666992 54.999 -2s38.333 -3 57 -5s34.667 -4.33301 48 -7v-66c-17.333 2.66699 -34.833 4.83398 -52.5 6.50098s-35.667 2.83398 -54 3.50098s-36.833 1 -55.5 1c-25.333 0 -47 -1.33301 -65 -4s-31.5 -9.33398 -40.5 -20.001
s-13.5 -28.334 -13.5 -53.001c0 -19.333 1.5 -33.833 4.5 -43.5s9.16699 -16.334 18.5 -20.001s22.333 -6.5 39 -8.5l138 -15c27.333 -2.66699 48.833 -7.83398 64.5 -15.501s27 -21.167 34 -40.5s10.5 -48.333 10.5 -87c0 -32 -3.83301 -57.833 -11.5 -77.5
s-19.5 -34.834 -35.5 -45.501s-35.667 -17.834 -59 -21.501s-50.333 -5.5 -81 -5.5zM206.998 595.006l-102 134v6h56l88 -97l89 97h56v-6l-102 -134h-85z" />
    <glyph glyph-name="uni0162" unicode="&#x162;" horiz-adv-x="581" 
d="M247 0v612h-217v76h521v-76h-218v-612h-86zM200 -190v5l68 203h55v-5l-42 -203h-81z" />
    <glyph glyph-name="uni0163" unicode="&#x163;" horiz-adv-x="358" 
d="M129 0v441h-103v69h103v148h81v-148h122v-69h-122v-441h-81zM78 -190v5l68 203h55v-5l-42 -203h-81z" />
    <glyph glyph-name="Tcaron" unicode="&#x164;" horiz-adv-x="581" 
d="M247 0v612h-217v76h521v-76h-218v-612h-86zM248 773l-102 134v6h56l88 -97l89 97h56v-6l-102 -134h-85z" />
    <glyph glyph-name="tcaron" unicode="&#x165;" horiz-adv-x="358" 
d="M129 0v441h-103v69h103v148h81v-148h122v-69h-122v-441h-81zM264 569l14 168v76h71v-76l-34 -168h-51z" />
    <glyph glyph-name="Tbar" unicode="&#x166;" horiz-adv-x="581" 
d="M55 307v68h471v-68h-471zM247 0v612h-217v76h521v-76h-218v-612h-86z" />
    <glyph glyph-name="tbar" unicode="&#x167;" horiz-adv-x="358" 
d="M27 217v68h306v-68h-306zM129 0v441h-103v69h103v148h81v-148h122v-69h-122v-441h-81z" />
    <glyph glyph-name="Utilde" unicode="&#x168;" horiz-adv-x="708" 
d="M355 -8c-47.333 0 -86.832 2.83301 -118.499 8.5s-57.167 15.167 -76.5 28.5s-34 31.833 -44 55.5s-16.667 53.167 -20 88.5s-5 78 -5 128v387h86v-421c0 -42 1.66699 -76 5 -102s10.5 -46.333 21.5 -61s28.5 -24.667 52.5 -30s57 -8 99 -8s74.833 2.66699 98.5 8
s41 15.333 52 30s17.833 35 20.5 61s4 60 4 102v421h86v-387c0 -50 -1.5 -92.667 -4.5 -128s-9.33301 -64.833 -19 -88.5s-24.167 -42.167 -43.5 -55.5s-44.833 -22.833 -76.5 -28.5s-70.834 -8.5 -117.501 -8.5zM184.001 780c0 26 1.5 47.333 4.5 64
s9.83301 29.167 20.5 37.5s27 12.5 49 12.5c18.667 0 37 -2.5 55 -7.5s36 -10.5 54 -16.5l40.5 -13c13 -4 26.167 -6 39.5 -6c14.667 0 23.5 3.83301 26.5 11.5s4.5 21.834 4.5 42.501h47c0 -26 -1.5 -47.333 -4.5 -64s-9.66699 -29.167 -20 -37.5s-26.5 -12.5 -48.5 -12.5
c-20 0 -38.5 2.66699 -55.5 8l-53.5 16c-14 4.66699 -27.667 9 -41 13s-26.333 6 -39 6c-14.667 0 -23.5 -3.83301 -26.5 -11.5s-4.5 -21.834 -4.5 -42.501h-48z" />
    <glyph glyph-name="utilde" unicode="&#x169;" horiz-adv-x="599" 
d="M260 -8c-37.333 0 -67.499 3.99902 -90.499 11.999s-40.5 20 -52.5 36s-20.167 36.5 -24.5 61.5s-6.5 54.833 -6.5 89.5v319h82v-291c0 -34 1.33301 -61.333 4 -82s8.5 -36.167 17.5 -46.5s21.833 -17.166 38.5 -20.499s38.334 -5 65.001 -5
c33.333 0 59.333 4.16699 78 12.5s32.167 20.333 40.5 36s13.666 34.667 15.999 57s3.5 47.833 3.5 76.5v263h81v-510h-73l-3 73h-7c-6.66699 -16 -16.5 -30 -29.5 -42s-30.833 -21.5 -53.5 -28.5s-51.334 -10.5 -86.001 -10.5zM128.001 601.999c0 26 1.5 47.333 4.5 64
s9.83301 29.167 20.5 37.5s27 12.5 49 12.5c18.667 0 37 -2.5 55 -7.5s36 -10.5 54 -16.5l40.5 -13c13 -4 26.167 -6 39.5 -6c14.667 0 23.5 3.83301 26.5 11.5s4.5 21.834 4.5 42.501h47c0 -26 -1.5 -47.333 -4.5 -64s-9.66699 -29.167 -20 -37.5s-26.5 -12.5 -48.5 -12.5
c-20 0 -38.5 2.66699 -55.5 8l-53.5 16c-14 4.66699 -27.667 9 -41 13s-26.333 6 -39 6c-14.667 0 -23.5 -3.83301 -26.5 -11.5s-4.5 -21.834 -4.5 -42.501h-48z" />
    <glyph glyph-name="Umacron" unicode="&#x16a;" horiz-adv-x="708" 
d="M355 -8c-47.333 0 -86.832 2.83301 -118.499 8.5s-57.167 15.167 -76.5 28.5s-34 31.833 -44 55.5s-16.667 53.167 -20 88.5s-5 78 -5 128v387h86v-421c0 -42 1.66699 -76 5 -102s10.5 -46.333 21.5 -61s28.5 -24.667 52.5 -30s57 -8 99 -8s74.833 2.66699 98.5 8
s41 15.333 52 30s17.833 35 20.5 61s4 60 4 102v421h86v-387c0 -50 -1.5 -92.667 -4.5 -128s-9.33301 -64.833 -19 -88.5s-24.167 -42.167 -43.5 -55.5s-44.833 -22.833 -76.5 -28.5s-70.834 -8.5 -117.501 -8.5zM210.001 806v57h289v-57h-289z" />
    <glyph glyph-name="umacron" unicode="&#x16b;" horiz-adv-x="599" 
d="M260 -8c-37.333 0 -67.499 3.99902 -90.499 11.999s-40.5 20 -52.5 36s-20.167 36.5 -24.5 61.5s-6.5 54.833 -6.5 89.5v319h82v-291c0 -34 1.33301 -61.333 4 -82s8.5 -36.167 17.5 -46.5s21.833 -17.166 38.5 -20.499s38.334 -5 65.001 -5
c33.333 0 59.333 4.16699 78 12.5s32.167 20.333 40.5 36s13.666 34.667 15.999 57s3.5 47.833 3.5 76.5v263h81v-510h-73l-3 73h-7c-6.66699 -16 -16.5 -30 -29.5 -42s-30.833 -21.5 -53.5 -28.5s-51.334 -10.5 -86.001 -10.5zM154.001 627.999v57h289v-57h-289z" />
    <glyph glyph-name="Ubreve" unicode="&#x16c;" horiz-adv-x="708" 
d="M355 -8c-47.333 0 -86.832 2.83301 -118.499 8.5s-57.167 15.167 -76.5 28.5s-34 31.833 -44 55.5s-16.667 53.167 -20 88.5s-5 78 -5 128v387h86v-421c0 -42 1.66699 -76 5 -102s10.5 -46.333 21.5 -61s28.5 -24.667 52.5 -30s57 -8 99 -8s74.833 2.66699 98.5 8
s41 15.333 52 30s17.833 35 20.5 61s4 60 4 102v421h86v-387c0 -50 -1.5 -92.667 -4.5 -128s-9.33301 -64.833 -19 -88.5s-24.167 -42.167 -43.5 -55.5s-44.833 -22.833 -76.5 -28.5s-70.834 -8.5 -117.501 -8.5zM353.001 764c-32.667 0 -58.333 3.5 -77 10.5
s-32.167 17 -40.5 30s-13.666 28.167 -15.999 45.5s-3.5 36.666 -3.5 57.999h53c0 -20 1.16699 -37 3.5 -51s9.33301 -24.5 21 -31.5s31.5 -10.5 59.5 -10.5s47.833 3.5 59.5 10.5s18.834 17.5 21.501 31.5s4 31 4 51h53c0 -21.333 -1.16699 -40.666 -3.5 -57.999
s-7.83301 -32.5 -16.5 -45.5s-22.334 -23 -41.001 -30s-44.334 -10.5 -77.001 -10.5z" />
    <glyph glyph-name="ubreve" unicode="&#x16d;" horiz-adv-x="599" 
d="M260 -8c-37.333 0 -67.499 3.99902 -90.499 11.999s-40.5 20 -52.5 36s-20.167 36.5 -24.5 61.5s-6.5 54.833 -6.5 89.5v319h82v-291c0 -34 1.33301 -61.333 4 -82s8.5 -36.167 17.5 -46.5s21.833 -17.166 38.5 -20.499s38.334 -5 65.001 -5
c33.333 0 59.333 4.16699 78 12.5s32.167 20.333 40.5 36s13.666 34.667 15.999 57s3.5 47.833 3.5 76.5v263h81v-510h-73l-3 73h-7c-6.66699 -16 -16.5 -30 -29.5 -42s-30.833 -21.5 -53.5 -28.5s-51.334 -10.5 -86.001 -10.5zM298.001 585.999
c-32.667 0 -58.333 3.66699 -77 11s-32.167 17.333 -40.5 30s-13.666 27.834 -15.999 45.501s-3.5 36.834 -3.5 57.501h53c0 -20 1.16699 -36.833 3.5 -50.5s9.33301 -24.167 21 -31.5s31.5 -11 59.5 -11s47.833 3.66699 59.5 11s18.834 17.833 21.501 31.5s4 30.5 4 50.5
h53c0 -20.667 -1.16699 -39.834 -3.5 -57.501s-7.83301 -32.834 -16.5 -45.501s-22.334 -22.667 -41.001 -30s-44.334 -11 -77.001 -11z" />
    <glyph glyph-name="Uring" unicode="&#x16e;" horiz-adv-x="708" 
d="M355 -8c-47.333 0 -86.832 2.83301 -118.499 8.5s-57.167 15.167 -76.5 28.5s-34 31.833 -44 55.5s-16.667 53.167 -20 88.5s-5 78 -5 128v387h86v-421c0 -42 1.66699 -76 5 -102s10.5 -46.333 21.5 -61s28.5 -24.667 52.5 -30s57 -8 99 -8s74.833 2.66699 98.5 8
s41 15.333 52 30s17.833 35 20.5 61s4 60 4 102v421h86v-387c0 -50 -1.5 -92.667 -4.5 -128s-9.33301 -64.833 -19 -88.5s-24.167 -42.167 -43.5 -55.5s-44.833 -22.833 -76.5 -28.5s-70.834 -8.5 -117.501 -8.5zM353.001 759c-30 0 -53.5 1.83301 -70.5 5.5
s-29.333 9.66699 -37 18s-12.667 19.166 -15 32.499s-3.5 29.333 -3.5 48s1.16699 34.667 3.5 48s7.33301 24.166 15 32.499s20 14.5 37 18.5s40.5 6 70.5 6c30.667 0 54.667 -2 72 -6s30 -10.167 38 -18.5s13 -19.166 15 -32.499s3 -29.333 3 -48s-1 -34.667 -3 -48
s-7 -24.166 -15 -32.499s-20.667 -14.333 -38 -18s-41.333 -5.5 -72 -5.5zM353.001 801c25.333 0 43.166 1.83301 53.499 5.5s16.666 10 18.999 19s3.5 21.5 3.5 37.5s-1.16699 28.667 -3.5 38s-8.66602 15.833 -18.999 19.5s-28.166 5.5 -53.499 5.5
c-24 0 -41.167 -1.83301 -51.5 -5.5s-16.666 -10.167 -18.999 -19.5s-3.5 -22 -3.5 -38s1.16699 -28.5 3.5 -37.5s8.66602 -15.333 18.999 -19s27.5 -5.5 51.5 -5.5z" />
    <glyph glyph-name="uring" unicode="&#x16f;" horiz-adv-x="599" 
d="M260 -8c-37.333 0 -67.499 3.99902 -90.499 11.999s-40.5 20 -52.5 36s-20.167 36.5 -24.5 61.5s-6.5 54.833 -6.5 89.5v319h82v-291c0 -34 1.33301 -61.333 4 -82s8.5 -36.167 17.5 -46.5s21.833 -17.166 38.5 -20.499s38.334 -5 65.001 -5
c33.333 0 59.333 4.16699 78 12.5s32.167 20.333 40.5 36s13.666 34.667 15.999 57s3.5 47.833 3.5 76.5v263h81v-510h-73l-3 73h-7c-6.66699 -16 -16.5 -30 -29.5 -42s-30.833 -21.5 -53.5 -28.5s-51.334 -10.5 -86.001 -10.5zM298.001 580.999
c-30 0 -53.5 1.83301 -70.5 5.5s-29.333 9.66699 -37 18s-12.667 19.166 -15 32.499s-3.5 29.333 -3.5 48s1.16699 34.667 3.5 48s7.33301 24.166 15 32.499s20 14.5 37 18.5s40.5 6 70.5 6c30.667 0 54.667 -2 72 -6s30 -10.167 38 -18.5s13 -19.166 15 -32.499
s3 -29.333 3 -48s-1 -34.667 -3 -48s-7 -24.166 -15 -32.499s-20.667 -14.333 -38 -18s-41.333 -5.5 -72 -5.5zM298.001 622.999c25.333 0 43.166 1.83301 53.499 5.5s16.666 10 18.999 19s3.5 21.5 3.5 37.5s-1.16699 28.667 -3.5 38s-8.66602 15.833 -18.999 19.5
s-28.166 5.5 -53.499 5.5c-24 0 -41.167 -1.83301 -51.5 -5.5s-16.666 -10.167 -18.999 -19.5s-3.5 -22 -3.5 -38s1.16699 -28.5 3.5 -37.5s8.66602 -15.333 18.999 -19s27.5 -5.5 51.5 -5.5z" />
    <glyph glyph-name="Uhungarumlaut" unicode="&#x170;" horiz-adv-x="708" 
d="M355 -8c-47.333 0 -86.832 2.83301 -118.499 8.5s-57.167 15.167 -76.5 28.5s-34 31.833 -44 55.5s-16.667 53.167 -20 88.5s-5 78 -5 128v387h86v-421c0 -42 1.66699 -76 5 -102s10.5 -46.333 21.5 -61s28.5 -24.667 52.5 -30s57 -8 99 -8s74.833 2.66699 98.5 8
s41 15.333 52 30s17.833 35 20.5 61s4 60 4 102v421h86v-387c0 -50 -1.5 -92.667 -4.5 -128s-9.33301 -64.833 -19 -88.5s-24.167 -42.167 -43.5 -55.5s-44.833 -22.833 -76.5 -28.5s-70.834 -8.5 -117.501 -8.5zM222.001 773v5l89 117h77v-5l-113 -117h-53zM403.001 773v5
l89 117h77v-5l-114 -117h-52z" />
    <glyph glyph-name="uhungarumlaut" unicode="&#x171;" horiz-adv-x="599" 
d="M260 -8c-37.333 0 -67.499 3.99902 -90.499 11.999s-40.5 20 -52.5 36s-20.167 36.5 -24.5 61.5s-6.5 54.833 -6.5 89.5v319h82v-291c0 -34 1.33301 -61.333 4 -82s8.5 -36.167 17.5 -46.5s21.833 -17.166 38.5 -20.499s38.334 -5 65.001 -5
c33.333 0 59.333 4.16699 78 12.5s32.167 20.333 40.5 36s13.666 34.667 15.999 57s3.5 47.833 3.5 76.5v263h81v-510h-73l-3 73h-7c-6.66699 -16 -16.5 -30 -29.5 -42s-30.833 -21.5 -53.5 -28.5s-51.334 -10.5 -86.001 -10.5zM175.001 594.999v5l89 117h77v-5l-113 -117
h-53zM356.001 594.999v5l89 117h77v-5l-114 -117h-52z" />
    <glyph glyph-name="Uogonek" unicode="&#x172;" horiz-adv-x="708" 
d="M355 -8c-47.333 0 -86.832 2.83301 -118.499 8.5s-57.167 15.167 -76.5 28.5s-34 31.833 -44 55.5s-16.667 53.167 -20 88.5s-5 78 -5 128v387h86v-421c0 -42 1.66699 -76 5 -102s10.5 -46.333 21.5 -61s28.5 -24.667 52.5 -30s57 -8 99 -8s74.833 2.66699 98.5 8
s41 15.333 52 30s17.833 35 20.5 61s4 60 4 102v421h86v-387c0 -50 -1.5 -92.667 -4.5 -128s-9.33301 -64.833 -19 -88.5s-24.167 -42.167 -43.5 -55.5s-44.833 -22.833 -76.5 -28.5s-70.834 -8.5 -117.501 -8.5zM379.001 -200c-24.667 0 -44 3.50195 -58 10.502
s-23.833 16.333 -29.5 28s-8.5 24.5 -8.5 38.5c0 21.333 7 44.166 21 68.499s32 45.833 54 64.5l59 -10c-8.66699 -6.66699 -18 -16 -28 -28s-18.333 -24.833 -25 -38.5s-10 -26.834 -10 -39.501c0 -11.333 3.33301 -20.833 10 -28.5s19 -11.5 37 -11.5h7.5
c3 0 6.16699 0.333008 9.5 1v-53c-6.66699 -0.666992 -13.167 -1.16699 -19.5 -1.5s-12.833 -0.5 -19.5 -0.5z" />
    <glyph glyph-name="uogonek" unicode="&#x173;" horiz-adv-x="599" 
d="M260 -8c-37.333 0 -67.499 3.99902 -90.499 11.999s-40.5 20 -52.5 36s-20.167 36.5 -24.5 61.5s-6.5 54.833 -6.5 89.5v319h82v-291c0 -34 1.33301 -61.333 4 -82s8.5 -36.167 17.5 -46.5s21.833 -17.166 38.5 -20.499s38.334 -5 65.001 -5
c33.333 0 59.333 4.16699 78 12.5s32.167 20.333 40.5 36s13.666 34.667 15.999 57s3.5 47.833 3.5 76.5v263h81v-510h-73l-3 73h-7c-6.66699 -16 -16.5 -30 -29.5 -42s-30.833 -21.5 -53.5 -28.5s-51.334 -10.5 -86.001 -10.5zM474.001 -200.001
c-24.667 0 -44 3.50195 -58 10.502s-23.833 16.333 -29.5 28s-8.5 24.5 -8.5 38.5c0 21.333 7 44.166 21 68.499s32 45.833 54 64.5l59 -10c-8.66699 -6.66699 -18 -16 -28 -28s-18.333 -24.833 -25 -38.5s-10 -26.834 -10 -39.501c0 -11.333 3.33301 -20.833 10 -28.5
s19 -11.5 37 -11.5h7.5c3 0 6.16699 0.333008 9.5 1v-53c-6.66699 -0.666992 -13.167 -1.16699 -19.5 -1.5s-12.833 -0.5 -19.5 -0.5z" />
    <glyph glyph-name="Wcircumflex" unicode="&#x174;" horiz-adv-x="987" 
d="M223 0l-187 688h88l153 -576h6l168 576h90l169 -576h6l149 576h86l-187 -688h-102l-166 557h-4l-166 -557h-103zM349 773v6l102 135h85l102 -135v-6h-56l-89 97l-88 -97h-56z" />
    <glyph glyph-name="wcircumflex" unicode="&#x175;" horiz-adv-x="817" 
d="M194 0l-163 510h85l124 -411h7l124 411h77l124 -411h8l123 411h82l-163 -510h-94l-117 376h-7l-116 -376h-94zM264 595v6l102 134h85l102 -134v-6h-56l-89 96l-88 -96h-56z" />
    <glyph glyph-name="Ycircumflex" unicode="&#x176;" horiz-adv-x="609" 
d="M261 0v263l-249 425h92l199 -339h7l197 339h90l-250 -425v-263h-86zM160 773v6l102 135h85l102 -135v-6h-56l-89 97l-88 -97h-56z" />
    <glyph glyph-name="ycircumflex" unicode="&#x177;" horiz-adv-x="599" 
d="M282 -206c-19.333 0 -39.499 0.49707 -60.499 1.49707s-41 2 -60 3s-35.833 2.5 -50.5 4.5v65c22 -0.666992 42.167 -1.5 60.5 -2.5s35.333 -1.66699 51 -2s29.834 -0.5 42.501 -0.5c38.667 0 69.167 3 91.5 9s38.833 15.833 49.5 29.5s17.5 31.834 20.5 54.501
s4.5 50.334 4.5 83.001v30h-6c-5.33301 -13.333 -14.333 -25.666 -27 -36.999s-30 -20.333 -52 -27s-50.667 -10 -86 -10c-37.333 0 -67.5 3.83301 -90.5 11.5s-40.5 19.667 -52.5 36s-20.167 36.833 -24.5 61.5s-6.5 54 -6.5 88v318h82v-289
c0 -34.667 1.33301 -62.334 4 -83.001s8.5 -36.167 17.5 -46.5s21.833 -17.166 38.5 -20.499s38.334 -5 65.001 -5c33.333 0 59.333 4.16699 78 12.5s32.167 20.5 40.5 36.5s13.666 35.167 15.999 57.5s3.5 47.5 3.5 75.5v262h81v-447c0 -48.667 -2.5 -90.167 -7.5 -124.5
s-15.333 -62 -31 -83s-38.834 -36.5 -69.501 -46.5s-71.334 -15 -122.001 -15zM155.001 594.997v6l102 134h85l102 -134v-6h-56l-89 96l-88 -96h-56z" />
    <glyph glyph-name="Ydieresis" unicode="&#x178;" horiz-adv-x="609" 
d="M261 0v263l-249 425h92l199 -339h7l197 339h90l-250 -425v-263h-86zM163 806v80h77v-80h-77zM370 806v80h76v-80h-76z" />
    <glyph glyph-name="Zacute" unicode="&#x179;" horiz-adv-x="606" 
d="M53 0v71l388 543h-377v74h486v-69l-389 -545h395v-74h-503zM250 773v5l101 135h88v-5l-129 -135h-60z" />
    <glyph glyph-name="zacute" unicode="&#x17a;" horiz-adv-x="508" 
d="M52 0v63l297 378h-285v69h390v-63l-296 -378h298v-69h-404zM184 595v5l101 135h88v-5l-129 -135h-60z" />
    <glyph glyph-name="Zdotaccent" unicode="&#x17b;" horiz-adv-x="606" 
d="M53 0v71l388 543h-377v74h486v-69l-389 -545h395v-74h-503zM264 806v81h77v-81h-77z" />
    <glyph glyph-name="zdotaccent" unicode="&#x17c;" horiz-adv-x="508" 
d="M52 0v63l297 378h-285v69h390v-63l-296 -378h298v-69h-404zM221 628v80h77v-80h-77z" />
    <glyph glyph-name="Zcaron" unicode="&#x17d;" horiz-adv-x="606" 
d="M53 0v71l388 543h-377v74h486v-69l-389 -545h395v-74h-503zM261 773l-102 134v6h56l88 -97l89 97h56v-6l-102 -134h-85z" />
    <glyph glyph-name="zcaron" unicode="&#x17e;" horiz-adv-x="508" 
d="M52 0v63l297 378h-285v69h390v-63l-296 -378h298v-69h-404zM217 595l-102 134v6h56l88 -97l89 97h56v-6l-102 -134h-85z" />
    <glyph glyph-name="longs" unicode="&#x17f;" horiz-adv-x="343" 
d="M130 0l-0.00292969 441.001h-104v69h104v81c0 28.667 2.33301 52.167 7 70.5s12.167 33 22.5 44s23.833 19.167 40.5 24.5s36.834 8.66602 60.501 9.99902s51.167 2 82.5 2v-62c-27.333 0 -49.666 -1 -66.999 -3s-30.666 -5.5 -39.999 -10.5s-15.833 -12.5 -19.5 -22.5
s-5.5 -23 -5.5 -39v-605h-81z" />
    <glyph glyph-name="uni018F" unicode="&#x18f;" horiz-adv-x="697" 
d="M348 -8c-51.333 0 -93.8311 2.83008 -127.498 8.49707s-60.334 15.834 -80.001 30.501s-34 35.167 -43 61.5s-14.833 60 -17.5 101s-4 91.167 -4 150.5v41h458c0 43.333 -1.83301 79.333 -5.5 108s-9.83398 51.667 -18.501 69s-21.167 30.333 -37.5 39
s-37.666 14.334 -63.999 17.001s-58.5 4 -96.5 4c-24.667 0 -51.667 -1.33301 -81 -4s-55 -6.33398 -77 -11.001v72c16 3.33301 34.333 6.33301 55 9s41.834 4.66699 63.501 6s42.167 2 61.5 2c49.333 0 91 -2.83301 125 -8.5s61.667 -15.667 83 -30
s37.666 -34.666 48.999 -60.999s19 -60.166 23 -101.499s6 -91.666 6 -150.999s-1.33301 -109.5 -4 -150.5s-8.5 -74.667 -17.5 -101s-23.333 -46.833 -43 -61.5s-46.334 -24.834 -80.001 -30.501s-76.167 -8.5 -127.5 -8.5zM348.002 65.9971c34 0 61.9971 1 83.9971 3
s39.833 6.83301 53.5 14.5s23.834 20.167 30.501 37.5s11.334 41.166 14.001 71.499s4 69.5 4 117.5h-372c0.666992 -48 2.16699 -87.167 4.5 -117.5s7 -54.166 14 -71.499s17.167 -29.833 30.5 -37.5s31.333 -12.5 54 -14.5s50.334 -3 83.001 -3z" />
    </font>
</defs>
</svg>
